<?xml version="1.0" standalone="no"?>
<!DOCTYPE svg PUBLIC "-//W3C//DTD SVG 1.1//EN" "http://www.w3.org/Graphics/SVG/1.1/DTD/svg11.dtd" >
<svg>
<metadata>
Created by FontForge 20090914 at Fri Dec 07 18:22:54 2012

Copyright (c) 2011 by Hubert Jocham. All rights reserved.
</metadata>
<defs>
<font id="adiNeue2012-Light" horiz-adv-x="1034" >
  <font-face 
    font-family="adiNeue2012 Light"
    font-weight="300"
    font-stretch="normal"
    units-per-em="2048"
    panose-1="2 0 5 3 3 0 0 2 0 4"
    ascent="1556"
    descent="-492"
    x-height="1024"
    cap-height="1403"
    bbox="-319 -428 10174 1747"
    underline-thickness="246"
    underline-position="0"
    unicode-range="U+0020-U+FB02"
  />
<missing-glyph horiz-adv-x="860" 
 />
    <glyph glyph-name=".notdef" horiz-adv-x="860" 
 />
    <glyph glyph-name="A" unicode="A" horiz-adv-x="1204" 
d="M1102 0h-101v204l-13 -20t-34 -41t-57 -51.5t-81 -51t-107.5 -39t-135.5 -15.5q-110 0 -205 40.5t-165.5 111.5t-111 167.5t-40.5 208.5q0 111 40.5 207.5t111 167t165.5 111t205 40.5q58 0 107 -9.5t89.5 -24.5t73.5 -34t59 -39q60 -47 99 -106v197h101v-1024zM580 82
q90 0 168.5 33t136 90.5t90.5 136t33 170.5t-33 171t-90.5 137t-136 91t-168.5 33q-92 0 -170.5 -33t-135.5 -91.5t-89.5 -137.5t-32.5 -170t32.5 -169.5t89.5 -136.5t135.5 -91t170.5 -33z" />
    <glyph glyph-name="Aacute" unicode="&#xc1;" horiz-adv-x="1204" 
d="M1102 0h-101v204l-13 -20t-34 -41t-57 -51.5t-81 -51t-107.5 -39t-135.5 -15.5q-110 0 -205 40.5t-165.5 111.5t-111 167.5t-40.5 208.5q0 111 40.5 207.5t111 167t165.5 111t205 40.5q75 0 135.5 -15t107.5 -38t81 -50t57 -50.5t34.5 -40.5t12.5 -19v197h101v-1024z
M580 82q90 0 168.5 33t136 90.5t90.5 136t33 170.5t-33 171t-90.5 137t-136 91t-168.5 33q-92 0 -170.5 -33t-135.5 -91.5t-89.5 -137.5t-32.5 -170t32.5 -169.5t89.5 -136.5t135.5 -91t170.5 -33zM782 1329l-393 -121v92l393 132v-103z" />
    <glyph glyph-name="Abreve" unicode="&#x102;" horiz-adv-x="1204" 
d="M1102 0h-101v204l-13 -20t-34 -41t-57 -51.5t-81 -51t-107.5 -39t-135.5 -15.5q-110 0 -205 40.5t-165.5 111.5t-111 167.5t-40.5 208.5q0 111 40.5 207.5t111 167t165.5 111t205 40.5q75 0 135.5 -15t107.5 -38t81 -50t57 -50.5t34.5 -40.5t12.5 -19v197h101v-1024z
M580 82q90 0 168.5 33t136 90.5t90.5 136t33 170.5t-33 171t-90.5 137t-136 91t-168.5 33q-92 0 -170.5 -33t-135.5 -91.5t-89.5 -137.5t-32.5 -170t32.5 -169.5t89.5 -136.5t135.5 -91t170.5 -33zM858 1309q-26 -35 -65 -62q-33 -23 -84 -42t-123 -19t-122.5 19t-84.5 42
q-40 27 -66 62v94q33 -35 75 -62q36 -23 86 -42t112 -19q63 0 113 19t85 42q41 27 74 62v-94z" />
    <glyph glyph-name="Acircumflex" unicode="&#xc2;" horiz-adv-x="1204" 
d="M1102 0h-101v204l-13 -20t-34 -41t-57 -51.5t-81 -51t-107.5 -39t-135.5 -15.5q-110 0 -205 40.5t-165.5 111.5t-111 167.5t-40.5 208.5q0 111 40.5 207.5t111 167t165.5 111t205 40.5q75 0 135.5 -15t107.5 -38t81 -50t57 -50.5t34.5 -40.5t12.5 -19v197h101v-1024z
M580 82q90 0 168.5 33t136 90.5t90.5 136t33 170.5t-33 171t-90.5 137t-136 91t-168.5 33q-92 0 -170.5 -33t-135.5 -91.5t-89.5 -137.5t-32.5 -170t32.5 -169.5t89.5 -136.5t135.5 -91t170.5 -33zM844 1157l-258 158l-258 -158v103l258 163l258 -163v-103z" />
    <glyph glyph-name="Adieresis" unicode="&#xc4;" horiz-adv-x="1204" 
d="M1102 0h-101v204l-13 -20t-34 -41t-57 -51.5t-81 -51t-107.5 -39t-135.5 -15.5q-110 0 -205 40.5t-165.5 111.5t-111 167.5t-40.5 208.5q0 111 40.5 207.5t111 167t165.5 111t205 40.5q58 0 107 -9.5t89.5 -24.5t73.5 -34t59 -39q60 -47 99 -106v197h101v-1024zM580 82
q90 0 168.5 33t136 90.5t90.5 136t33 170.5t-33 171t-90.5 137t-136 91t-168.5 33q-92 0 -170.5 -33t-135.5 -91.5t-89.5 -137.5t-32.5 -170t32.5 -169.5t89.5 -136.5t135.5 -91t170.5 -33zM489 1296h-98v107h98v-107zM780 1296h-98v107h98v-107z" />
    <glyph glyph-name="Agrave" unicode="&#xc0;" horiz-adv-x="1204" 
d="M1102 0h-101v204l-13 -20t-34 -41t-57 -51.5t-81 -51t-107.5 -39t-135.5 -15.5q-110 0 -205 40.5t-165.5 111.5t-111 167.5t-40.5 208.5q0 111 40.5 207.5t111 167t165.5 111t205 40.5q75 0 135.5 -15t107.5 -38t81 -50t57 -50.5t34.5 -40.5t12.5 -19v197h101v-1024z
M580 82q90 0 168.5 33t136 90.5t90.5 136t33 170.5t-33 171t-90.5 137t-136 91t-168.5 33q-92 0 -170.5 -33t-135.5 -91.5t-89.5 -137.5t-32.5 -170t32.5 -169.5t89.5 -136.5t135.5 -91t170.5 -33zM782 1208l-393 121v103l393 -132v-92z" />
    <glyph glyph-name="Amacron" unicode="&#x100;" horiz-adv-x="1204" 
d="M1102 0h-101v204l-13 -20t-34 -41t-57 -51.5t-81 -51t-107.5 -39t-135.5 -15.5q-110 0 -205 40.5t-165.5 111.5t-111 167.5t-40.5 208.5q0 111 40.5 207.5t111 167t165.5 111t205 40.5q75 0 135.5 -15t107.5 -38t81 -50t57 -50.5t34.5 -40.5t12.5 -19v197h101v-1024z
M580 82q90 0 168.5 33t136 90.5t90.5 136t33 170.5t-33 171t-90.5 137t-136 91t-168.5 33q-92 0 -170.5 -33t-135.5 -91.5t-89.5 -137.5t-32.5 -170t32.5 -169.5t89.5 -136.5t135.5 -91t170.5 -33zM844 1264h-516v90h516v-90z" />
    <glyph glyph-name="Aogonek" unicode="&#x104;" horiz-adv-x="1204" 
d="M1180 -322q-17 -11 -38 -19q-19 -8 -45 -13.5t-61 -5.5q-44 0 -81 11t-64 32t-42 51.5t-15 68.5q0 37 13 69.5t35 58t51.5 44t61.5 27.5l6 2v200l-13 -20t-34 -41t-57 -51.5t-81 -51t-107.5 -39t-135.5 -15.5q-110 0 -205 40.5t-165.5 111.5t-111 167.5t-40.5 208.5
q0 111 40.5 207.5t111 167t165.5 111t205 40.5q75 0 135.5 -15t107.5 -38t81 -50t57 -50.5t34.5 -40.5t12.5 -19v197h101v-1024q-81 -29 -121.5 -78t-40.5 -106q0 -42 30 -65t81 -23q29 0 52.5 5t40.5 11q20 7 36 16v-82zM580 82q90 0 168.5 33t136 90.5t90.5 136t33 170.5
t-33 171t-90.5 137t-136 91t-168.5 33q-92 0 -170.5 -33t-135.5 -91.5t-89.5 -137.5t-32.5 -170t32.5 -169.5t89.5 -136.5t135.5 -91t170.5 -33z" />
    <glyph glyph-name="Aring" unicode="&#xc5;" horiz-adv-x="1204" 
d="M1102 0h-101v204l-13 -20t-34 -41t-57 -51.5t-81 -51t-107.5 -39t-135.5 -15.5q-110 0 -205 40.5t-165.5 111.5t-111 167.5t-40.5 208.5q0 111 40.5 207.5t111 167t165.5 111t205 40.5q58 0 107 -9.5t89.5 -24.5t73.5 -34t59 -39q60 -47 99 -106v197h101v-1024zM580 82
q90 0 168.5 33t136 90.5t90.5 136t33 170.5t-33 171t-90.5 137t-136 91t-168.5 33q-92 0 -170.5 -33t-135.5 -91.5t-89.5 -137.5t-32.5 -170t32.5 -169.5t89.5 -136.5t135.5 -91t170.5 -33zM764 1321q0 -37 -13.5 -69t-37.5 -56t-56.5 -37.5t-70.5 -13.5q-39 0 -71.5 13.5
t-56 37.5t-37 56t-13.5 69t13.5 68.5t37 55t56 37t71.5 13.5q38 0 70.5 -13.5t56.5 -37t37.5 -55t13.5 -68.5zM586 1219q45 0 72.5 29.5t27.5 72.5t-27.5 71.5t-72.5 28.5t-73 -28.5t-28 -71.5t28 -72.5t73 -29.5z" />
    <glyph glyph-name="Atilde" unicode="&#xc3;" horiz-adv-x="1204" 
d="M1102 0h-101v204l-13 -20t-34 -41t-57 -51.5t-81 -51t-107.5 -39t-135.5 -15.5q-110 0 -205 40.5t-165.5 111.5t-111 167.5t-40.5 208.5q0 111 40.5 207.5t111 167t165.5 111t205 40.5q75 0 135.5 -15t107.5 -38t81 -50t57 -50.5t34.5 -40.5t12.5 -19v197h101v-1024z
M580 82q90 0 168.5 33t136 90.5t90.5 136t33 170.5t-33 171t-90.5 137t-136 91t-168.5 33q-92 0 -170.5 -33t-135.5 -91.5t-89.5 -137.5t-32.5 -170t32.5 -169.5t89.5 -136.5t135.5 -91t170.5 -33zM872 1276q-17 -26 -41 -45q-20 -17 -50 -31t-68 -14q-42 0 -75.5 12
t-64.5 27t-61.5 27t-65.5 12q-34 0 -61 -12.5t-46 -26.5q-23 -18 -40 -39v86q17 25 41 44q20 17 50 30.5t69 13.5q41 0 74.5 -12t64.5 -26t61.5 -26t65.5 -12q34 0 60.5 12t46.5 27q22 17 40 39v-86z" />
    <glyph glyph-name="AE" unicode="&#xc6;" horiz-adv-x="2093" 
d="M2005 242q-35 -59 -81 -106t-104.5 -80.5t-130 -51.5t-157.5 -18q-70 0 -133 15t-118 42.5t-100 67t-79 88.5v-199h-101v204l-13 -20t-34 -41t-57 -51.5t-81 -51t-107.5 -39t-135.5 -15.5q-110 0 -205 40.5t-165.5 111.5t-111 167.5t-40.5 208.5q0 111 40.5 207.5
t111 167t165.5 111t205 40.5q75 0 135.5 -15t107.5 -38t81 -50t57 -50.5t34.5 -40.5t12.5 -19v197h101v-199q68 99 176.5 157t245.5 58q114 0 209.5 -40.5t164 -109t106.5 -158t38 -187.5q0 -13 -0.5 -24.5t-1.5 -21.5l-2 -22h-932q5 -84 38 -156t88.5 -124.5t131.5 -82.5
t168 -30q76 0 136 14.5t107.5 42t84.5 66.5t67 88zM580 82q90 0 168.5 33t136 90.5t90.5 136t33 170.5t-33 171t-90.5 137t-136 91t-168.5 33q-92 0 -170.5 -33t-135.5 -91.5t-89.5 -137.5t-32.5 -170t32.5 -169.5t89.5 -136.5t135.5 -91t170.5 -33zM1937 569
q-6 78 -39 146.5t-87.5 119.5t-127.5 80t-159 29q-85 0 -157 -28.5t-126.5 -78.5t-89 -118.5t-43.5 -149.5h829z" />
    <glyph glyph-name="B" unicode="B" horiz-adv-x="1204" 
d="M203 0h-101v1403h101v-582q1 3 12.5 20t34.5 41.5t57 52t81 51t107.5 39t135.5 15.5q110 0 205 -40.5t165.5 -111t111 -167t40.5 -207.5q0 -112 -40.5 -208.5t-111 -167.5t-165.5 -111.5t-205 -40.5q-75 0 -135.5 15.5t-107.5 39t-81 51t-57 51.5t-34 41.5t-13 19.5v-204
zM625 82q92 0 170.5 33t135.5 91t89.5 136.5t32.5 169.5t-32.5 170t-89.5 137.5t-135.5 91.5t-170.5 33q-91 0 -169 -33t-135.5 -91t-90.5 -137t-33 -171t33 -170.5t90.5 -136t135.5 -90.5t169 -33z" />
    <glyph glyph-name="C" unicode="C" horiz-adv-x="1079" 
d="M1038 242q-35 -59 -81.5 -106t-104.5 -80.5t-129 -51.5t-156 -18q-113 0 -207.5 41t-163 112t-107 168t-38.5 209q0 111 38.5 206.5t107 166t163 111t207.5 40.5q88 0 160 -18.5t129.5 -52t102 -81.5t79.5 -106l-77 -53q-30 49 -67.5 88.5t-85 67t-107 42.5t-134.5 15
q-93 0 -169.5 -33t-131 -90.5t-84.5 -135.5t-30 -169t30.5 -169.5t85.5 -136.5t131.5 -91t169.5 -33q75 0 134 14.5t106.5 42t84.5 66.5t67 88z" />
    <glyph glyph-name="Cacute" unicode="&#x106;" horiz-adv-x="1079" 
d="M766 1329l-393 -121v92l393 132v-103zM1038 242q-35 -59 -81.5 -106t-104.5 -80.5t-129 -51.5t-156 -18q-113 0 -207.5 41t-163 112t-107 168t-38.5 209q0 111 38.5 206.5t107 166t163 111t207.5 40.5q88 0 160 -18.5t129.5 -52t102 -81.5t79.5 -106l-77 -53
q-30 49 -67.5 88.5t-85 67t-107 42.5t-134.5 15q-93 0 -169.5 -33t-131 -90.5t-84.5 -135.5t-30 -169t30.5 -169.5t85.5 -136.5t131.5 -91t169.5 -33q75 0 134 14.5t106.5 42t84.5 66.5t67 88z" />
    <glyph glyph-name="Ccaron" unicode="&#x10c;" horiz-adv-x="1079" 
d="M827 1309l-258 -164l-258 164v102l258 -158l258 158v-102zM1038 242q-35 -59 -81.5 -106t-104.5 -80.5t-129 -51.5t-156 -18q-113 0 -207.5 41t-163 112t-107 168t-38.5 209q0 111 38.5 206.5t107 166t163 111t207.5 40.5q88 0 160 -18.5t129.5 -52t102 -81.5t79.5 -106
l-77 -53q-30 49 -67.5 88.5t-85 67t-107 42.5t-134.5 15q-93 0 -169.5 -33t-131 -90.5t-84.5 -135.5t-30 -169t30.5 -169.5t85.5 -136.5t131.5 -91t169.5 -33q75 0 134 14.5t106.5 42t84.5 66.5t67 88z" />
    <glyph glyph-name="Ccedilla" unicode="&#xc7;" horiz-adv-x="1079" 
d="M1038 242q-66 -110 -171.5 -178t-258.5 -76l-47 -86q37 0 68.5 -12t55 -33t37 -51t13.5 -66q0 -35 -13.5 -66t-37 -53.5t-55 -35.5t-68.5 -13q-38 0 -70 10.5t-56 31t-39 50t-19 68.5h92q6 -41 30.5 -58.5t61.5 -17.5q38 0 63 23.5t25 60.5q0 34 -25.5 57t-68.5 23h-135
l92 168q-102 10 -187 54t-145.5 114.5t-94.5 162.5t-34 197q0 111 38.5 206.5t107 166t163 111t207.5 40.5q88 0 160 -18.5t129.5 -52t102 -81.5t79.5 -106l-77 -53q-30 49 -67.5 88.5t-85 67t-107 42.5t-134.5 15q-93 0 -169.5 -33t-131 -90.5t-84.5 -135.5t-30 -169
t30.5 -169.5t85.5 -136.5t131.5 -91t169.5 -33q75 0 134 14.5t106.5 42t84.5 66.5t67 88z" />
    <glyph glyph-name="Ccircumflex" unicode="&#x108;" horiz-adv-x="1079" 
d="M827 1157l-258 158l-258 -158v103l258 163l258 -163v-103zM1038 242q-35 -59 -81.5 -106t-104.5 -80.5t-129 -51.5t-156 -18q-113 0 -207.5 41t-163 112t-107 168t-38.5 209q0 111 38.5 206.5t107 166t163 111t207.5 40.5q88 0 160 -18.5t129.5 -52t102 -81.5t79.5 -106
l-77 -53q-30 49 -67.5 88.5t-85 67t-107 42.5t-134.5 15q-93 0 -169.5 -33t-131 -90.5t-84.5 -135.5t-30 -169t30.5 -169.5t85.5 -136.5t131.5 -91t169.5 -33q75 0 134 14.5t106.5 42t84.5 66.5t67 88z" />
    <glyph glyph-name="Cdotaccent" unicode="&#x10a;" horiz-adv-x="1079" 
d="M618 1296h-98v107h98v-107zM1038 242q-35 -59 -81.5 -106t-104.5 -80.5t-129 -51.5t-156 -18q-113 0 -207.5 41t-163 112t-107 168t-38.5 209q0 111 38.5 206.5t107 166t163 111t207.5 40.5q88 0 160 -18.5t129.5 -52t102 -81.5t79.5 -106l-77 -53q-30 49 -67.5 88.5
t-85 67t-107 42.5t-134.5 15q-93 0 -169.5 -33t-131 -90.5t-84.5 -135.5t-30 -169t30.5 -169.5t85.5 -136.5t131.5 -91t169.5 -33q75 0 134 14.5t106.5 42t84.5 66.5t67 88z" />
    <glyph glyph-name="D" unicode="D" horiz-adv-x="1204" 
d="M1102 0h-101v204l-13 -20t-34 -41t-57 -51.5t-81 -51t-107.5 -39t-135.5 -15.5q-110 0 -205 40.5t-165.5 111.5t-111 167.5t-40.5 208.5q0 111 40.5 207.5t111 167t165.5 111t205 40.5q58 0 107 -9.5t89.5 -25t73.5 -35t59 -40.5q60 -48 99 -109v582h101v-1403zM580 82
q90 0 168.5 33t136 90.5t90.5 136t33 170.5t-33 171t-90.5 137t-136 91t-168.5 33q-92 0 -170.5 -33t-135.5 -91.5t-89.5 -137.5t-32.5 -170t32.5 -169.5t89.5 -136.5t135.5 -91t170.5 -33z" />
    <glyph glyph-name="Eth" unicode="&#xd0;" horiz-adv-x="1147" 
d="M1012 797q40 -65 62 -137t22 -152q0 -110 -40.5 -205.5t-111 -166.5t-166 -111.5t-205.5 -40.5t-205 40.5t-165.5 111.5t-111 166.5t-40.5 205.5t40.5 205.5t111 166.5t165.5 111.5t205 40.5q48 0 87.5 -8t67.5 -17q33 -11 58 -24l-116 191l-217 -50v88l170 39l-95 152
h111l80 -129l244 55v-88l-197 -45zM573 78q89 0 166.5 33t134.5 91t90 136.5t33 169.5t-33.5 169.5t-91 136.5t-134.5 91t-165 33q-89 0 -166 -33t-134 -91t-90 -136.5t-33 -169.5t33 -169.5t90 -136.5t134 -91t166 -33z" />
    <glyph glyph-name="Dcaron" unicode="&#x10e;" horiz-adv-x="1360" 
d="M1102 0h-101v204l-13 -20t-34 -41t-57 -51.5t-81 -51t-107.5 -39t-135.5 -15.5q-110 0 -205 40.5t-165.5 111.5t-111 167.5t-40.5 208.5q0 111 40.5 207.5t111 167t165.5 111t205 40.5q58 0 107 -9.5t89.5 -25t73.5 -35t59 -40.5q60 -48 99 -109v582h101v-1403zM580 82
q90 0 168.5 33t136 90.5t90.5 136t33 170.5t-33 171t-90.5 137t-136 91t-168.5 33q-92 0 -170.5 -33t-135.5 -91.5t-89.5 -137.5t-32.5 -170t32.5 -169.5t89.5 -136.5t135.5 -91t170.5 -33zM1290 1137h-55l35 147h-43v119h102v-111z" />
    <glyph glyph-name="Dcroat" unicode="&#x110;" horiz-adv-x="1210" 
d="M1102 0h-101v204l-13 -20t-34 -41t-57 -51.5t-81 -51t-107.5 -39t-135.5 -15.5q-110 0 -205 40.5t-165.5 111.5t-111 167.5t-40.5 208.5q0 111 40.5 207.5t111 167t165.5 111t205 40.5q58 0 107 -9.5t89.5 -25t73.5 -35t59 -40.5q60 -48 99 -109v314h-348v94h348v174h101
v-174h108v-94h-108v-1135zM580 82q90 0 168.5 33t136 90.5t90.5 136t33 170.5t-33 171t-90.5 137t-136 91t-168.5 33q-92 0 -170.5 -33t-135.5 -91.5t-89.5 -137.5t-32.5 -170t32.5 -169.5t89.5 -136.5t135.5 -91t170.5 -33z" />
    <glyph glyph-name="E" unicode="E" horiz-adv-x="1145" 
d="M1057 242q-35 -59 -81 -106t-104.5 -80.5t-130 -51.5t-157.5 -18q-116 0 -214 40.5t-169 111.5t-110.5 167.5t-39.5 208.5q0 111 40 207.5t110 167t166 111t208 40.5q115 0 210.5 -40.5t164 -109t106.5 -158t38 -187.5q0 -13 -0.5 -24.5t-1.5 -21.5l-2 -22h-934
q5 -84 38.5 -156t89.5 -124.5t132 -82.5t168 -30q76 0 136 14.5t107.5 42t84.5 66.5t67 88zM989 569q-6 78 -39 146.5t-87.5 119.5t-128 80t-159.5 29q-84 0 -156.5 -28.5t-127.5 -78.5t-89.5 -118.5t-43.5 -149.5h831z" />
    <glyph glyph-name="Eacute" unicode="&#xc9;" horiz-adv-x="1145" 
d="M770 1329l-393 -121v92l393 132v-103zM1057 242q-35 -59 -81 -106t-104.5 -80.5t-130 -51.5t-157.5 -18q-116 0 -214 40.5t-169 111.5t-110.5 167.5t-39.5 208.5q0 111 40 207.5t110 167t166 111t208 40.5q115 0 210.5 -40.5t164 -109t106.5 -158t38 -187.5
q0 -13 -0.5 -24.5t-1.5 -21.5l-2 -22h-934q5 -84 38.5 -156t89.5 -124.5t132 -82.5t168 -30q76 0 136 14.5t107.5 42t84.5 66.5t67 88zM989 569q-6 78 -39 146.5t-87.5 119.5t-128 80t-159.5 29q-84 0 -156.5 -28.5t-127.5 -78.5t-89.5 -118.5t-43.5 -149.5h831z" />
    <glyph glyph-name="Ebreve" unicode="&#x114;" horiz-adv-x="1145" 
d="M846 1309q-26 -35 -65 -62q-33 -23 -84.5 -42t-123.5 -19q-71 0 -122.5 19t-84.5 42q-40 27 -65 62v94q33 -35 75 -62q36 -23 85.5 -42t111.5 -19q63 0 113 19t86 42q41 27 74 62v-94zM1057 242q-35 -59 -81 -106t-104.5 -80.5t-130 -51.5t-157.5 -18q-116 0 -214 40.5
t-169 111.5t-110.5 167.5t-39.5 208.5q0 111 40 207.5t110 167t166 111t208 40.5q115 0 210.5 -40.5t164 -109t106.5 -158t38 -187.5q0 -13 -0.5 -24.5t-1.5 -21.5l-2 -22h-934q5 -84 38.5 -156t89.5 -124.5t132 -82.5t168 -30q76 0 136 14.5t107.5 42t84.5 66.5t67 88z
M989 569q-6 78 -39 146.5t-87.5 119.5t-128 80t-159.5 29q-84 0 -156.5 -28.5t-127.5 -78.5t-89.5 -118.5t-43.5 -149.5h831z" />
    <glyph glyph-name="Ecaron" unicode="&#x11a;" horiz-adv-x="1145" 
d="M831 1309l-258 -164l-258 164v102l258 -158l258 158v-102zM1057 242q-35 -59 -81 -106t-104.5 -80.5t-130 -51.5t-157.5 -18q-116 0 -214 40.5t-169 111.5t-110.5 167.5t-39.5 208.5q0 111 40 207.5t110 167t166 111t208 40.5q115 0 210.5 -40.5t164 -109t106.5 -158
t38 -187.5q0 -13 -0.5 -24.5t-1.5 -21.5l-2 -22h-934q5 -84 38.5 -156t89.5 -124.5t132 -82.5t168 -30q76 0 136 14.5t107.5 42t84.5 66.5t67 88zM989 569q-6 78 -39 146.5t-87.5 119.5t-128 80t-159.5 29q-84 0 -156.5 -28.5t-127.5 -78.5t-89.5 -118.5t-43.5 -149.5h831z
" />
    <glyph glyph-name="Ecircumflex" unicode="&#xca;" horiz-adv-x="1145" 
d="M831 1157l-258 158l-258 -158v103l258 163l258 -163v-103zM1057 242q-35 -59 -81 -106t-104.5 -80.5t-130 -51.5t-157.5 -18q-116 0 -214 40.5t-169 111.5t-110.5 167.5t-39.5 208.5q0 111 40 207.5t110 167t166 111t208 40.5q115 0 210.5 -40.5t164 -109t106.5 -158
t38 -187.5q0 -13 -0.5 -24.5t-1.5 -21.5l-2 -22h-934q5 -84 38.5 -156t89.5 -124.5t132 -82.5t168 -30q76 0 136 14.5t107.5 42t84.5 66.5t67 88zM989 569q-6 78 -39 146.5t-87.5 119.5t-128 80t-159.5 29q-84 0 -156.5 -28.5t-127.5 -78.5t-89.5 -118.5t-43.5 -149.5h831z
" />
    <glyph glyph-name="Edieresis" unicode="&#xcb;" horiz-adv-x="1145" 
d="M477 1296h-98v107h98v-107zM768 1296h-98v107h98v-107zM1057 242q-35 -59 -81 -106t-104.5 -80.5t-130 -51.5t-157.5 -18q-116 0 -214 40.5t-169 111.5t-110.5 167.5t-39.5 208.5q0 111 40 207.5t110 167t166 111t208 40.5q115 0 210.5 -40.5t164 -109t106.5 -158
t38 -187.5q0 -13 -0.5 -24.5t-1.5 -21.5l-2 -22h-934q5 -84 38.5 -156t89.5 -124.5t132 -82.5t168 -30q76 0 136 14.5t107.5 42t84.5 66.5t67 88zM989 569q-6 78 -39 146.5t-87.5 119.5t-128 80t-159.5 29q-84 0 -156.5 -28.5t-127.5 -78.5t-89.5 -118.5t-43.5 -149.5h831z
" />
    <glyph glyph-name="Edotaccent" unicode="&#x116;" horiz-adv-x="1145" 
d="M623 1296h-99v107h99v-107zM1057 242q-35 -59 -81 -106t-104.5 -80.5t-130 -51.5t-157.5 -18q-116 0 -214 40.5t-169 111.5t-110.5 167.5t-39.5 208.5q0 111 40 207.5t110 167t166 111t208 40.5q115 0 210.5 -40.5t164 -109t106.5 -158t38 -187.5q0 -13 -0.5 -24.5
t-1.5 -21.5l-2 -22h-934q5 -84 38.5 -156t89.5 -124.5t132 -82.5t168 -30q76 0 136 14.5t107.5 42t84.5 66.5t67 88zM989 569q-6 78 -39 146.5t-87.5 119.5t-128 80t-159.5 29q-84 0 -156.5 -28.5t-127.5 -78.5t-89.5 -118.5t-43.5 -149.5h831z" />
    <glyph glyph-name="Egrave" unicode="&#xc8;" horiz-adv-x="1145" 
d="M770 1208l-393 121v103l393 -132v-92zM1057 242q-35 -59 -81 -106t-104.5 -80.5t-130 -51.5t-157.5 -18q-116 0 -214 40.5t-169 111.5t-110.5 167.5t-39.5 208.5q0 111 40 207.5t110 167t166 111t208 40.5q115 0 210.5 -40.5t164 -109t106.5 -158t38 -187.5
q0 -13 -0.5 -24.5t-1.5 -21.5l-2 -22h-934q5 -84 38.5 -156t89.5 -124.5t132 -82.5t168 -30q76 0 136 14.5t107.5 42t84.5 66.5t67 88zM989 569q-6 78 -39 146.5t-87.5 119.5t-128 80t-159.5 29q-84 0 -156.5 -28.5t-127.5 -78.5t-89.5 -118.5t-43.5 -149.5h831z" />
    <glyph glyph-name="Emacron" unicode="&#x112;" horiz-adv-x="1145" 
d="M831 1264h-516v90h516v-90zM1057 242q-35 -59 -81 -106t-104.5 -80.5t-130 -51.5t-157.5 -18q-116 0 -214 40.5t-169 111.5t-110.5 167.5t-39.5 208.5q0 111 40 207.5t110 167t166 111t208 40.5q115 0 210.5 -40.5t164 -109t106.5 -158t38 -187.5q0 -13 -0.5 -24.5
t-1.5 -21.5l-2 -22h-934q5 -84 38.5 -156t89.5 -124.5t132 -82.5t168 -30q76 0 136 14.5t107.5 42t84.5 66.5t67 88zM989 569q-6 78 -39 146.5t-87.5 119.5t-128 80t-159.5 29q-84 0 -156.5 -28.5t-127.5 -78.5t-89.5 -118.5t-43.5 -149.5h831z" />
    <glyph glyph-name="Eogonek" unicode="&#x118;" horiz-adv-x="1145" 
d="M954 -264q-16 -11 -37 -20q-18 -8 -44.5 -13.5t-61.5 -5.5q-45 0 -82 11t-64 32t-42 51.5t-15 69.5q0 37 14 70t35 59q-17 -2 -35 -3t-38 -1q-116 0 -214 40.5t-169 111.5t-110.5 167.5t-39.5 208.5q0 111 40 207.5t110 167t166 111t208 40.5q115 0 210.5 -40.5t164 -109
t106.5 -158t38 -187.5q0 -13 -0.5 -24.5t-1.5 -21.5l-2 -22h-934q5 -84 38.5 -156t89.5 -124.5t132 -82.5t168 -30q76 0 136 14.5t107.5 42t84.5 66.5t67 88l78 -53q-34 -57 -78.5 -104t-101.5 -81l-7 -2l-27.5 -15t-29.5 -13q-49 -29 -73.5 -69t-24.5 -85q0 -42 29.5 -65
t80.5 -23q29 0 53 5t41 11q19 7 35 17v-82zM989 569q-6 78 -39 146.5t-87.5 119.5t-128 80t-159.5 29q-84 0 -156.5 -28.5t-127.5 -78.5t-89.5 -118.5t-43.5 -149.5h831z" />
    <glyph glyph-name="F" unicode="F" horiz-adv-x="618" 
d="M303 0h-98v934h-154v90h154v68q0 87 26 146.5t68 96t94 52.5t105 16h67v-96h-65q-35 0 -70 -9.5t-63 -33.5t-46 -66t-18 -106v-68h264v-90h-264v-934z" />
    <glyph glyph-name="G" unicode="G" horiz-adv-x="1192" 
d="M1090 80q0 -96 -34 -180t-98.5 -146.5t-159 -98.5t-214.5 -36q-86 0 -157.5 18t-130 51.5t-104.5 80.5t-81 106l77 53q30 -49 67 -88t85 -66.5t108 -42t136 -14.5q94 0 169 23t127.5 68.5t80.5 113.5t28 158v144l-13 -20t-33.5 -41t-56 -51.5t-80 -51t-106 -39
t-133.5 -15.5q-108 0 -202 39.5t-164 109.5t-110 164.5t-40 204.5q0 109 40 203.5t110 164t164 109t202 39.5q74 0 133.5 -15.5t106 -38.5t80 -50.5t56 -51.5t33.5 -41l13 -20v201h101v-944zM995 522q0 92 -32.5 169.5t-89.5 133.5t-134 87.5t-166 31.5q-90 0 -167.5 -32.5
t-133.5 -89.5t-88 -134t-32 -166q0 -88 32 -164.5t88 -133.5t133.5 -89.5t167.5 -32.5q89 0 166 31.5t134 87.5t89.5 133t32.5 168z" />
    <glyph glyph-name="Gbreve" unicode="&#x11e;" horiz-adv-x="1192" 
d="M1090 80q0 -96 -34 -180t-98.5 -146.5t-159 -98.5t-214.5 -36q-86 0 -157.5 18t-130 51.5t-104.5 80.5t-81 106l77 53q30 -49 67 -88t85 -66.5t108 -42t136 -14.5q94 0 169 23t127.5 68.5t80.5 113.5t28 158v144l-13 -20t-33.5 -41t-56 -51.5t-80 -51t-106 -39
t-133.5 -15.5q-108 0 -202 39.5t-164 109.5t-110 164.5t-40 204.5q0 109 40 203.5t110 164t164 109t202 39.5q74 0 133.5 -15.5t106 -38.5t80 -50.5t56 -51.5t33.5 -41l13 -20v201h101v-944zM995 522q0 92 -32.5 169.5t-89.5 133.5t-134 87.5t-166 31.5q-90 0 -167.5 -32.5
t-133.5 -89.5t-88 -134t-32 -166q0 -88 32 -164.5t88 -133.5t133.5 -89.5t167.5 -32.5q89 0 166 31.5t134 87.5t89.5 133t32.5 168zM874 1309q-25 -35 -64 -62q-33 -23 -84.5 -42t-123.5 -19q-71 0 -122.5 19t-84.5 42q-40 27 -65 62v94q32 -35 74 -62q35 -23 85.5 -42
t112.5 -19q63 0 113 19t85 42q41 27 74 62v-94z" />
    <glyph glyph-name="Gcircumflex" unicode="&#x11c;" horiz-adv-x="1192" 
d="M1090 80q0 -96 -34 -180t-98.5 -146.5t-159 -98.5t-214.5 -36q-86 0 -157.5 18t-130 51.5t-104.5 80.5t-81 106l77 53q30 -49 67 -88t85 -66.5t108 -42t136 -14.5q94 0 169 23t127.5 68.5t80.5 113.5t28 158v144l-13 -20t-33.5 -41t-56 -51.5t-80 -51t-106 -39
t-133.5 -15.5q-108 0 -202 39.5t-164 109.5t-110 164.5t-40 204.5q0 109 40 203.5t110 164t164 109t202 39.5q57 0 105 -9.5t88.5 -25t73 -35t58.5 -39.5q60 -48 97 -108v201h101v-944zM995 522q0 92 -32.5 169.5t-89.5 133.5t-134 87.5t-166 31.5q-90 0 -167.5 -32.5
t-133.5 -89.5t-88 -134t-32 -166q0 -88 32 -164.5t88 -133.5t133.5 -89.5t167.5 -32.5q89 0 166 31.5t134 87.5t89.5 133t32.5 168zM860 1157l-258 158l-258 -158v103l258 163l258 -163v-103z" />
    <glyph glyph-name="Gcommaaccent" unicode="&#x122;" horiz-adv-x="1192" 
d="M1090 80q0 -96 -34 -180t-98.5 -146.5t-159 -98.5t-214.5 -36q-86 0 -157.5 18t-130 51.5t-104.5 80.5t-81 106l77 53q30 -49 67 -88t85 -66.5t108 -42t136 -14.5q94 0 169 23t127.5 68.5t80.5 113.5t28 158v144l-13 -20t-33.5 -41t-56 -51.5t-80 -51t-106 -39
t-133.5 -15.5q-108 0 -202 39.5t-164 109.5t-110 164.5t-40 204.5q0 109 40 203.5t110 164t164 109t202 39.5q74 0 133.5 -15.5t106 -38.5t80 -50.5t56 -51.5t33.5 -41l13 -20v201h101v-944zM995 522q0 92 -32.5 169.5t-89.5 133.5t-134 87.5t-166 31.5q-90 0 -167.5 -32.5
t-133.5 -89.5t-88 -134t-32 -166q0 -88 32 -164.5t88 -133.5t133.5 -89.5t167.5 -32.5q89 0 166 31.5t134 87.5t89.5 133t32.5 168zM637 1235h-102v111l38 155h56l-35 -147h43v-119z" />
    <glyph glyph-name="Gdotaccent" unicode="&#x120;" horiz-adv-x="1192" 
d="M1090 80q0 -96 -34 -180t-98.5 -146.5t-159 -98.5t-214.5 -36q-86 0 -157.5 18t-130 51.5t-104.5 80.5t-81 106l77 53q30 -49 67 -88t85 -66.5t108 -42t136 -14.5q94 0 169 23t127.5 68.5t80.5 113.5t28 158v144l-13 -20t-33.5 -41t-56 -51.5t-80 -51t-106 -39
t-133.5 -15.5q-108 0 -202 39.5t-164 109.5t-110 164.5t-40 204.5q0 109 40 203.5t110 164t164 109t202 39.5q74 0 133.5 -15.5t106 -38.5t80 -50.5t56 -51.5t33.5 -41l13 -20v201h101v-944zM995 522q0 92 -32.5 169.5t-89.5 133.5t-134 87.5t-166 31.5q-90 0 -167.5 -32.5
t-133.5 -89.5t-88 -134t-32 -166q0 -88 32 -164.5t88 -133.5t133.5 -89.5t167.5 -32.5q89 0 166 31.5t134 87.5t89.5 133t32.5 168zM651 1296h-98v107h98v-107z" />
    <glyph glyph-name="H" unicode="H" 
d="M942 0h-100v614q0 78 -21 139t-60.5 103.5t-96.5 65t-129 22.5q-75 0 -136.5 -24.5t-105 -71t-67 -112.5t-23.5 -150v-586h-101v1403h101v-535q1 2 9.5 15.5t26 32.5t44 41t64.5 40.5t87 30.5t111 12q90 0 163 -29t125 -83t80.5 -130.5t28.5 -170.5v-627z" />
    <glyph glyph-name="Hbar" unicode="&#x126;" horiz-adv-x="1004" 
d="M942 0h-100v614q0 78 -21 139t-60.5 103.5t-96.5 65t-129 22.5q-75 0 -136.5 -24.5t-105 -71t-67 -112.5t-23.5 -150v-586h-101v1135h-102v94h102v174h101v-174h354v-94h-354v-267q1 2 9.5 15.5t26 32.5t44 41t64.5 40.5t87 30.5t111 12q90 0 163 -29t125 -83
t80.5 -130.5t28.5 -170.5v-627z" />
    <glyph glyph-name="Hcircumflex" unicode="&#x124;" 
d="M942 0h-100v614q0 78 -21 139t-60.5 103.5t-96.5 65t-129 22.5q-75 0 -136.5 -24.5t-105 -71t-67 -112.5t-23.5 -150v-586h-101v1403h101v-535q1 2 9.5 15.5t26 32.5t44 41t64.5 40.5t87 30.5t111 12q90 0 163 -29t125 -83t80.5 -130.5t28.5 -170.5v-627zM885 1157
l-258 158l-258 -158v103l258 163l258 -163v-103z" />
    <glyph glyph-name="I" unicode="I" horiz-adv-x="305" 
d="M203 1294h-101v109h101v-109zM203 0h-101v1024h101v-1024z" />
    <glyph glyph-name="IJ" unicode="&#x132;" horiz-adv-x="610" 
d="M203 1294h-101v109h101v-109zM508 1294h-100v109h100v-109zM203 0h-101v1024h101v-1024zM508 -43q0 -87 -26 -146.5t-67 -96t-91.5 -52.5t-100.5 -16v96q33 0 66 9.5t59.5 33.5t43 65.5t16.5 106.5v1067h100v-1067z" />
    <glyph glyph-name="Iacute" unicode="&#xcd;" horiz-adv-x="305" 
d="M350 1329l-393 -121v92l393 132v-103zM203 0h-101v1024h101v-1024z" />
    <glyph glyph-name="Ibreve" unicode="&#x12c;" horiz-adv-x="305" 
d="M426 1309q-26 -35 -65 -62q-33 -23 -84 -42t-123 -19t-122.5 19t-84.5 42q-40 27 -66 62v94q33 -35 75 -62q36 -23 86 -42t112 -19t112.5 19t85.5 42q41 27 74 62v-94zM203 0h-101v1024h101v-1024z" />
    <glyph glyph-name="Icircumflex" unicode="&#xce;" horiz-adv-x="305" 
d="M412 1157l-258 158l-258 -158v103l258 163l258 -163v-103zM203 0h-101v1024h101v-1024z" />
    <glyph glyph-name="Idieresis" unicode="&#xcf;" horiz-adv-x="305" 
d="M57 1296h-98v107h98v-107zM348 1296h-98v107h98v-107zM203 0h-101v1024h101v-1024z" />
    <glyph glyph-name="Idotaccent" unicode="&#x130;" horiz-adv-x="305" 
d="M203 1296h-99v107h99v-107zM203 0h-101v1024h101v-1024z" />
    <glyph glyph-name="Igrave" unicode="&#xcc;" horiz-adv-x="305" 
d="M350 1208l-393 121v103l393 -132v-92zM203 0h-101v1024h101v-1024z" />
    <glyph glyph-name="Imacron" unicode="&#x12a;" horiz-adv-x="305" 
d="M412 1264h-516v90h516v-90zM203 0h-101v1024h101v-1024z" />
    <glyph glyph-name="Iogonek" unicode="&#x12e;" horiz-adv-x="305" 
d="M203 1294h-101v109h101v-109zM260 -322q-16 -11 -37 -19q-18 -8 -44.5 -13.5t-61.5 -5.5q-45 0 -82 11t-64 32t-42 51.5t-15 68.5q0 37 13 69.5t35.5 58t52 44t61.5 27.5l26 8v1014h101v-1024h-21q-80 -29 -121 -78t-41 -106q0 -42 30 -65t81 -23q29 0 53 5t41 11
q19 7 35 16v-82z" />
    <glyph glyph-name="Itilde" unicode="&#x128;" horiz-adv-x="305" 
d="M440 1276q-17 -26 -41 -45q-20 -17 -50 -31t-68 -14q-42 0 -76 12t-65 27t-61.5 27t-64.5 12t-61 -12.5t-46 -26.5q-23 -18 -40 -39v86q17 25 41 44q20 17 50 30.5t69 13.5q41 0 74.5 -12t64.5 -26t61.5 -26t65.5 -12q34 0 60.5 12t46.5 27q22 17 40 39v-86zM203 0h-101
v1024h101v-1024z" />
    <glyph glyph-name="J" unicode="J" horiz-adv-x="305" 
d="M203 1294h-101v109h101v-109zM203 -43q0 -87 -26 -146.5t-67 -96t-91.5 -52.5t-100.5 -16v96q33 0 66 9.5t59 33.5t42.5 65.5t16.5 106.5v1067h101v-1067z" />
    <glyph glyph-name="Jcircumflex" unicode="&#x134;" horiz-adv-x="305" 
d="M391 1157l-258 158l-258 -158v103l258 163l258 -163v-103zM203 -43q0 -87 -26 -146.5t-67 -96t-91.5 -52.5t-100.5 -16v96q33 0 66 9.5t59 33.5t42.5 65.5t16.5 106.5v1067h101v-1067z" />
    <glyph glyph-name="K" unicode="K" horiz-adv-x="918" 
d="M866 0h-116l-340 539l-207 -222v-317h-101v1403h101v-954l522 575h129l-371 -408z" />
    <glyph glyph-name="Kcommaaccent" unicode="&#x136;" horiz-adv-x="918" 
d="M866 0h-116l-340 539l-207 -222v-317h-101v1403h101v-954l522 575h129l-371 -408zM481 -395h-55l35 147h-43v119h102v-111z" />
    <glyph glyph-name="L" unicode="L" horiz-adv-x="305" 
d="M203 0h-101v1403h101v-1403z" />
    <glyph glyph-name="Lacute" unicode="&#x139;" horiz-adv-x="305" 
d="M350 1645l-393 -121v92l393 131v-102zM203 0h-101v1403h101v-1403z" />
    <glyph glyph-name="Lcaron" unicode="&#x13d;" horiz-adv-x="442" 
d="M203 0h-101v1403h101v-1403zM373 1137h-56l35 147h-43v119h103v-111z" />
    <glyph glyph-name="Lcommaaccent" unicode="&#x13b;" horiz-adv-x="305" 
d="M203 0h-101v1403h101v-1403zM168 -395h-55l34 147h-43v119h103v-111z" />
    <glyph glyph-name="Ldot" unicode="&#x13f;" horiz-adv-x="633" 
d="M203 0h-101v1403h101v-1403zM416 440h-99v119h99v-119z" />
    <glyph glyph-name="Lslash" unicode="&#x141;" horiz-adv-x="305" 
d="M203 0h-101v729l-75 -53v102l75 53v572h101v-502l71 51v-102l-71 -51v-799z" />
    <glyph glyph-name="M" unicode="M" horiz-adv-x="1683" 
d="M1591 0h-100v635q0 73 -19.5 130t-56 97t-89 61t-118.5 21q-69 0 -126 -22t-98.5 -63t-64 -100.5t-22.5 -135.5v-623h-100v635q0 73 -19.5 130t-56 97t-89 61t-118.5 21q-71 0 -128 -23t-98 -66t-63 -105.5t-22 -141.5v-608h-101v1024h101v-150q1 2 9 15t24 31.5
t41.5 39.5t60.5 39t81.5 29.5t104.5 11.5q119 0 206 -54.5t130 -151.5q12 23 37 58t68 68t105.5 56.5t148.5 23.5q84 0 153 -28t117.5 -80t75 -125t26.5 -164v-643z" />
    <glyph glyph-name="N" unicode="N" 
d="M942 0h-100v614q0 78 -21 139t-60.5 103.5t-96.5 65t-129 22.5q-75 0 -136.5 -24.5t-105 -71t-67 -112.5t-23.5 -150v-586h-101v1024h101v-156q1 2 9.5 15.5t26 32.5t44 41t64.5 40.5t87 30.5t111 12q90 0 163 -29t125 -83t80.5 -130.5t28.5 -170.5v-627z" />
    <glyph glyph-name="Nacute" unicode="&#x143;" 
d="M942 0h-100v614q0 78 -21 139t-60.5 103.5t-96.5 65t-129 22.5q-75 0 -136.5 -24.5t-105 -71t-67 -112.5t-23.5 -150v-586h-101v1024h101v-156q1 2 9.5 15.5t26 32.5t44 41t64.5 40.5t87 30.5t111 12q90 0 163 -29t125 -83t80.5 -130.5t28.5 -170.5v-627zM719 1329
l-393 -121v92l393 132v-103z" />
    <glyph glyph-name="Ncaron" unicode="&#x147;" 
d="M942 0h-100v614q0 78 -21 139t-60.5 103.5t-96.5 65t-129 22.5q-75 0 -136.5 -24.5t-105 -71t-67 -112.5t-23.5 -150v-586h-101v1024h101v-156q1 2 9.5 15.5t26 32.5t44 41t64.5 40.5t87 30.5t111 12q90 0 163 -29t125 -83t80.5 -130.5t28.5 -170.5v-627zM780 1309
l-258 -164l-258 164v102l258 -158l258 158v-102z" />
    <glyph glyph-name="Ncommaaccent" unicode="&#x145;" 
d="M942 0h-100v614q0 78 -21 139t-60.5 103.5t-96.5 65t-129 22.5q-75 0 -136.5 -24.5t-105 -71t-67 -112.5t-23.5 -150v-586h-101v1024h101v-156q1 2 9.5 15.5t26 32.5t44 41t64.5 40.5t87 30.5t111 12q90 0 163 -29t125 -83t80.5 -130.5t28.5 -170.5v-627zM537 -395h-56
l35 147h-43v119h102v-111z" />
    <glyph glyph-name="Eng" unicode="&#x14a;" 
d="M942 -43q0 -87 -25.5 -146.5t-66.5 -96t-92 -52.5t-101 -16v96q33 0 66 9.5t59.5 33.5t43 65.5t16.5 106.5v657q0 78 -21 139t-60.5 103.5t-96.5 65t-129 22.5q-75 0 -136.5 -24.5t-105 -71t-67 -112.5t-23.5 -150v-586h-101v1024h101v-156q1 2 9.5 15.5t26 32.5t44 41
t64.5 40.5t87 30.5t111 12q90 0 163 -29t125 -83t80.5 -130.5t28.5 -170.5v-670z" />
    <glyph glyph-name="Ntilde" unicode="&#xd1;" 
d="M942 0h-100v614q0 78 -21 139t-60.5 103.5t-96.5 65t-129 22.5q-75 0 -136.5 -24.5t-105 -71t-67 -112.5t-23.5 -150v-586h-101v1024h101v-156q1 2 9.5 15.5t26 32.5t44 41t64.5 40.5t87 30.5t111 12q90 0 163 -29t125 -83t80.5 -130.5t28.5 -170.5v-627zM809 1276
q-17 -26 -41 -45q-20 -17 -50.5 -31t-68.5 -14q-41 0 -75 12t-65 27t-61.5 27t-64.5 12t-61 -12.5t-46 -26.5q-23 -18 -40 -39v86q17 25 41 44q20 17 50 30.5t68 13.5q42 0 75.5 -12t64 -26t61 -26t66.5 -12q34 0 60.5 12t46.5 27q22 17 40 39v-86z" />
    <glyph glyph-name="O" unicode="O" horiz-adv-x="1157" 
d="M580 -14q-112 0 -208.5 40.5t-168 111.5t-112 167.5t-40.5 208.5q0 111 40.5 207.5t112 167t168 111t208.5 40.5q111 0 207.5 -40.5t167 -111t111 -167t40.5 -207.5q0 -112 -40.5 -208.5t-111 -167.5t-167 -111.5t-207.5 -40.5zM580 82q91 0 169 33t135 91t89.5 136.5
t32.5 169.5t-32.5 170t-89.5 137.5t-135 91.5t-169 33q-92 0 -170.5 -33t-135.5 -91.5t-89.5 -137.5t-32.5 -170t32.5 -169.5t89.5 -136.5t135.5 -91t170.5 -33z" />
    <glyph glyph-name="Oacute" unicode="&#xd3;" horiz-adv-x="1157" 
d="M776 1329l-393 -121v92l393 132v-103zM580 -14q-112 0 -208.5 40.5t-168 111.5t-112 167.5t-40.5 208.5q0 111 40.5 207.5t112 167t168 111t208.5 40.5q111 0 207.5 -40.5t167 -111t111 -167t40.5 -207.5q0 -112 -40.5 -208.5t-111 -167.5t-167 -111.5t-207.5 -40.5z
M580 82q91 0 169 33t135 91t89.5 136.5t32.5 169.5t-32.5 170t-89.5 137.5t-135 91.5t-169 33q-92 0 -170.5 -33t-135.5 -91.5t-89.5 -137.5t-32.5 -170t32.5 -169.5t89.5 -136.5t135.5 -91t170.5 -33z" />
    <glyph glyph-name="Obreve" unicode="&#x14e;" horiz-adv-x="1157" 
d="M852 1309q-26 -35 -65 -62q-33 -23 -84 -42t-123 -19t-122.5 19t-84.5 42q-40 27 -66 62v94q33 -35 75 -62q36 -23 86 -42t112 -19t112.5 19t85.5 42q41 27 74 62v-94zM580 -14q-112 0 -208.5 40.5t-168 111.5t-112 167.5t-40.5 208.5q0 111 40.5 207.5t112 167t168 111
t208.5 40.5q111 0 207.5 -40.5t167 -111t111 -167t40.5 -207.5q0 -112 -40.5 -208.5t-111 -167.5t-167 -111.5t-207.5 -40.5zM580 82q91 0 169 33t135 91t89.5 136.5t32.5 169.5t-32.5 170t-89.5 137.5t-135 91.5t-169 33q-92 0 -170.5 -33t-135.5 -91.5t-89.5 -137.5
t-32.5 -170t32.5 -169.5t89.5 -136.5t135.5 -91t170.5 -33z" />
    <glyph glyph-name="Ocircumflex" unicode="&#xd4;" horiz-adv-x="1157" 
d="M838 1157l-258 158l-258 -158v103l258 163l258 -163v-103zM580 -14q-112 0 -208.5 40.5t-168 111.5t-112 167.5t-40.5 208.5q0 111 40.5 207.5t112 167t168 111t208.5 40.5q111 0 207.5 -40.5t167 -111t111 -167t40.5 -207.5q0 -112 -40.5 -208.5t-111 -167.5
t-167 -111.5t-207.5 -40.5zM580 82q91 0 169 33t135 91t89.5 136.5t32.5 169.5t-32.5 170t-89.5 137.5t-135 91.5t-169 33q-92 0 -170.5 -33t-135.5 -91.5t-89.5 -137.5t-32.5 -170t32.5 -169.5t89.5 -136.5t135.5 -91t170.5 -33z" />
    <glyph glyph-name="Odieresis" unicode="&#xd6;" horiz-adv-x="1157" 
d="M483 1296h-98v107h98v-107zM774 1296h-98v107h98v-107zM580 -14q-112 0 -208.5 40.5t-168 111.5t-112 167.5t-40.5 208.5q0 111 40.5 207.5t112 167t168 111t208.5 40.5q111 0 207.5 -40.5t167 -111t111 -167t40.5 -207.5q0 -112 -40.5 -208.5t-111 -167.5t-167 -111.5
t-207.5 -40.5zM580 82q91 0 169 33t135 91t89.5 136.5t32.5 169.5t-32.5 170t-89.5 137.5t-135 91.5t-169 33q-92 0 -170.5 -33t-135.5 -91.5t-89.5 -137.5t-32.5 -170t32.5 -169.5t89.5 -136.5t135.5 -91t170.5 -33z" />
    <glyph glyph-name="Ograve" unicode="&#xd2;" horiz-adv-x="1157" 
d="M776 1208l-393 121v103l393 -132v-92zM580 -14q-112 0 -208.5 40.5t-168 111.5t-112 167.5t-40.5 208.5q0 111 40.5 207.5t112 167t168 111t208.5 40.5q111 0 207.5 -40.5t167 -111t111 -167t40.5 -207.5q0 -112 -40.5 -208.5t-111 -167.5t-167 -111.5t-207.5 -40.5z
M580 82q91 0 169 33t135 91t89.5 136.5t32.5 169.5t-32.5 170t-89.5 137.5t-135 91.5t-169 33q-92 0 -170.5 -33t-135.5 -91.5t-89.5 -137.5t-32.5 -170t32.5 -169.5t89.5 -136.5t135.5 -91t170.5 -33z" />
    <glyph glyph-name="Ohungarumlaut" unicode="&#x150;" horiz-adv-x="1157" 
d="M537 1143h-93l97 301h100zM741 1143h-88l111 301h96zM580 -14q-112 0 -208.5 40.5t-168 111.5t-112 167.5t-40.5 208.5q0 111 40.5 207.5t112 167t168 111t208.5 40.5q111 0 207.5 -40.5t167 -111t111 -167t40.5 -207.5q0 -112 -40.5 -208.5t-111 -167.5t-167 -111.5
t-207.5 -40.5zM580 82q91 0 169 33t135 91t89.5 136.5t32.5 169.5t-32.5 170t-89.5 137.5t-135 91.5t-169 33q-92 0 -170.5 -33t-135.5 -91.5t-89.5 -137.5t-32.5 -170t32.5 -169.5t89.5 -136.5t135.5 -91t170.5 -33z" />
    <glyph glyph-name="Omacron" unicode="&#x14c;" horiz-adv-x="1157" 
d="M838 1264h-516v90h516v-90zM580 -14q-112 0 -208.5 40.5t-168 111.5t-112 167.5t-40.5 208.5q0 111 40.5 207.5t112 167t168 111t208.5 40.5q111 0 207.5 -40.5t167 -111t111 -167t40.5 -207.5q0 -112 -40.5 -208.5t-111 -167.5t-167 -111.5t-207.5 -40.5zM580 82
q91 0 169 33t135 91t89.5 136.5t32.5 169.5t-32.5 170t-89.5 137.5t-135 91.5t-169 33q-92 0 -170.5 -33t-135.5 -91.5t-89.5 -137.5t-32.5 -170t32.5 -169.5t89.5 -136.5t135.5 -91t170.5 -33z" />
    <glyph glyph-name="Oslash" unicode="&#xd8;" horiz-adv-x="1157" 
d="M252 -82h-117l119 176q-94 71 -148.5 180t-54.5 240q0 111 40.5 207.5t112 167t168 111t208.5 40.5q74 0 141.5 -17.5t126.5 -51.5l92 137h117l-131 -193q83 -72 131.5 -175.5t48.5 -225.5q0 -112 -40.5 -208.5t-111 -167.5t-167 -111.5t-207.5 -40.5q-66 0 -128 14.5
t-116 42.5zM793 889q-47 26 -101 40.5t-112 14.5q-92 0 -170.5 -33t-135.5 -91.5t-89.5 -137.5t-32.5 -170q0 -105 41.5 -192t115.5 -146zM391 123q84 -41 189 -41q91 0 169 33t135 91t89.5 136.5t32.5 169.5q0 97 -36.5 179.5t-99.5 142.5z" />
    <glyph glyph-name="Otilde" unicode="&#xd5;" horiz-adv-x="1157" 
d="M866 1276q-17 -26 -41 -45q-20 -17 -50 -31t-68 -14q-42 0 -76 12t-65 27t-61.5 27t-64.5 12t-61 -12.5t-46 -26.5q-23 -18 -40 -39v86q17 25 41 44q20 17 50 30.5t69 13.5q41 0 74.5 -12t64.5 -26t61.5 -26t65.5 -12q34 0 60.5 12t46.5 27q22 17 40 39v-86zM580 -14
q-112 0 -208.5 40.5t-168 111.5t-112 167.5t-40.5 208.5q0 111 40.5 207.5t112 167t168 111t208.5 40.5q111 0 207.5 -40.5t167 -111t111 -167t40.5 -207.5q0 -112 -40.5 -208.5t-111 -167.5t-167 -111.5t-207.5 -40.5zM580 82q91 0 169 33t135 91t89.5 136.5t32.5 169.5
t-32.5 170t-89.5 137.5t-135 91.5t-169 33q-92 0 -170.5 -33t-135.5 -91.5t-89.5 -137.5t-32.5 -170t32.5 -169.5t89.5 -136.5t135.5 -91t170.5 -33z" />
    <glyph glyph-name="OE" unicode="&#x152;" horiz-adv-x="2099" 
d="M2011 242q-35 -59 -81 -106t-104.5 -80.5t-130 -51.5t-157.5 -18q-84 0 -159 21.5t-137 61.5t-109.5 95.5t-77.5 124.5q-31 -69 -78.5 -124.5t-109 -95.5t-134 -61.5t-153.5 -21.5q-112 0 -208.5 40.5t-168 111.5t-112 167.5t-40.5 208.5q0 111 40.5 207.5t112 167
t168 111t208.5 40.5q81 0 153.5 -22t134 -61.5t109 -95.5t78.5 -124q30 68 77 124t108 95.5t134.5 61.5t155.5 22q114 0 209.5 -40.5t164 -109t106.5 -158t38 -187.5q0 -13 -0.5 -24.5t-1.5 -21.5l-2 -22h-934q5 -84 38.5 -156t89.5 -124.5t132 -82.5t168 -30q76 0 136 14.5
t107.5 42t84.5 66.5t67 88zM580 82q91 0 169 33t135 91t89.5 136.5t32.5 169.5t-32.5 170t-89.5 137.5t-135 91.5t-169 33q-92 0 -170.5 -33t-135.5 -91.5t-89.5 -137.5t-32.5 -170t32.5 -169.5t89.5 -136.5t135.5 -91t170.5 -33zM1944 569q-6 78 -39.5 146.5t-88 119.5
t-127.5 80t-159 29q-84 0 -156.5 -28.5t-127.5 -78.5t-90 -118.5t-44 -149.5h832z" />
    <glyph glyph-name="P" unicode="P" horiz-adv-x="1204" 
d="M203 -356h-101v1380h101v-203q1 3 12.5 20t34.5 41.5t57 52t81 51t107.5 39t135.5 15.5q110 0 205 -40.5t165.5 -111t111 -167t40.5 -207.5q0 -112 -40.5 -208.5t-111 -167.5t-165.5 -111.5t-205 -40.5q-75 0 -135.5 15.5t-107.5 38.5t-81 50.5t-57 51.5t-34 41t-13 19
v-558zM625 82q92 0 170.5 33t135.5 91t89.5 136.5t32.5 169.5t-32.5 170t-89.5 137.5t-135.5 91.5t-170.5 33q-91 0 -169 -33t-135.5 -91t-90.5 -137t-33 -171t33 -170.5t90.5 -136t135.5 -90.5t169 -33z" />
    <glyph glyph-name="Thorn" unicode="&#xde;" horiz-adv-x="1204" 
d="M203 -356h-101v1759h101v-582q1 3 12.5 20t34.5 41.5t57 52t81 51t107.5 39t135.5 15.5q110 0 205 -40.5t165.5 -111t111 -167t40.5 -207.5q0 -112 -40.5 -208.5t-111 -167.5t-165.5 -111.5t-205 -40.5q-75 0 -135.5 15.5t-107.5 38.5t-81 50.5t-57 51.5t-34 41t-13 19
v-558zM625 82q92 0 170.5 33t135.5 91t89.5 136.5t32.5 169.5t-32.5 170t-89.5 137.5t-135.5 91.5t-170.5 33q-91 0 -169 -33t-135.5 -91t-90.5 -137t-33 -171t33 -170.5t90.5 -136t135.5 -90.5t169 -33z" />
    <glyph glyph-name="Q" unicode="Q" horiz-adv-x="1204" 
d="M1102 -356h-101v560l-13 -20t-34 -41t-57 -51.5t-81 -51t-107.5 -39t-135.5 -15.5q-110 0 -205 40.5t-165.5 111.5t-111 167.5t-40.5 208.5q0 111 40.5 207.5t111 167t165.5 111t205 40.5q58 0 107 -9.5t89.5 -25t73.5 -35t59 -39.5q60 -48 99 -108v201h101v-1380z
M580 82q90 0 168.5 33t136 90.5t90.5 136t33 170.5t-33 171t-90.5 137t-136 91t-168.5 33q-92 0 -170.5 -33t-135.5 -91.5t-89.5 -137.5t-32.5 -170t32.5 -169.5t89.5 -136.5t135.5 -91t170.5 -33z" />
    <glyph glyph-name="R" unicode="R" horiz-adv-x="596" 
d="M203 0h-101v1024h101v-190q1 2 10 18.5t26.5 39.5t45 49t65 48t86.5 36.5t109 14.5v-110q-74 0 -136.5 -27t-108.5 -76t-71.5 -117.5t-25.5 -152.5v-557z" />
    <glyph glyph-name="Racute" unicode="&#x154;" horiz-adv-x="596" 
d="M203 0h-101v1024h101v-190q1 2 10 18.5t26.5 39.5t45 49t65 48t86.5 36.5t109 14.5v-110q-74 0 -136.5 -27t-108.5 -76t-71.5 -117.5t-25.5 -152.5v-557zM506 1329l-393 -121v92l393 132v-103z" />
    <glyph glyph-name="Rcaron" unicode="&#x158;" horiz-adv-x="596" 
d="M203 0h-101v1024h101v-190q1 2 10 18.5t26.5 39.5t45 49t65 48t86.5 36.5t109 14.5v-110q-74 0 -136.5 -27t-108.5 -76t-71.5 -117.5t-25.5 -152.5v-557zM567 1309l-258 -164l-258 164v102l258 -158l258 158v-102z" />
    <glyph glyph-name="Rcommaaccent" unicode="&#x156;" horiz-adv-x="596" 
d="M203 0h-101v1024h101v-190q1 2 10 18.5t26.5 39.5t45 49t65 48t86.5 36.5t109 14.5v-110q-74 0 -136.5 -27t-108.5 -76t-71.5 -117.5t-25.5 -152.5v-557zM166 -395h-55l34 147h-43v119h103v-111z" />
    <glyph glyph-name="S" unicode="S" horiz-adv-x="918" 
d="M735 737q-4 40 -22.5 77.5t-53 67t-87 47t-123.5 17.5q-122 0 -189 -50.5t-67 -133.5q0 -56 29 -90t76 -54.5t107.5 -31.5l124 -22.5t124 -28t107.5 -46.5t76 -79t29 -125q0 -65 -26 -120.5t-76 -95.5t-122.5 -62.5t-164.5 -22.5q-187 0 -297 82.5t-129 244.5h103
q14 -109 96.5 -170t228.5 -61q142 0 214.5 54.5t72.5 146.5q0 58 -29 93t-76.5 56t-108.5 32.5l-124 23t-124 27t-108.5 45t-76.5 77.5t-29 123q0 63 25.5 115t72.5 89t113.5 57.5t149.5 20.5q85 0 154 -21.5t118.5 -61t78.5 -95.5t34 -125h-101z" />
    <glyph glyph-name="Sacute" unicode="&#x15a;" horiz-adv-x="918" 
d="M651 1329l-393 -121v92l393 132v-103zM735 737q-4 40 -22.5 77.5t-53 67t-87 47t-123.5 17.5q-122 0 -189 -50.5t-67 -133.5q0 -56 29 -90t76 -54.5t107.5 -31.5l124 -22.5t124 -28t107.5 -46.5t76 -79t29 -125q0 -65 -26 -120.5t-76 -95.5t-122.5 -62.5t-164.5 -22.5
q-187 0 -297 82.5t-129 244.5h103q14 -109 96.5 -170t228.5 -61q142 0 214.5 54.5t72.5 146.5q0 58 -29 93t-76.5 56t-108.5 32.5l-124 23t-124 27t-108.5 45t-76.5 77.5t-29 123q0 63 25.5 115t72.5 89t113.5 57.5t149.5 20.5q85 0 154 -21.5t118.5 -61t78.5 -95.5t34 -125
h-101z" />
    <glyph glyph-name="Scaron" unicode="&#x160;" horiz-adv-x="918" 
d="M713 1309l-258 -164l-258 164v102l258 -158l258 158v-102zM735 737q-4 40 -22.5 77.5t-53 67t-87 47t-123.5 17.5q-122 0 -189 -50.5t-67 -133.5q0 -56 29 -90t76 -54.5t107.5 -31.5l124 -22.5t124 -28t107.5 -46.5t76 -79t29 -125q0 -65 -26 -120.5t-76 -95.5
t-122.5 -62.5t-164.5 -22.5q-187 0 -297 82.5t-129 244.5h103q14 -109 96.5 -170t228.5 -61q142 0 214.5 54.5t72.5 146.5q0 58 -29 93t-76.5 56t-108.5 32.5l-124 23t-124 27t-108.5 45t-76.5 77.5t-29 123q0 63 25.5 115t72.5 89t113.5 57.5t149.5 20.5q85 0 154 -21.5
t118.5 -61t78.5 -95.5t34 -125h-101z" />
    <glyph glyph-name="Scedilla" unicode="&#x15e;" horiz-adv-x="918" 
d="M381 -268q6 -41 30.5 -58.5t61.5 -17.5q38 0 63 23.5t25 60.5q0 34 -25.5 57t-68.5 23h-135l90 166q-162 12 -258 94t-113 231h103q14 -109 96.5 -170t228.5 -61q142 0 214.5 54.5t72.5 146.5q0 58 -29 93t-76.5 56t-108.5 32.5l-124 23t-124 27t-108.5 45t-76.5 77.5
t-29 123q0 63 25.5 115t72.5 89t113.5 57.5t149.5 20.5q85 0 154 -21.5t118.5 -61t78.5 -95.5t34 -125h-101q-4 40 -22.5 77.5t-53 67t-87 47t-123.5 17.5q-122 0 -189 -50.5t-67 -133.5q0 -56 29 -90t76 -54.5t107.5 -31.5l124 -22.5t124 -28t107.5 -46.5t76 -79t29 -125
q0 -62 -23.5 -114.5t-68 -92t-109 -64t-147.5 -28.5l-45 -84q37 0 68.5 -12t55 -33t37 -51t13.5 -66q0 -35 -13.5 -66t-37 -53.5t-55 -35.5t-68.5 -13q-38 0 -70 10.5t-56 31t-39 50t-19 68.5h92z" />
    <glyph glyph-name="Scircumflex" unicode="&#x15c;" horiz-adv-x="918" 
d="M713 1157l-258 158l-258 -158v103l258 163l258 -163v-103zM735 737q-4 40 -22.5 77.5t-53 67t-87 47t-123.5 17.5q-122 0 -189 -50.5t-67 -133.5q0 -56 29 -90t76 -54.5t107.5 -31.5l124 -22.5t124 -28t107.5 -46.5t76 -79t29 -125q0 -65 -26 -120.5t-76 -95.5
t-122.5 -62.5t-164.5 -22.5q-187 0 -297 82.5t-129 244.5h103q14 -109 96.5 -170t228.5 -61q142 0 214.5 54.5t72.5 146.5q0 58 -29 93t-76.5 56t-108.5 32.5l-124 23t-124 27t-108.5 45t-76.5 77.5t-29 123q0 63 25.5 115t72.5 89t113.5 57.5t149.5 20.5q85 0 154 -21.5
t118.5 -61t78.5 -95.5t34 -125h-101z" />
    <glyph glyph-name="Scommaaccent" unicode="&#x218;" horiz-adv-x="918" 
d="M735 737q-4 40 -22.5 77.5t-53 67t-87 47t-123.5 17.5q-122 0 -189 -50.5t-67 -133.5q0 -56 29 -90t76 -54.5t107.5 -31.5l124 -22.5t124 -28t107.5 -46.5t76 -79t29 -125q0 -65 -26 -120.5t-76 -95.5t-122.5 -62.5t-164.5 -22.5q-187 0 -297 82.5t-129 244.5h103
q14 -109 96.5 -170t228.5 -61q142 0 214.5 54.5t72.5 146.5q0 58 -29 93t-76.5 56t-108.5 32.5l-124 23t-124 27t-108.5 45t-76.5 77.5t-29 123q0 63 25.5 115t72.5 89t113.5 57.5t149.5 20.5q85 0 154 -21.5t118.5 -61t78.5 -95.5t34 -125h-101zM496 -395h-56l35 147h-43
v119h103v-111z" />
    <glyph glyph-name="uni1E9E" unicode="&#x1e9e;" horiz-adv-x="969" 
d="M502 90q67 0 125 21.5t100 61.5t66 95t24 123q0 67 -24 121.5t-66 93.5t-100 60t-125 20h-111v92h74q54 0 103 22.5t86 60.5t59 87.5t22 104.5q0 58 -20.5 105.5t-56.5 81.5t-84 52.5t-103 18.5q-56 0 -105 -20.5t-86 -58t-58 -90t-21 -116.5v-1026h-99v1026
q0 81 28.5 150t78.5 119.5t117 79t145 28.5t144 -25.5t114 -72t75 -110.5t27 -142q0 -51 -12.5 -93t-31.5 -75.5t-41.5 -59t-42.5 -42t-34 -25.5t-16 -10q3 -1 24 -9t50.5 -24.5t63 -43.5t62 -66.5t47 -92.5t18.5 -121q0 -86 -32 -158t-88 -123.5t-132 -80.5t-164 -29h-111
v90h111z" />
    <glyph glyph-name="T" unicode="T" horiz-adv-x="649" 
d="M586 0h-80q-52 0 -105.5 16t-97 52.5t-71 96t-27.5 146.5v623h-154v90h154v297h98v-297h285v-90h-285v-623q0 -65 19 -106.5t49 -65.5t66 -33.5t71 -9.5h78v-96z" />
    <glyph glyph-name="Tbar" unicode="&#x166;" horiz-adv-x="649" 
d="M586 0h-80q-52 0 -105.5 16t-97 52.5t-71 96t-27.5 146.5v230h-154v94h154v299h-154v90h154v297h98v-297h285v-90h-285v-299h285v-94h-285v-230q0 -65 19 -106.5t49 -65.5t66 -33.5t71 -9.5h78v-96z" />
    <glyph glyph-name="Tcaron" unicode="&#x164;" horiz-adv-x="649" 
d="M489 1137h-55l35 147h-43v119h102v-111zM586 0h-80q-52 0 -105.5 16t-97 52.5t-71 96t-27.5 146.5v623h-154v90h154v297h98v-297h285v-90h-285v-623q0 -65 19 -106.5t49 -65.5t66 -33.5t71 -9.5h78v-96z" />
    <glyph glyph-name="Tcedilla" unicode="&#x162;" horiz-adv-x="649" 
d="M344 -268q6 -41 30.5 -58.5t61.5 -17.5q38 0 63 23.5t25 60.5q0 34 -25.5 57t-68.5 23h-135l106 194q-39 12 -74.5 35.5t-62.5 59.5t-43 86t-16 116v623h-154v90h154v297h98v-297h285v-90h-285v-623q0 -65 19 -106.5t49 -65.5t66 -33.5t71 -9.5h78v-96h-97l-53 -98
q37 0 69 -12t55 -33t36.5 -51t13.5 -66q0 -35 -13.5 -66t-36.5 -53.5t-55 -35.5t-69 -13q-38 0 -70 10.5t-56 31t-39 50t-19 68.5h92z" />
    <glyph glyph-name="uni021A" unicode="&#x21a;" horiz-adv-x="649" 
d="M586 0h-80q-52 0 -105.5 16t-97 52.5t-71 96t-27.5 146.5v623h-154v90h154v297h98v-297h285v-90h-285v-623q0 -65 19 -106.5t49 -65.5t66 -33.5t71 -9.5h78v-96zM459 -395h-56l35 147h-43v119h103v-111z" />
    <glyph glyph-name="U" unicode="U" 
d="M932 0h-101v155l-21 -30t-59.5 -58.5t-104.5 -57t-157 -25.5q-90 0 -163 29t-125 83t-80.5 130t-28.5 171v627h101v-614q0 -78 21 -139t60.5 -103.5t96.5 -65t129 -22.5q75 0 136 24.5t104.5 71t67 112.5t23.5 150v586h101v-1024z" />
    <glyph glyph-name="Uacute" unicode="&#xda;" 
d="M932 0h-101v155l-21 -30t-59.5 -58.5t-104.5 -57t-157 -25.5q-90 0 -163 29t-125 83t-80.5 130t-28.5 171v627h101v-614q0 -78 21 -139t60.5 -103.5t96.5 -65t129 -22.5q75 0 136 24.5t104.5 71t67 112.5t23.5 150v586h101v-1024zM709 1329l-394 -121v92l394 132v-103z
" />
    <glyph glyph-name="Ubreve" unicode="&#x16c;" 
d="M932 0h-101v155l-21 -30t-59.5 -58.5t-104.5 -57t-157 -25.5q-90 0 -163 29t-125 83t-80.5 130t-28.5 171v627h101v-614q0 -78 21 -139t60.5 -103.5t96.5 -65t129 -22.5q75 0 136 24.5t104.5 71t67 112.5t23.5 150v586h101v-1024zM784 1309q-26 -35 -65 -62
q-33 -23 -84 -42t-123 -19q-71 0 -122.5 19t-84.5 42q-40 27 -65 62v94q32 -35 74 -62q35 -23 85.5 -42t112.5 -19q63 0 113 19t85 42q41 27 74 62v-94z" />
    <glyph glyph-name="Ucircumflex" unicode="&#xdb;" 
d="M932 0h-101v155l-21 -30t-59.5 -58.5t-104.5 -57t-157 -25.5q-90 0 -163 29t-125 83t-80.5 130t-28.5 171v627h101v-614q0 -78 21 -139t60.5 -103.5t96.5 -65t129 -22.5q75 0 136 24.5t104.5 71t67 112.5t23.5 150v586h101v-1024zM770 1157l-258 158l-258 -158v103
l258 163l258 -163v-103z" />
    <glyph glyph-name="Udieresis" unicode="&#xdc;" 
d="M932 0h-101v155l-21 -30t-59.5 -58.5t-104.5 -57t-157 -25.5q-90 0 -163 29t-125 83t-80.5 130t-28.5 171v627h101v-614q0 -78 21 -139t60.5 -103.5t96.5 -65t129 -22.5q75 0 136 24.5t104.5 71t67 112.5t23.5 150v586h101v-1024zM416 1296h-99v107h99v-107zM707 1296
h-99v107h99v-107z" />
    <glyph glyph-name="Ugrave" unicode="&#xd9;" 
d="M932 0h-101v155l-21 -30t-59.5 -58.5t-104.5 -57t-157 -25.5q-90 0 -163 29t-125 83t-80.5 130t-28.5 171v627h101v-614q0 -78 21 -139t60.5 -103.5t96.5 -65t129 -22.5q75 0 136 24.5t104.5 71t67 112.5t23.5 150v586h101v-1024zM709 1208l-394 121v103l394 -132v-92z
" />
    <glyph glyph-name="Uhungarumlaut" unicode="&#x170;" 
d="M932 0h-101v155l-21 -30t-59.5 -58.5t-104.5 -57t-157 -25.5q-90 0 -163 29t-125 83t-80.5 130t-28.5 171v627h101v-614q0 -78 21 -139t60.5 -103.5t96.5 -65t129 -22.5q75 0 136 24.5t104.5 71t67 112.5t23.5 150v586h101v-1024zM469 1143h-92l96 301h100zM674 1143h-88
l110 301h97z" />
    <glyph glyph-name="Umacron" unicode="&#x16a;" 
d="M932 0h-101v155l-21 -30t-59.5 -58.5t-104.5 -57t-157 -25.5q-90 0 -163 29t-125 83t-80.5 130t-28.5 171v627h101v-614q0 -78 21 -139t60.5 -103.5t96.5 -65t129 -22.5q75 0 136 24.5t104.5 71t67 112.5t23.5 150v586h101v-1024zM770 1264h-516v90h516v-90z" />
    <glyph glyph-name="Uogonek" unicode="&#x172;" 
d="M1008 -322q-17 -11 -38 -19q-19 -8 -45 -13.5t-61 -5.5q-45 0 -82 11t-63.5 32t-41.5 51.5t-15 68.5q0 37 13 69.5t35 58t51.5 44t61.5 27.5l8 2v151l-21 -30t-59.5 -58.5t-104.5 -57t-157 -25.5q-90 0 -163 29t-125 83t-80.5 130t-28.5 171v627h101v-614q0 -78 21 -139
t60.5 -103.5t96.5 -65t129 -22.5q75 0 136 24.5t104.5 71t67 112.5t23.5 150v586h101v-1024h-2q-81 -29 -121.5 -78t-40.5 -106q0 -42 30 -65t81 -23q29 0 52.5 5t40.5 11q20 7 36 16v-82z" />
    <glyph glyph-name="Uring" unicode="&#x16e;" 
d="M932 0h-101v155l-21 -30t-59.5 -58.5t-104.5 -57t-157 -25.5q-90 0 -163 29t-125 83t-80.5 130t-28.5 171v627h101v-614q0 -78 21 -139t60.5 -103.5t96.5 -65t129 -22.5q75 0 136 24.5t104.5 71t67 112.5t23.5 150v586h101v-1024zM690 1321q0 -37 -13.5 -69t-37.5 -56
t-56.5 -37.5t-70.5 -13.5t-70.5 13.5t-56.5 37.5t-37.5 56t-13.5 69t13.5 68.5t37.5 55t56.5 37t70.5 13.5t70.5 -13.5t56.5 -37t37.5 -55t13.5 -68.5zM512 1219q45 0 72.5 29.5t27.5 72.5t-27.5 71.5t-72.5 28.5t-72.5 -28.5t-27.5 -71.5t27.5 -72.5t72.5 -29.5z" />
    <glyph glyph-name="Utilde" unicode="&#x168;" 
d="M932 0h-101v155l-21 -30t-59.5 -58.5t-104.5 -57t-157 -25.5q-90 0 -163 29t-125 83t-80.5 130t-28.5 171v627h101v-614q0 -78 21 -139t60.5 -103.5t96.5 -65t129 -22.5q75 0 136 24.5t104.5 71t67 112.5t23.5 150v586h101v-1024zM799 1276q-18 -26 -42 -45
q-20 -17 -50 -31t-68 -14q-42 0 -75.5 12t-64.5 27t-61.5 27t-64.5 12t-61 -12.5t-47 -26.5q-23 -18 -40 -39v86q18 25 42 44q20 17 50 30.5t68 13.5q42 0 75.5 -12t64 -26t61 -26t65.5 -12q34 0 61 12t47 27q23 17 40 39v-86z" />
    <glyph glyph-name="V" unicode="V" horiz-adv-x="971" 
d="M549 0h-127l-391 1024h114l344 -913l342 913h109z" />
    <glyph glyph-name="W" unicode="W" horiz-adv-x="1534" 
d="M1165 0h-127l-272 891l-305 -891h-127l-293 1024h113l247 -901l306 901h127l274 -901l276 901h109z" />
    <glyph glyph-name="Wacute" unicode="&#x1e82;" horiz-adv-x="1534" 
d="M965 1329l-394 -121v92l394 132v-103zM1165 0h-127l-272 891l-305 -891h-127l-293 1024h113l247 -901l306 901h127l274 -901l276 901h109z" />
    <glyph glyph-name="Wcircumflex" unicode="&#x174;" horiz-adv-x="1534" 
d="M1026 1157l-258 158l-258 -158v103l258 163l258 -163v-103zM1165 0h-127l-272 891l-305 -891h-127l-293 1024h113l247 -901l306 901h127l274 -901l276 901h109z" />
    <glyph glyph-name="Wdieresis" unicode="&#x1e84;" horiz-adv-x="1534" 
d="M672 1296h-99v107h99v-107zM963 1296h-99v107h99v-107zM1165 0h-127l-272 891l-305 -891h-127l-293 1024h113l247 -901l306 901h127l274 -901l276 901h109z" />
    <glyph glyph-name="Wgrave" unicode="&#x1e80;" horiz-adv-x="1534" 
d="M965 1208l-394 121v103l394 -132v-92zM1165 0h-127l-272 891l-305 -891h-127l-293 1024h113l247 -901l306 901h127l274 -901l276 901h109z" />
    <glyph glyph-name="X" unicode="X" horiz-adv-x="981" 
d="M950 0h-127l-334 455l-335 -455h-123l391 528l-361 496h127l304 -420l305 420h125l-365 -494z" />
    <glyph glyph-name="Y" unicode="Y" horiz-adv-x="969" 
d="M563 25q-36 -101 -79.5 -173t-96.5 -118.5t-118 -68t-144 -21.5h-39v96h37q57 0 105 15.5t88.5 49.5t74.5 88t64 132l-424 999h112l369 -868l317 868h109z" />
    <glyph glyph-name="Yacute" unicode="&#xdd;" horiz-adv-x="969" 
d="M682 1329l-393 -121v92l393 132v-103zM563 25q-36 -101 -79.5 -173t-96.5 -118.5t-118 -68t-144 -21.5h-39v96h37q57 0 105 15.5t88.5 49.5t74.5 88t64 132l-424 999h112l369 -868l317 868h109z" />
    <glyph glyph-name="Ycircumflex" unicode="&#x176;" horiz-adv-x="969" 
d="M743 1157l-258 158l-258 -158v103l258 163l258 -163v-103zM563 25q-36 -101 -79.5 -173t-96.5 -118.5t-118 -68t-144 -21.5h-39v96h37q57 0 105 15.5t88.5 49.5t74.5 88t64 132l-424 999h112l369 -868l317 868h109z" />
    <glyph glyph-name="Ydieresis" unicode="&#x178;" horiz-adv-x="969" 
d="M389 1296h-98v107h98v-107zM680 1296h-98v107h98v-107zM563 25q-36 -101 -79.5 -173t-96.5 -118.5t-118 -68t-144 -21.5h-39v96h37q57 0 105 15.5t88.5 49.5t74.5 88t64 132l-424 999h112l369 -868l317 868h109z" />
    <glyph glyph-name="Ygrave" unicode="&#x1ef2;" horiz-adv-x="969" 
d="M682 1208l-393 121v103l393 -132v-92zM563 25q-36 -101 -79.5 -173t-96.5 -118.5t-118 -68t-144 -21.5h-39v96h37q57 0 105 15.5t88.5 49.5t74.5 88t64 132l-424 999h112l369 -868l317 868h109z" />
    <glyph glyph-name="Z" unicode="Z" horiz-adv-x="965" 
d="M903 0h-842v90l680 844h-653v90h782v-90l-677 -844h710v-90z" />
    <glyph glyph-name="Zacute" unicode="&#x179;" horiz-adv-x="965" 
d="M680 1329l-393 -121v92l393 132v-103zM903 0h-842v90l680 844h-653v90h782v-90l-677 -844h710v-90z" />
    <glyph glyph-name="Zcaron" unicode="&#x17d;" horiz-adv-x="965" 
d="M741 1309l-258 -164l-258 164v102l258 -158l258 158v-102zM903 0h-842v90l680 844h-653v90h782v-90l-677 -844h710v-90z" />
    <glyph glyph-name="Zdotaccent" unicode="&#x17b;" horiz-adv-x="965" 
d="M532 1296h-98v107h98v-107zM903 0h-842v90l680 844h-653v90h782v-90l-677 -844h710v-90z" />
    <glyph glyph-name="a" unicode="a" horiz-adv-x="1204" 
d="M1102 0h-101v204l-13 -20t-34 -41t-57 -51.5t-81 -51t-107.5 -39t-135.5 -15.5q-110 0 -205 40.5t-165.5 111.5t-111 167.5t-40.5 208.5q0 111 40.5 207.5t111 167t165.5 111t205 40.5q58 0 107 -9.5t89.5 -24.5t73.5 -34t59 -39q60 -47 99 -106v197h101v-1024zM580 82
q90 0 168.5 33t136 90.5t90.5 136t33 170.5t-33 171t-90.5 137t-136 91t-168.5 33q-92 0 -170.5 -33t-135.5 -91.5t-89.5 -137.5t-32.5 -170t32.5 -169.5t89.5 -136.5t135.5 -91t170.5 -33z" />
    <glyph glyph-name="aacute" unicode="&#xe1;" horiz-adv-x="1204" 
d="M1102 0h-101v204l-13 -20t-34 -41t-57 -51.5t-81 -51t-107.5 -39t-135.5 -15.5q-110 0 -205 40.5t-165.5 111.5t-111 167.5t-40.5 208.5q0 111 40.5 207.5t111 167t165.5 111t205 40.5q75 0 135.5 -15t107.5 -38t81 -50t57 -50.5t34.5 -40.5t12.5 -19v197h101v-1024z
M580 82q90 0 168.5 33t136 90.5t90.5 136t33 170.5t-33 171t-90.5 137t-136 91t-168.5 33q-92 0 -170.5 -33t-135.5 -91.5t-89.5 -137.5t-32.5 -170t32.5 -169.5t89.5 -136.5t135.5 -91t170.5 -33zM782 1329l-393 -121v92l393 132v-103z" />
    <glyph glyph-name="abreve" unicode="&#x103;" horiz-adv-x="1204" 
d="M1102 0h-101v204l-13 -20t-34 -41t-57 -51.5t-81 -51t-107.5 -39t-135.5 -15.5q-110 0 -205 40.5t-165.5 111.5t-111 167.5t-40.5 208.5q0 111 40.5 207.5t111 167t165.5 111t205 40.5q75 0 135.5 -15t107.5 -38t81 -50t57 -50.5t34.5 -40.5t12.5 -19v197h101v-1024z
M580 82q90 0 168.5 33t136 90.5t90.5 136t33 170.5t-33 171t-90.5 137t-136 91t-168.5 33q-92 0 -170.5 -33t-135.5 -91.5t-89.5 -137.5t-32.5 -170t32.5 -169.5t89.5 -136.5t135.5 -91t170.5 -33zM858 1309q-26 -35 -65 -62q-33 -23 -84 -42t-123 -19t-122.5 19t-84.5 42
q-40 27 -66 62v94q33 -35 75 -62q36 -23 86 -42t112 -19q63 0 113 19t85 42q41 27 74 62v-94z" />
    <glyph glyph-name="acircumflex" unicode="&#xe2;" horiz-adv-x="1204" 
d="M1102 0h-101v204l-13 -20t-34 -41t-57 -51.5t-81 -51t-107.5 -39t-135.5 -15.5q-110 0 -205 40.5t-165.5 111.5t-111 167.5t-40.5 208.5q0 111 40.5 207.5t111 167t165.5 111t205 40.5q75 0 135.5 -15t107.5 -38t81 -50t57 -50.5t34.5 -40.5t12.5 -19v197h101v-1024z
M580 82q90 0 168.5 33t136 90.5t90.5 136t33 170.5t-33 171t-90.5 137t-136 91t-168.5 33q-92 0 -170.5 -33t-135.5 -91.5t-89.5 -137.5t-32.5 -170t32.5 -169.5t89.5 -136.5t135.5 -91t170.5 -33zM844 1157l-258 158l-258 -158v103l258 163l258 -163v-103z" />
    <glyph glyph-name="adieresis" unicode="&#xe4;" horiz-adv-x="1204" 
d="M1102 0h-101v204l-13 -20t-34 -41t-57 -51.5t-81 -51t-107.5 -39t-135.5 -15.5q-110 0 -205 40.5t-165.5 111.5t-111 167.5t-40.5 208.5q0 111 40.5 207.5t111 167t165.5 111t205 40.5q58 0 107 -9.5t89.5 -24.5t73.5 -34t59 -39q60 -47 99 -106v197h101v-1024zM580 82
q90 0 168.5 33t136 90.5t90.5 136t33 170.5t-33 171t-90.5 137t-136 91t-168.5 33q-92 0 -170.5 -33t-135.5 -91.5t-89.5 -137.5t-32.5 -170t32.5 -169.5t89.5 -136.5t135.5 -91t170.5 -33zM489 1296h-98v107h98v-107zM780 1296h-98v107h98v-107z" />
    <glyph glyph-name="agrave" unicode="&#xe0;" horiz-adv-x="1204" 
d="M1102 0h-101v204l-13 -20t-34 -41t-57 -51.5t-81 -51t-107.5 -39t-135.5 -15.5q-110 0 -205 40.5t-165.5 111.5t-111 167.5t-40.5 208.5q0 111 40.5 207.5t111 167t165.5 111t205 40.5q75 0 135.5 -15t107.5 -38t81 -50t57 -50.5t34.5 -40.5t12.5 -19v197h101v-1024z
M580 82q90 0 168.5 33t136 90.5t90.5 136t33 170.5t-33 171t-90.5 137t-136 91t-168.5 33q-92 0 -170.5 -33t-135.5 -91.5t-89.5 -137.5t-32.5 -170t32.5 -169.5t89.5 -136.5t135.5 -91t170.5 -33zM782 1208l-393 121v103l393 -132v-92z" />
    <glyph glyph-name="amacron" unicode="&#x101;" horiz-adv-x="1204" 
d="M1102 0h-101v204l-13 -20t-34 -41t-57 -51.5t-81 -51t-107.5 -39t-135.5 -15.5q-110 0 -205 40.5t-165.5 111.5t-111 167.5t-40.5 208.5q0 111 40.5 207.5t111 167t165.5 111t205 40.5q75 0 135.5 -15t107.5 -38t81 -50t57 -50.5t34.5 -40.5t12.5 -19v197h101v-1024z
M580 82q90 0 168.5 33t136 90.5t90.5 136t33 170.5t-33 171t-90.5 137t-136 91t-168.5 33q-92 0 -170.5 -33t-135.5 -91.5t-89.5 -137.5t-32.5 -170t32.5 -169.5t89.5 -136.5t135.5 -91t170.5 -33zM844 1264h-516v90h516v-90z" />
    <glyph glyph-name="aogonek" unicode="&#x105;" horiz-adv-x="1204" 
d="M1180 -322q-17 -11 -38 -19q-19 -8 -45 -13.5t-61 -5.5q-44 0 -81 11t-64 32t-42 51.5t-15 68.5q0 37 13 69.5t35 58t51.5 44t61.5 27.5l6 2v200l-13 -20t-34 -41t-57 -51.5t-81 -51t-107.5 -39t-135.5 -15.5q-110 0 -205 40.5t-165.5 111.5t-111 167.5t-40.5 208.5
q0 111 40.5 207.5t111 167t165.5 111t205 40.5q75 0 135.5 -15t107.5 -38t81 -50t57 -50.5t34.5 -40.5t12.5 -19v197h101v-1024q-81 -29 -121.5 -78t-40.5 -106q0 -42 30 -65t81 -23q29 0 52.5 5t40.5 11q20 7 36 16v-82zM580 82q90 0 168.5 33t136 90.5t90.5 136t33 170.5
t-33 171t-90.5 137t-136 91t-168.5 33q-92 0 -170.5 -33t-135.5 -91.5t-89.5 -137.5t-32.5 -170t32.5 -169.5t89.5 -136.5t135.5 -91t170.5 -33z" />
    <glyph glyph-name="aring" unicode="&#xe5;" horiz-adv-x="1204" 
d="M1102 0h-101v204l-13 -20t-34 -41t-57 -51.5t-81 -51t-107.5 -39t-135.5 -15.5q-110 0 -205 40.5t-165.5 111.5t-111 167.5t-40.5 208.5q0 111 40.5 207.5t111 167t165.5 111t205 40.5q58 0 107 -9.5t89.5 -24.5t73.5 -34t59 -39q60 -47 99 -106v197h101v-1024zM580 82
q90 0 168.5 33t136 90.5t90.5 136t33 170.5t-33 171t-90.5 137t-136 91t-168.5 33q-92 0 -170.5 -33t-135.5 -91.5t-89.5 -137.5t-32.5 -170t32.5 -169.5t89.5 -136.5t135.5 -91t170.5 -33zM764 1321q0 -37 -13.5 -69t-37.5 -56t-56.5 -37.5t-70.5 -13.5q-39 0 -71.5 13.5
t-56 37.5t-37 56t-13.5 69t13.5 68.5t37 55t56 37t71.5 13.5q38 0 70.5 -13.5t56.5 -37t37.5 -55t13.5 -68.5zM586 1219q45 0 72.5 29.5t27.5 72.5t-27.5 71.5t-72.5 28.5t-73 -28.5t-28 -71.5t28 -72.5t73 -29.5z" />
    <glyph glyph-name="atilde" unicode="&#xe3;" horiz-adv-x="1204" 
d="M1102 0h-101v204l-13 -20t-34 -41t-57 -51.5t-81 -51t-107.5 -39t-135.5 -15.5q-110 0 -205 40.5t-165.5 111.5t-111 167.5t-40.5 208.5q0 111 40.5 207.5t111 167t165.5 111t205 40.5q75 0 135.5 -15t107.5 -38t81 -50t57 -50.5t34.5 -40.5t12.5 -19v197h101v-1024z
M580 82q90 0 168.5 33t136 90.5t90.5 136t33 170.5t-33 171t-90.5 137t-136 91t-168.5 33q-92 0 -170.5 -33t-135.5 -91.5t-89.5 -137.5t-32.5 -170t32.5 -169.5t89.5 -136.5t135.5 -91t170.5 -33zM872 1276q-17 -26 -41 -45q-20 -17 -50 -31t-68 -14q-42 0 -75.5 12
t-64.5 27t-61.5 27t-65.5 12q-34 0 -61 -12.5t-46 -26.5q-23 -18 -40 -39v86q17 25 41 44q20 17 50 30.5t69 13.5q41 0 74.5 -12t64.5 -26t61.5 -26t65.5 -12q34 0 60.5 12t46.5 27q22 17 40 39v-86z" />
    <glyph glyph-name="ae" unicode="&#xe6;" horiz-adv-x="2093" 
d="M2005 242q-35 -59 -81 -106t-104.5 -80.5t-130 -51.5t-157.5 -18q-70 0 -133 15t-118 42.5t-100 67t-79 88.5v-199h-101v204l-13 -20t-34 -41t-57 -51.5t-81 -51t-107.5 -39t-135.5 -15.5q-110 0 -205 40.5t-165.5 111.5t-111 167.5t-40.5 208.5q0 111 40.5 207.5
t111 167t165.5 111t205 40.5q75 0 135.5 -15t107.5 -38t81 -50t57 -50.5t34.5 -40.5t12.5 -19v197h101v-199q68 99 176.5 157t245.5 58q114 0 209.5 -40.5t164 -109t106.5 -158t38 -187.5q0 -13 -0.5 -24.5t-1.5 -21.5l-2 -22h-932q5 -84 38 -156t88.5 -124.5t131.5 -82.5
t168 -30q76 0 136 14.5t107.5 42t84.5 66.5t67 88zM580 82q90 0 168.5 33t136 90.5t90.5 136t33 170.5t-33 171t-90.5 137t-136 91t-168.5 33q-92 0 -170.5 -33t-135.5 -91.5t-89.5 -137.5t-32.5 -170t32.5 -169.5t89.5 -136.5t135.5 -91t170.5 -33zM1937 569
q-6 78 -39 146.5t-87.5 119.5t-127.5 80t-159 29q-85 0 -157 -28.5t-126.5 -78.5t-89 -118.5t-43.5 -149.5h829z" />
    <glyph glyph-name="b" unicode="b" horiz-adv-x="1204" 
d="M203 0h-101v1403h101v-582q1 3 12.5 20t34.5 41.5t57 52t81 51t107.5 39t135.5 15.5q110 0 205 -40.5t165.5 -111t111 -167t40.5 -207.5q0 -112 -40.5 -208.5t-111 -167.5t-165.5 -111.5t-205 -40.5q-75 0 -135.5 15.5t-107.5 39t-81 51t-57 51.5t-34 41.5t-13 19.5v-204
zM625 82q92 0 170.5 33t135.5 91t89.5 136.5t32.5 169.5t-32.5 170t-89.5 137.5t-135.5 91.5t-170.5 33q-91 0 -169 -33t-135.5 -91t-90.5 -137t-33 -171t33 -170.5t90.5 -136t135.5 -90.5t169 -33z" />
    <glyph glyph-name="c" unicode="c" horiz-adv-x="1079" 
d="M1038 242q-35 -59 -81.5 -106t-104.5 -80.5t-129 -51.5t-156 -18q-113 0 -207.5 41t-163 112t-107 168t-38.5 209q0 111 38.5 206.5t107 166t163 111t207.5 40.5q88 0 160 -18.5t129.5 -52t102 -81.5t79.5 -106l-77 -53q-30 49 -67.5 88.5t-85 67t-107 42.5t-134.5 15
q-93 0 -169.5 -33t-131 -90.5t-84.5 -135.5t-30 -169t30.5 -169.5t85.5 -136.5t131.5 -91t169.5 -33q75 0 134 14.5t106.5 42t84.5 66.5t67 88z" />
    <glyph glyph-name="cacute" unicode="&#x107;" horiz-adv-x="1079" 
d="M766 1329l-393 -121v92l393 132v-103zM1038 242q-35 -59 -81.5 -106t-104.5 -80.5t-129 -51.5t-156 -18q-113 0 -207.5 41t-163 112t-107 168t-38.5 209q0 111 38.5 206.5t107 166t163 111t207.5 40.5q88 0 160 -18.5t129.5 -52t102 -81.5t79.5 -106l-77 -53
q-30 49 -67.5 88.5t-85 67t-107 42.5t-134.5 15q-93 0 -169.5 -33t-131 -90.5t-84.5 -135.5t-30 -169t30.5 -169.5t85.5 -136.5t131.5 -91t169.5 -33q75 0 134 14.5t106.5 42t84.5 66.5t67 88z" />
    <glyph glyph-name="ccaron" unicode="&#x10d;" horiz-adv-x="1079" 
d="M827 1309l-258 -164l-258 164v102l258 -158l258 158v-102zM1038 242q-35 -59 -81.5 -106t-104.5 -80.5t-129 -51.5t-156 -18q-113 0 -207.5 41t-163 112t-107 168t-38.5 209q0 111 38.5 206.5t107 166t163 111t207.5 40.5q88 0 160 -18.5t129.5 -52t102 -81.5t79.5 -106
l-77 -53q-30 49 -67.5 88.5t-85 67t-107 42.5t-134.5 15q-93 0 -169.5 -33t-131 -90.5t-84.5 -135.5t-30 -169t30.5 -169.5t85.5 -136.5t131.5 -91t169.5 -33q75 0 134 14.5t106.5 42t84.5 66.5t67 88z" />
    <glyph glyph-name="ccedilla" unicode="&#xe7;" horiz-adv-x="1079" 
d="M1038 242q-66 -110 -171.5 -178t-258.5 -76l-47 -86q37 0 68.5 -12t55 -33t37 -51t13.5 -66q0 -35 -13.5 -66t-37 -53.5t-55 -35.5t-68.5 -13q-38 0 -70 10.5t-56 31t-39 50t-19 68.5h92q6 -41 30.5 -58.5t61.5 -17.5q38 0 63 23.5t25 60.5q0 34 -25.5 57t-68.5 23h-135
l92 168q-102 10 -187 54t-145.5 114.5t-94.5 162.5t-34 197q0 111 38.5 206.5t107 166t163 111t207.5 40.5q88 0 160 -18.5t129.5 -52t102 -81.5t79.5 -106l-77 -53q-30 49 -67.5 88.5t-85 67t-107 42.5t-134.5 15q-93 0 -169.5 -33t-131 -90.5t-84.5 -135.5t-30 -169
t30.5 -169.5t85.5 -136.5t131.5 -91t169.5 -33q75 0 134 14.5t106.5 42t84.5 66.5t67 88z" />
    <glyph glyph-name="ccircumflex" unicode="&#x109;" horiz-adv-x="1079" 
d="M827 1157l-258 158l-258 -158v103l258 163l258 -163v-103zM1038 242q-35 -59 -81.5 -106t-104.5 -80.5t-129 -51.5t-156 -18q-113 0 -207.5 41t-163 112t-107 168t-38.5 209q0 111 38.5 206.5t107 166t163 111t207.5 40.5q88 0 160 -18.5t129.5 -52t102 -81.5t79.5 -106
l-77 -53q-30 49 -67.5 88.5t-85 67t-107 42.5t-134.5 15q-93 0 -169.5 -33t-131 -90.5t-84.5 -135.5t-30 -169t30.5 -169.5t85.5 -136.5t131.5 -91t169.5 -33q75 0 134 14.5t106.5 42t84.5 66.5t67 88z" />
    <glyph glyph-name="cdotaccent" unicode="&#x10b;" horiz-adv-x="1079" 
d="M618 1296h-98v107h98v-107zM1038 242q-35 -59 -81.5 -106t-104.5 -80.5t-129 -51.5t-156 -18q-113 0 -207.5 41t-163 112t-107 168t-38.5 209q0 111 38.5 206.5t107 166t163 111t207.5 40.5q88 0 160 -18.5t129.5 -52t102 -81.5t79.5 -106l-77 -53q-30 49 -67.5 88.5
t-85 67t-107 42.5t-134.5 15q-93 0 -169.5 -33t-131 -90.5t-84.5 -135.5t-30 -169t30.5 -169.5t85.5 -136.5t131.5 -91t169.5 -33q75 0 134 14.5t106.5 42t84.5 66.5t67 88z" />
    <glyph glyph-name="d" unicode="d" horiz-adv-x="1204" 
d="M1102 0h-101v204l-13 -20t-34 -41t-57 -51.5t-81 -51t-107.5 -39t-135.5 -15.5q-110 0 -205 40.5t-165.5 111.5t-111 167.5t-40.5 208.5q0 111 40.5 207.5t111 167t165.5 111t205 40.5q58 0 107 -9.5t89.5 -25t73.5 -35t59 -40.5q60 -48 99 -109v582h101v-1403zM580 82
q90 0 168.5 33t136 90.5t90.5 136t33 170.5t-33 171t-90.5 137t-136 91t-168.5 33q-92 0 -170.5 -33t-135.5 -91.5t-89.5 -137.5t-32.5 -170t32.5 -169.5t89.5 -136.5t135.5 -91t170.5 -33z" />
    <glyph glyph-name="eth" unicode="&#xf0;" horiz-adv-x="1147" 
d="M1012 797q40 -65 62 -137t22 -152q0 -110 -40.5 -205.5t-111 -166.5t-166 -111.5t-205.5 -40.5t-205 40.5t-165.5 111.5t-111 166.5t-40.5 205.5t40.5 205.5t111 166.5t165.5 111.5t205 40.5q48 0 87.5 -8t67.5 -17q33 -11 58 -24l-116 191l-217 -50v88l170 39l-95 152
h111l80 -129l244 55v-88l-197 -45zM573 78q89 0 166.5 33t134.5 91t90 136.5t33 169.5t-33.5 169.5t-91 136.5t-134.5 91t-165 33q-89 0 -166 -33t-134 -91t-90 -136.5t-33 -169.5t33 -169.5t90 -136.5t134 -91t166 -33z" />
    <glyph glyph-name="dcaron" unicode="&#x10f;" horiz-adv-x="1360" 
d="M1102 0h-101v204l-13 -20t-34 -41t-57 -51.5t-81 -51t-107.5 -39t-135.5 -15.5q-110 0 -205 40.5t-165.5 111.5t-111 167.5t-40.5 208.5q0 111 40.5 207.5t111 167t165.5 111t205 40.5q58 0 107 -9.5t89.5 -25t73.5 -35t59 -40.5q60 -48 99 -109v582h101v-1403zM580 82
q90 0 168.5 33t136 90.5t90.5 136t33 170.5t-33 171t-90.5 137t-136 91t-168.5 33q-92 0 -170.5 -33t-135.5 -91.5t-89.5 -137.5t-32.5 -170t32.5 -169.5t89.5 -136.5t135.5 -91t170.5 -33zM1290 1137h-55l35 147h-43v119h102v-111z" />
    <glyph glyph-name="dcroat" unicode="&#x111;" horiz-adv-x="1210" 
d="M1102 0h-101v204l-13 -20t-34 -41t-57 -51.5t-81 -51t-107.5 -39t-135.5 -15.5q-110 0 -205 40.5t-165.5 111.5t-111 167.5t-40.5 208.5q0 111 40.5 207.5t111 167t165.5 111t205 40.5q58 0 107 -9.5t89.5 -25t73.5 -35t59 -40.5q60 -48 99 -109v314h-348v94h348v174h101
v-174h108v-94h-108v-1135zM580 82q90 0 168.5 33t136 90.5t90.5 136t33 170.5t-33 171t-90.5 137t-136 91t-168.5 33q-92 0 -170.5 -33t-135.5 -91.5t-89.5 -137.5t-32.5 -170t32.5 -169.5t89.5 -136.5t135.5 -91t170.5 -33z" />
    <glyph glyph-name="e" unicode="e" horiz-adv-x="1145" 
d="M1057 242q-35 -59 -81 -106t-104.5 -80.5t-130 -51.5t-157.5 -18q-116 0 -214 40.5t-169 111.5t-110.5 167.5t-39.5 208.5q0 111 40 207.5t110 167t166 111t208 40.5q115 0 210.5 -40.5t164 -109t106.5 -158t38 -187.5q0 -13 -0.5 -24.5t-1.5 -21.5l-2 -22h-934
q5 -84 38.5 -156t89.5 -124.5t132 -82.5t168 -30q76 0 136 14.5t107.5 42t84.5 66.5t67 88zM989 569q-6 78 -39 146.5t-87.5 119.5t-128 80t-159.5 29q-84 0 -156.5 -28.5t-127.5 -78.5t-89.5 -118.5t-43.5 -149.5h831z" />
    <glyph glyph-name="eacute" unicode="&#xe9;" horiz-adv-x="1145" 
d="M770 1329l-393 -121v92l393 132v-103zM1057 242q-35 -59 -81 -106t-104.5 -80.5t-130 -51.5t-157.5 -18q-116 0 -214 40.5t-169 111.5t-110.5 167.5t-39.5 208.5q0 111 40 207.5t110 167t166 111t208 40.5q115 0 210.5 -40.5t164 -109t106.5 -158t38 -187.5
q0 -13 -0.5 -24.5t-1.5 -21.5l-2 -22h-934q5 -84 38.5 -156t89.5 -124.5t132 -82.5t168 -30q76 0 136 14.5t107.5 42t84.5 66.5t67 88zM989 569q-6 78 -39 146.5t-87.5 119.5t-128 80t-159.5 29q-84 0 -156.5 -28.5t-127.5 -78.5t-89.5 -118.5t-43.5 -149.5h831z" />
    <glyph glyph-name="ebreve" unicode="&#x115;" horiz-adv-x="1145" 
d="M846 1309q-26 -35 -65 -62q-33 -23 -84.5 -42t-123.5 -19q-71 0 -122.5 19t-84.5 42q-40 27 -65 62v94q33 -35 75 -62q36 -23 85.5 -42t111.5 -19q63 0 113 19t86 42q41 27 74 62v-94zM1057 242q-35 -59 -81 -106t-104.5 -80.5t-130 -51.5t-157.5 -18q-116 0 -214 40.5
t-169 111.5t-110.5 167.5t-39.5 208.5q0 111 40 207.5t110 167t166 111t208 40.5q115 0 210.5 -40.5t164 -109t106.5 -158t38 -187.5q0 -13 -0.5 -24.5t-1.5 -21.5l-2 -22h-934q5 -84 38.5 -156t89.5 -124.5t132 -82.5t168 -30q76 0 136 14.5t107.5 42t84.5 66.5t67 88z
M989 569q-6 78 -39 146.5t-87.5 119.5t-128 80t-159.5 29q-84 0 -156.5 -28.5t-127.5 -78.5t-89.5 -118.5t-43.5 -149.5h831z" />
    <glyph glyph-name="ecaron" unicode="&#x11b;" horiz-adv-x="1145" 
d="M831 1309l-258 -164l-258 164v102l258 -158l258 158v-102zM1057 242q-35 -59 -81 -106t-104.5 -80.5t-130 -51.5t-157.5 -18q-116 0 -214 40.5t-169 111.5t-110.5 167.5t-39.5 208.5q0 111 40 207.5t110 167t166 111t208 40.5q115 0 210.5 -40.5t164 -109t106.5 -158
t38 -187.5q0 -13 -0.5 -24.5t-1.5 -21.5l-2 -22h-934q5 -84 38.5 -156t89.5 -124.5t132 -82.5t168 -30q76 0 136 14.5t107.5 42t84.5 66.5t67 88zM989 569q-6 78 -39 146.5t-87.5 119.5t-128 80t-159.5 29q-84 0 -156.5 -28.5t-127.5 -78.5t-89.5 -118.5t-43.5 -149.5h831z
" />
    <glyph glyph-name="ecircumflex" unicode="&#xea;" horiz-adv-x="1145" 
d="M831 1157l-258 158l-258 -158v103l258 163l258 -163v-103zM1057 242q-35 -59 -81 -106t-104.5 -80.5t-130 -51.5t-157.5 -18q-116 0 -214 40.5t-169 111.5t-110.5 167.5t-39.5 208.5q0 111 40 207.5t110 167t166 111t208 40.5q115 0 210.5 -40.5t164 -109t106.5 -158
t38 -187.5q0 -13 -0.5 -24.5t-1.5 -21.5l-2 -22h-934q5 -84 38.5 -156t89.5 -124.5t132 -82.5t168 -30q76 0 136 14.5t107.5 42t84.5 66.5t67 88zM989 569q-6 78 -39 146.5t-87.5 119.5t-128 80t-159.5 29q-84 0 -156.5 -28.5t-127.5 -78.5t-89.5 -118.5t-43.5 -149.5h831z
" />
    <glyph glyph-name="edieresis" unicode="&#xeb;" horiz-adv-x="1145" 
d="M477 1296h-98v107h98v-107zM768 1296h-98v107h98v-107zM1057 242q-35 -59 -81 -106t-104.5 -80.5t-130 -51.5t-157.5 -18q-116 0 -214 40.5t-169 111.5t-110.5 167.5t-39.5 208.5q0 111 40 207.5t110 167t166 111t208 40.5q115 0 210.5 -40.5t164 -109t106.5 -158
t38 -187.5q0 -13 -0.5 -24.5t-1.5 -21.5l-2 -22h-934q5 -84 38.5 -156t89.5 -124.5t132 -82.5t168 -30q76 0 136 14.5t107.5 42t84.5 66.5t67 88zM989 569q-6 78 -39 146.5t-87.5 119.5t-128 80t-159.5 29q-84 0 -156.5 -28.5t-127.5 -78.5t-89.5 -118.5t-43.5 -149.5h831z
" />
    <glyph glyph-name="edotaccent" unicode="&#x117;" horiz-adv-x="1145" 
d="M623 1296h-99v107h99v-107zM1057 242q-35 -59 -81 -106t-104.5 -80.5t-130 -51.5t-157.5 -18q-116 0 -214 40.5t-169 111.5t-110.5 167.5t-39.5 208.5q0 111 40 207.5t110 167t166 111t208 40.5q115 0 210.5 -40.5t164 -109t106.5 -158t38 -187.5q0 -13 -0.5 -24.5
t-1.5 -21.5l-2 -22h-934q5 -84 38.5 -156t89.5 -124.5t132 -82.5t168 -30q76 0 136 14.5t107.5 42t84.5 66.5t67 88zM989 569q-6 78 -39 146.5t-87.5 119.5t-128 80t-159.5 29q-84 0 -156.5 -28.5t-127.5 -78.5t-89.5 -118.5t-43.5 -149.5h831z" />
    <glyph glyph-name="egrave" unicode="&#xe8;" horiz-adv-x="1145" 
d="M770 1208l-393 121v103l393 -132v-92zM1057 242q-35 -59 -81 -106t-104.5 -80.5t-130 -51.5t-157.5 -18q-116 0 -214 40.5t-169 111.5t-110.5 167.5t-39.5 208.5q0 111 40 207.5t110 167t166 111t208 40.5q115 0 210.5 -40.5t164 -109t106.5 -158t38 -187.5
q0 -13 -0.5 -24.5t-1.5 -21.5l-2 -22h-934q5 -84 38.5 -156t89.5 -124.5t132 -82.5t168 -30q76 0 136 14.5t107.5 42t84.5 66.5t67 88zM989 569q-6 78 -39 146.5t-87.5 119.5t-128 80t-159.5 29q-84 0 -156.5 -28.5t-127.5 -78.5t-89.5 -118.5t-43.5 -149.5h831z" />
    <glyph glyph-name="emacron" unicode="&#x113;" horiz-adv-x="1145" 
d="M831 1264h-516v90h516v-90zM1057 242q-35 -59 -81 -106t-104.5 -80.5t-130 -51.5t-157.5 -18q-116 0 -214 40.5t-169 111.5t-110.5 167.5t-39.5 208.5q0 111 40 207.5t110 167t166 111t208 40.5q115 0 210.5 -40.5t164 -109t106.5 -158t38 -187.5q0 -13 -0.5 -24.5
t-1.5 -21.5l-2 -22h-934q5 -84 38.5 -156t89.5 -124.5t132 -82.5t168 -30q76 0 136 14.5t107.5 42t84.5 66.5t67 88zM989 569q-6 78 -39 146.5t-87.5 119.5t-128 80t-159.5 29q-84 0 -156.5 -28.5t-127.5 -78.5t-89.5 -118.5t-43.5 -149.5h831z" />
    <glyph glyph-name="eogonek" unicode="&#x119;" horiz-adv-x="1145" 
d="M954 -264q-16 -11 -37 -20q-18 -8 -44.5 -13.5t-61.5 -5.5q-45 0 -82 11t-64 32t-42 51.5t-15 69.5q0 37 14 70t35 59q-17 -2 -35 -3t-38 -1q-116 0 -214 40.5t-169 111.5t-110.5 167.5t-39.5 208.5q0 111 40 207.5t110 167t166 111t208 40.5q115 0 210.5 -40.5t164 -109
t106.5 -158t38 -187.5q0 -13 -0.5 -24.5t-1.5 -21.5l-2 -22h-934q5 -84 38.5 -156t89.5 -124.5t132 -82.5t168 -30q76 0 136 14.5t107.5 42t84.5 66.5t67 88l78 -53q-34 -57 -78.5 -104t-101.5 -81l-7 -2l-27.5 -15t-29.5 -13q-49 -29 -73.5 -69t-24.5 -85q0 -42 29.5 -65
t80.5 -23q29 0 53 5t41 11q19 7 35 17v-82zM989 569q-6 78 -39 146.5t-87.5 119.5t-128 80t-159.5 29q-84 0 -156.5 -28.5t-127.5 -78.5t-89.5 -118.5t-43.5 -149.5h831z" />
    <glyph glyph-name="f" unicode="f" horiz-adv-x="618" 
d="M303 0h-98v934h-154v90h154v68q0 87 26 146.5t68 96t94 52.5t105 16h67v-96h-65q-35 0 -70 -9.5t-63 -33.5t-46 -66t-18 -106v-68h264v-90h-264v-934z" />
    <glyph glyph-name="g" unicode="g" horiz-adv-x="1192" 
d="M1090 80q0 -96 -34 -180t-98.5 -146.5t-159 -98.5t-214.5 -36q-86 0 -157.5 18t-130 51.5t-104.5 80.5t-81 106l77 53q30 -49 67 -88t85 -66.5t108 -42t136 -14.5q94 0 169 23t127.5 68.5t80.5 113.5t28 158v144l-13 -20t-33.5 -41t-56 -51.5t-80 -51t-106 -39
t-133.5 -15.5q-108 0 -202 39.5t-164 109.5t-110 164.5t-40 204.5q0 109 40 203.5t110 164t164 109t202 39.5q74 0 133.5 -15.5t106 -38.5t80 -50.5t56 -51.5t33.5 -41l13 -20v201h101v-944zM995 522q0 92 -32.5 169.5t-89.5 133.5t-134 87.5t-166 31.5q-90 0 -167.5 -32.5
t-133.5 -89.5t-88 -134t-32 -166q0 -88 32 -164.5t88 -133.5t133.5 -89.5t167.5 -32.5q89 0 166 31.5t134 87.5t89.5 133t32.5 168z" />
    <glyph glyph-name="gbreve" unicode="&#x11f;" horiz-adv-x="1192" 
d="M1090 80q0 -96 -34 -180t-98.5 -146.5t-159 -98.5t-214.5 -36q-86 0 -157.5 18t-130 51.5t-104.5 80.5t-81 106l77 53q30 -49 67 -88t85 -66.5t108 -42t136 -14.5q94 0 169 23t127.5 68.5t80.5 113.5t28 158v144l-13 -20t-33.5 -41t-56 -51.5t-80 -51t-106 -39
t-133.5 -15.5q-108 0 -202 39.5t-164 109.5t-110 164.5t-40 204.5q0 109 40 203.5t110 164t164 109t202 39.5q74 0 133.5 -15.5t106 -38.5t80 -50.5t56 -51.5t33.5 -41l13 -20v201h101v-944zM995 522q0 92 -32.5 169.5t-89.5 133.5t-134 87.5t-166 31.5q-90 0 -167.5 -32.5
t-133.5 -89.5t-88 -134t-32 -166q0 -88 32 -164.5t88 -133.5t133.5 -89.5t167.5 -32.5q89 0 166 31.5t134 87.5t89.5 133t32.5 168zM874 1309q-25 -35 -64 -62q-33 -23 -84.5 -42t-123.5 -19q-71 0 -122.5 19t-84.5 42q-40 27 -65 62v94q32 -35 74 -62q35 -23 85.5 -42
t112.5 -19q63 0 113 19t85 42q41 27 74 62v-94z" />
    <glyph glyph-name="gcircumflex" unicode="&#x11d;" horiz-adv-x="1192" 
d="M1090 80q0 -96 -34 -180t-98.5 -146.5t-159 -98.5t-214.5 -36q-86 0 -157.5 18t-130 51.5t-104.5 80.5t-81 106l77 53q30 -49 67 -88t85 -66.5t108 -42t136 -14.5q94 0 169 23t127.5 68.5t80.5 113.5t28 158v144l-13 -20t-33.5 -41t-56 -51.5t-80 -51t-106 -39
t-133.5 -15.5q-108 0 -202 39.5t-164 109.5t-110 164.5t-40 204.5q0 109 40 203.5t110 164t164 109t202 39.5q57 0 105 -9.5t88.5 -25t73 -35t58.5 -39.5q60 -48 97 -108v201h101v-944zM995 522q0 92 -32.5 169.5t-89.5 133.5t-134 87.5t-166 31.5q-90 0 -167.5 -32.5
t-133.5 -89.5t-88 -134t-32 -166q0 -88 32 -164.5t88 -133.5t133.5 -89.5t167.5 -32.5q89 0 166 31.5t134 87.5t89.5 133t32.5 168zM860 1157l-258 158l-258 -158v103l258 163l258 -163v-103z" />
    <glyph glyph-name="gcommaaccent" unicode="&#x123;" horiz-adv-x="1192" 
d="M1090 80q0 -96 -34 -180t-98.5 -146.5t-159 -98.5t-214.5 -36q-86 0 -157.5 18t-130 51.5t-104.5 80.5t-81 106l77 53q30 -49 67 -88t85 -66.5t108 -42t136 -14.5q94 0 169 23t127.5 68.5t80.5 113.5t28 158v144l-13 -20t-33.5 -41t-56 -51.5t-80 -51t-106 -39
t-133.5 -15.5q-108 0 -202 39.5t-164 109.5t-110 164.5t-40 204.5q0 109 40 203.5t110 164t164 109t202 39.5q74 0 133.5 -15.5t106 -38.5t80 -50.5t56 -51.5t33.5 -41l13 -20v201h101v-944zM995 522q0 92 -32.5 169.5t-89.5 133.5t-134 87.5t-166 31.5q-90 0 -167.5 -32.5
t-133.5 -89.5t-88 -134t-32 -166q0 -88 32 -164.5t88 -133.5t133.5 -89.5t167.5 -32.5q89 0 166 31.5t134 87.5t89.5 133t32.5 168zM637 1235h-102v111l38 155h56l-35 -147h43v-119z" />
    <glyph glyph-name="gdotaccent" unicode="&#x121;" horiz-adv-x="1192" 
d="M1090 80q0 -96 -34 -180t-98.5 -146.5t-159 -98.5t-214.5 -36q-86 0 -157.5 18t-130 51.5t-104.5 80.5t-81 106l77 53q30 -49 67 -88t85 -66.5t108 -42t136 -14.5q94 0 169 23t127.5 68.5t80.5 113.5t28 158v144l-13 -20t-33.5 -41t-56 -51.5t-80 -51t-106 -39
t-133.5 -15.5q-108 0 -202 39.5t-164 109.5t-110 164.5t-40 204.5q0 109 40 203.5t110 164t164 109t202 39.5q74 0 133.5 -15.5t106 -38.5t80 -50.5t56 -51.5t33.5 -41l13 -20v201h101v-944zM995 522q0 92 -32.5 169.5t-89.5 133.5t-134 87.5t-166 31.5q-90 0 -167.5 -32.5
t-133.5 -89.5t-88 -134t-32 -166q0 -88 32 -164.5t88 -133.5t133.5 -89.5t167.5 -32.5q89 0 166 31.5t134 87.5t89.5 133t32.5 168zM651 1296h-98v107h98v-107z" />
    <glyph glyph-name="h" unicode="h" 
d="M942 0h-100v614q0 78 -21 139t-60.5 103.5t-96.5 65t-129 22.5q-75 0 -136.5 -24.5t-105 -71t-67 -112.5t-23.5 -150v-586h-101v1403h101v-535q1 2 9.5 15.5t26 32.5t44 41t64.5 40.5t87 30.5t111 12q90 0 163 -29t125 -83t80.5 -130.5t28.5 -170.5v-627z" />
    <glyph glyph-name="hbar" unicode="&#x127;" 
d="M942 0h-100v614q0 78 -21 139t-60.5 103.5t-96.5 65t-129 22.5q-75 0 -136.5 -24.5t-105 -71t-67 -112.5t-23.5 -150v-586h-101v1135h-102v94h102v174h101v-174h354v-94h-354v-267q1 2 9.5 15.5t26 32.5t44 41t64.5 40.5t87 30.5t111 12q90 0 163 -29t125 -83
t80.5 -130.5t28.5 -170.5v-627z" />
    <glyph glyph-name="hcircumflex" unicode="&#x125;" 
d="M942 0h-100v614q0 78 -21 139t-60.5 103.5t-96.5 65t-129 22.5q-75 0 -136.5 -24.5t-105 -71t-67 -112.5t-23.5 -150v-586h-101v1403h101v-535q1 2 9.5 15.5t26 32.5t44 41t64.5 40.5t87 30.5t111 12q90 0 163 -29t125 -83t80.5 -130.5t28.5 -170.5v-627zM885 1157
l-258 158l-258 -158v103l258 163l258 -163v-103z" />
    <glyph glyph-name="i" unicode="i" horiz-adv-x="305" 
d="M203 1294h-101v109h101v-109zM203 0h-101v1024h101v-1024z" />
    <glyph glyph-name="dotlessi" unicode="&#x131;" horiz-adv-x="305" 
d="M203 0h-101v1024h101v-1024z" />
    <glyph glyph-name="iacute" unicode="&#xed;" horiz-adv-x="305" 
d="M350 1329l-393 -121v92l393 132v-103zM203 0h-101v1024h101v-1024z" />
    <glyph glyph-name="ibreve" unicode="&#x12d;" horiz-adv-x="305" 
d="M426 1309q-26 -35 -65 -62q-33 -23 -84 -42t-123 -19t-122.5 19t-84.5 42q-40 27 -66 62v94q33 -35 75 -62q36 -23 86 -42t112 -19t112.5 19t85.5 42q41 27 74 62v-94zM203 0h-101v1024h101v-1024z" />
    <glyph glyph-name="icircumflex" unicode="&#xee;" horiz-adv-x="305" 
d="M412 1157l-258 158l-258 -158v103l258 163l258 -163v-103zM203 0h-101v1024h101v-1024z" />
    <glyph glyph-name="idieresis" unicode="&#xef;" horiz-adv-x="305" 
d="M57 1296h-98v107h98v-107zM348 1296h-98v107h98v-107zM203 0h-101v1024h101v-1024z" />
    <glyph glyph-name="igrave" unicode="&#xec;" horiz-adv-x="305" 
d="M350 1208l-393 121v103l393 -132v-92zM203 0h-101v1024h101v-1024z" />
    <glyph glyph-name="ij" unicode="&#x133;" horiz-adv-x="610" 
d="M203 1294h-101v109h101v-109zM508 1294h-100v109h100v-109zM203 0h-101v1024h101v-1024zM508 -43q0 -87 -26 -146.5t-67 -96t-91.5 -52.5t-100.5 -16v96q33 0 66 9.5t59.5 33.5t43 65.5t16.5 106.5v1067h100v-1067z" />
    <glyph glyph-name="imacron" unicode="&#x12b;" horiz-adv-x="305" 
d="M412 1264h-516v90h516v-90zM203 0h-101v1024h101v-1024z" />
    <glyph glyph-name="iogonek" unicode="&#x12f;" horiz-adv-x="305" 
d="M203 1294h-101v109h101v-109zM276 -322q-16 -11 -37 -19q-18 -8 -44.5 -13.5t-61.5 -5.5q-45 0 -82 11t-64 32t-42 51.5t-15 68.5q0 37 13 69.5t35.5 58t52 44t61.5 27.5l10 2v1020h101v-1024h-4q-81 -29 -121.5 -78t-40.5 -106q0 -42 29.5 -65t80.5 -23q29 0 53 5t41 11
q19 7 35 16v-82z" />
    <glyph glyph-name="itilde" unicode="&#x129;" horiz-adv-x="305" 
d="M440 1276q-17 -26 -41 -45q-20 -17 -50 -31t-68 -14q-42 0 -76 12t-65 27t-61.5 27t-64.5 12t-61 -12.5t-46 -26.5q-23 -18 -40 -39v86q17 25 41 44q20 17 50 30.5t69 13.5q41 0 74.5 -12t64.5 -26t61.5 -26t65.5 -12q34 0 60.5 12t46.5 27q22 17 40 39v-86zM203 0h-101
v1024h101v-1024z" />
    <glyph glyph-name="j" unicode="j" horiz-adv-x="305" 
d="M203 1294h-101v109h101v-109zM203 -43q0 -87 -26 -146.5t-67 -96t-91.5 -52.5t-100.5 -16v96q33 0 66 9.5t59 33.5t42.5 65.5t16.5 106.5v1067h101v-1067z" />
    <glyph glyph-name="dotlessj" unicode="&#x237;" horiz-adv-x="305" 
d="M203 -43q0 -87 -26 -146.5t-67 -96t-91.5 -52.5t-100.5 -16v96q33 0 66 9.5t59 33.5t42.5 65.5t16.5 106.5v1067h101v-1067z" />
    <glyph glyph-name="jcircumflex" unicode="&#x135;" horiz-adv-x="305" 
d="M391 1157l-258 158l-258 -158v103l258 163l258 -163v-103zM203 -43q0 -87 -26 -146.5t-67 -96t-91.5 -52.5t-100.5 -16v96q33 0 66 9.5t59 33.5t42.5 65.5t16.5 106.5v1067h101v-1067z" />
    <glyph glyph-name="k" unicode="k" horiz-adv-x="918" 
d="M866 0h-116l-340 539l-207 -222v-317h-101v1403h101v-954l522 575h129l-371 -408z" />
    <glyph glyph-name="kcommaaccent" unicode="&#x137;" horiz-adv-x="918" 
d="M866 0h-116l-340 539l-207 -222v-317h-101v1403h101v-954l522 575h129l-371 -408zM481 -395h-55l35 147h-43v119h102v-111z" />
    <glyph glyph-name="kgreenlandic" unicode="&#x138;" horiz-adv-x="918" 
d="M866 0h-116l-340 539l-207 -222v-317h-101v1024h101v-575l522 575h129l-371 -408z" />
    <glyph glyph-name="l" unicode="l" horiz-adv-x="305" 
d="M203 0h-101v1403h101v-1403z" />
    <glyph glyph-name="lacute" unicode="&#x13a;" horiz-adv-x="305" 
d="M350 1645l-393 -121v92l393 131v-102zM203 0h-101v1403h101v-1403z" />
    <glyph glyph-name="lcaron" unicode="&#x13e;" horiz-adv-x="442" 
d="M203 0h-101v1403h101v-1403zM373 1137h-56l35 147h-43v119h103v-111z" />
    <glyph glyph-name="lcommaaccent" unicode="&#x13c;" horiz-adv-x="305" 
d="M203 0h-101v1403h101v-1403zM168 -395h-55l34 147h-43v119h103v-111z" />
    <glyph glyph-name="ldot" unicode="&#x140;" horiz-adv-x="440" 
d="M203 0h-101v1403h101v-1403zM377 500h-98v118h98v-118z" />
    <glyph glyph-name="lslash" unicode="&#x142;" horiz-adv-x="305" 
d="M203 0h-101v727l-73 -51v102l73 51v574h101v-502l73 51v-102l-73 -51v-799z" />
    <glyph glyph-name="m" unicode="m" horiz-adv-x="1683" 
d="M1591 0h-100v635q0 73 -19.5 130t-56 97t-89 61t-118.5 21q-69 0 -126 -22t-98.5 -63t-64 -100.5t-22.5 -135.5v-623h-100v635q0 73 -19.5 130t-56 97t-89 61t-118.5 21q-71 0 -128 -23t-98 -66t-63 -105.5t-22 -141.5v-608h-101v1024h101v-150q1 2 9 15t24 31.5
t41.5 39.5t60.5 39t81.5 29.5t104.5 11.5q119 0 206 -54.5t130 -151.5q12 23 37 58t68 68t105.5 56.5t148.5 23.5q84 0 153 -28t117.5 -80t75 -125t26.5 -164v-643z" />
    <glyph glyph-name="n" unicode="n" 
d="M942 0h-100v614q0 78 -21 139t-60.5 103.5t-96.5 65t-129 22.5q-75 0 -136.5 -24.5t-105 -71t-67 -112.5t-23.5 -150v-586h-101v1024h101v-156q1 2 9.5 15.5t26 32.5t44 41t64.5 40.5t87 30.5t111 12q90 0 163 -29t125 -83t80.5 -130.5t28.5 -170.5v-627z" />
    <glyph glyph-name="nacute" unicode="&#x144;" 
d="M942 0h-100v614q0 78 -21 139t-60.5 103.5t-96.5 65t-129 22.5q-75 0 -136.5 -24.5t-105 -71t-67 -112.5t-23.5 -150v-586h-101v1024h101v-156q1 2 9.5 15.5t26 32.5t44 41t64.5 40.5t87 30.5t111 12q90 0 163 -29t125 -83t80.5 -130.5t28.5 -170.5v-627zM719 1329
l-393 -121v92l393 132v-103z" />
    <glyph glyph-name="napostrophe" unicode="&#x149;" horiz-adv-x="1075" 
d="M983 0h-100v614q0 78 -21 139t-60.5 103.5t-97 65t-129.5 22.5q-75 0 -136 -24.5t-104.5 -71t-67 -112.5t-23.5 -150v-586h-101v1024h101v-156q1 2 9.5 15.5t26 32.5t44 41t64.5 40.5t87 30.5t111 12q90 0 163 -29t125 -83t80.5 -130.5t28.5 -170.5v-627zM94 1137h-55
l35 147h-43v119h102v-111z" />
    <glyph glyph-name="ncaron" unicode="&#x148;" 
d="M942 0h-100v614q0 78 -21 139t-60.5 103.5t-96.5 65t-129 22.5q-75 0 -136.5 -24.5t-105 -71t-67 -112.5t-23.5 -150v-586h-101v1024h101v-156q1 2 9.5 15.5t26 32.5t44 41t64.5 40.5t87 30.5t111 12q90 0 163 -29t125 -83t80.5 -130.5t28.5 -170.5v-627zM780 1309
l-258 -164l-258 164v102l258 -158l258 158v-102z" />
    <glyph glyph-name="ncommaaccent" unicode="&#x146;" 
d="M942 0h-100v614q0 78 -21 139t-60.5 103.5t-96.5 65t-129 22.5q-75 0 -136.5 -24.5t-105 -71t-67 -112.5t-23.5 -150v-586h-101v1024h101v-156q1 2 9.5 15.5t26 32.5t44 41t64.5 40.5t87 30.5t111 12q90 0 163 -29t125 -83t80.5 -130.5t28.5 -170.5v-627zM537 -395h-56
l35 147h-43v119h102v-111z" />
    <glyph glyph-name="eng" unicode="&#x14b;" 
d="M942 -43q0 -87 -25.5 -146.5t-66.5 -96t-92 -52.5t-101 -16v96q33 0 66 9.5t59.5 33.5t43 65.5t16.5 106.5v657q0 78 -21 139t-60.5 103.5t-96.5 65t-129 22.5q-75 0 -136.5 -24.5t-105 -71t-67 -112.5t-23.5 -150v-586h-101v1024h101v-156q1 2 9.5 15.5t26 32.5t44 41
t64.5 40.5t87 30.5t111 12q90 0 163 -29t125 -83t80.5 -130.5t28.5 -170.5v-670z" />
    <glyph glyph-name="ntilde" unicode="&#xf1;" 
d="M942 0h-100v614q0 78 -21 139t-60.5 103.5t-96.5 65t-129 22.5q-75 0 -136.5 -24.5t-105 -71t-67 -112.5t-23.5 -150v-586h-101v1024h101v-156q1 2 9.5 15.5t26 32.5t44 41t64.5 40.5t87 30.5t111 12q90 0 163 -29t125 -83t80.5 -130.5t28.5 -170.5v-627zM809 1276
q-17 -26 -41 -45q-20 -17 -50.5 -31t-68.5 -14q-41 0 -75 12t-65 27t-61.5 27t-64.5 12t-61 -12.5t-46 -26.5q-23 -18 -40 -39v86q17 25 41 44q20 17 50 30.5t68 13.5q42 0 75.5 -12t64 -26t61 -26t66.5 -12q34 0 60.5 12t46.5 27q22 17 40 39v-86z" />
    <glyph glyph-name="o" unicode="o" horiz-adv-x="1157" 
d="M580 -14q-112 0 -208.5 40.5t-168 111.5t-112 167.5t-40.5 208.5q0 111 40.5 207.5t112 167t168 111t208.5 40.5q111 0 207.5 -40.5t167 -111t111 -167t40.5 -207.5q0 -112 -40.5 -208.5t-111 -167.5t-167 -111.5t-207.5 -40.5zM580 82q91 0 169 33t135 91t89.5 136.5
t32.5 169.5t-32.5 170t-89.5 137.5t-135 91.5t-169 33q-92 0 -170.5 -33t-135.5 -91.5t-89.5 -137.5t-32.5 -170t32.5 -169.5t89.5 -136.5t135.5 -91t170.5 -33z" />
    <glyph glyph-name="oacute" unicode="&#xf3;" horiz-adv-x="1157" 
d="M776 1329l-393 -121v92l393 132v-103zM580 -14q-112 0 -208.5 40.5t-168 111.5t-112 167.5t-40.5 208.5q0 111 40.5 207.5t112 167t168 111t208.5 40.5q111 0 207.5 -40.5t167 -111t111 -167t40.5 -207.5q0 -112 -40.5 -208.5t-111 -167.5t-167 -111.5t-207.5 -40.5z
M580 82q91 0 169 33t135 91t89.5 136.5t32.5 169.5t-32.5 170t-89.5 137.5t-135 91.5t-169 33q-92 0 -170.5 -33t-135.5 -91.5t-89.5 -137.5t-32.5 -170t32.5 -169.5t89.5 -136.5t135.5 -91t170.5 -33z" />
    <glyph glyph-name="obreve" unicode="&#x14f;" horiz-adv-x="1157" 
d="M852 1309q-26 -35 -65 -62q-33 -23 -84 -42t-123 -19t-122.5 19t-84.5 42q-40 27 -66 62v94q33 -35 75 -62q36 -23 86 -42t112 -19t112.5 19t85.5 42q41 27 74 62v-94zM580 -14q-112 0 -208.5 40.5t-168 111.5t-112 167.5t-40.5 208.5q0 111 40.5 207.5t112 167t168 111
t208.5 40.5q111 0 207.5 -40.5t167 -111t111 -167t40.5 -207.5q0 -112 -40.5 -208.5t-111 -167.5t-167 -111.5t-207.5 -40.5zM580 82q91 0 169 33t135 91t89.5 136.5t32.5 169.5t-32.5 170t-89.5 137.5t-135 91.5t-169 33q-92 0 -170.5 -33t-135.5 -91.5t-89.5 -137.5
t-32.5 -170t32.5 -169.5t89.5 -136.5t135.5 -91t170.5 -33z" />
    <glyph glyph-name="ocircumflex" unicode="&#xf4;" horiz-adv-x="1157" 
d="M838 1157l-258 158l-258 -158v103l258 163l258 -163v-103zM580 -14q-112 0 -208.5 40.5t-168 111.5t-112 167.5t-40.5 208.5q0 111 40.5 207.5t112 167t168 111t208.5 40.5q111 0 207.5 -40.5t167 -111t111 -167t40.5 -207.5q0 -112 -40.5 -208.5t-111 -167.5
t-167 -111.5t-207.5 -40.5zM580 82q91 0 169 33t135 91t89.5 136.5t32.5 169.5t-32.5 170t-89.5 137.5t-135 91.5t-169 33q-92 0 -170.5 -33t-135.5 -91.5t-89.5 -137.5t-32.5 -170t32.5 -169.5t89.5 -136.5t135.5 -91t170.5 -33z" />
    <glyph glyph-name="odieresis" unicode="&#xf6;" horiz-adv-x="1157" 
d="M483 1296h-98v107h98v-107zM774 1296h-98v107h98v-107zM580 -14q-112 0 -208.5 40.5t-168 111.5t-112 167.5t-40.5 208.5q0 111 40.5 207.5t112 167t168 111t208.5 40.5q111 0 207.5 -40.5t167 -111t111 -167t40.5 -207.5q0 -112 -40.5 -208.5t-111 -167.5t-167 -111.5
t-207.5 -40.5zM580 82q91 0 169 33t135 91t89.5 136.5t32.5 169.5t-32.5 170t-89.5 137.5t-135 91.5t-169 33q-92 0 -170.5 -33t-135.5 -91.5t-89.5 -137.5t-32.5 -170t32.5 -169.5t89.5 -136.5t135.5 -91t170.5 -33z" />
    <glyph glyph-name="ograve" unicode="&#xf2;" horiz-adv-x="1157" 
d="M776 1208l-393 121v103l393 -132v-92zM580 -14q-112 0 -208.5 40.5t-168 111.5t-112 167.5t-40.5 208.5q0 111 40.5 207.5t112 167t168 111t208.5 40.5q111 0 207.5 -40.5t167 -111t111 -167t40.5 -207.5q0 -112 -40.5 -208.5t-111 -167.5t-167 -111.5t-207.5 -40.5z
M580 82q91 0 169 33t135 91t89.5 136.5t32.5 169.5t-32.5 170t-89.5 137.5t-135 91.5t-169 33q-92 0 -170.5 -33t-135.5 -91.5t-89.5 -137.5t-32.5 -170t32.5 -169.5t89.5 -136.5t135.5 -91t170.5 -33z" />
    <glyph glyph-name="ohungarumlaut" unicode="&#x151;" horiz-adv-x="1157" 
d="M537 1143h-93l97 301h100zM741 1143h-88l111 301h96zM580 -14q-112 0 -208.5 40.5t-168 111.5t-112 167.5t-40.5 208.5q0 111 40.5 207.5t112 167t168 111t208.5 40.5q111 0 207.5 -40.5t167 -111t111 -167t40.5 -207.5q0 -112 -40.5 -208.5t-111 -167.5t-167 -111.5
t-207.5 -40.5zM580 82q91 0 169 33t135 91t89.5 136.5t32.5 169.5t-32.5 170t-89.5 137.5t-135 91.5t-169 33q-92 0 -170.5 -33t-135.5 -91.5t-89.5 -137.5t-32.5 -170t32.5 -169.5t89.5 -136.5t135.5 -91t170.5 -33z" />
    <glyph glyph-name="omacron" unicode="&#x14d;" horiz-adv-x="1157" 
d="M838 1264h-516v90h516v-90zM580 -14q-112 0 -208.5 40.5t-168 111.5t-112 167.5t-40.5 208.5q0 111 40.5 207.5t112 167t168 111t208.5 40.5q111 0 207.5 -40.5t167 -111t111 -167t40.5 -207.5q0 -112 -40.5 -208.5t-111 -167.5t-167 -111.5t-207.5 -40.5zM580 82
q91 0 169 33t135 91t89.5 136.5t32.5 169.5t-32.5 170t-89.5 137.5t-135 91.5t-169 33q-92 0 -170.5 -33t-135.5 -91.5t-89.5 -137.5t-32.5 -170t32.5 -169.5t89.5 -136.5t135.5 -91t170.5 -33z" />
    <glyph glyph-name="oslash" unicode="&#xf8;" horiz-adv-x="1157" 
d="M252 -82h-117l119 176q-94 71 -148.5 180t-54.5 240q0 111 40.5 207.5t112 167t168 111t208.5 40.5q74 0 141.5 -17.5t126.5 -51.5l92 137h117l-131 -193q83 -72 131.5 -175.5t48.5 -225.5q0 -112 -40.5 -208.5t-111 -167.5t-167 -111.5t-207.5 -40.5q-66 0 -128 14.5
t-116 42.5zM793 889q-47 26 -101 40.5t-112 14.5q-92 0 -170.5 -33t-135.5 -91.5t-89.5 -137.5t-32.5 -170q0 -105 41.5 -192t115.5 -146zM391 123q84 -41 189 -41q91 0 169 33t135 91t89.5 136.5t32.5 169.5q0 97 -36.5 179.5t-99.5 142.5z" />
    <glyph glyph-name="otilde" unicode="&#xf5;" horiz-adv-x="1157" 
d="M866 1276q-17 -26 -41 -45q-20 -17 -50 -31t-68 -14q-42 0 -76 12t-65 27t-61.5 27t-64.5 12t-61 -12.5t-46 -26.5q-23 -18 -40 -39v86q17 25 41 44q20 17 50 30.5t69 13.5q41 0 74.5 -12t64.5 -26t61.5 -26t65.5 -12q34 0 60.5 12t46.5 27q22 17 40 39v-86zM580 -14
q-112 0 -208.5 40.5t-168 111.5t-112 167.5t-40.5 208.5q0 111 40.5 207.5t112 167t168 111t208.5 40.5q111 0 207.5 -40.5t167 -111t111 -167t40.5 -207.5q0 -112 -40.5 -208.5t-111 -167.5t-167 -111.5t-207.5 -40.5zM580 82q91 0 169 33t135 91t89.5 136.5t32.5 169.5
t-32.5 170t-89.5 137.5t-135 91.5t-169 33q-92 0 -170.5 -33t-135.5 -91.5t-89.5 -137.5t-32.5 -170t32.5 -169.5t89.5 -136.5t135.5 -91t170.5 -33z" />
    <glyph glyph-name="oe" unicode="&#x153;" horiz-adv-x="2099" 
d="M2011 242q-35 -59 -81 -106t-104.5 -80.5t-130 -51.5t-157.5 -18q-84 0 -159 21.5t-137 61.5t-109.5 95.5t-77.5 124.5q-31 -69 -78.5 -124.5t-109 -95.5t-134 -61.5t-153.5 -21.5q-112 0 -208.5 40.5t-168 111.5t-112 167.5t-40.5 208.5q0 111 40.5 207.5t112 167
t168 111t208.5 40.5q81 0 153.5 -22t134 -61.5t109 -95.5t78.5 -124q30 68 77 124t108 95.5t134.5 61.5t155.5 22q114 0 209.5 -40.5t164 -109t106.5 -158t38 -187.5q0 -13 -0.5 -24.5t-1.5 -21.5l-2 -22h-934q5 -84 38.5 -156t89.5 -124.5t132 -82.5t168 -30q76 0 136 14.5
t107.5 42t84.5 66.5t67 88zM580 82q91 0 169 33t135 91t89.5 136.5t32.5 169.5t-32.5 170t-89.5 137.5t-135 91.5t-169 33q-92 0 -170.5 -33t-135.5 -91.5t-89.5 -137.5t-32.5 -170t32.5 -169.5t89.5 -136.5t135.5 -91t170.5 -33zM1944 569q-6 78 -39.5 146.5t-88 119.5
t-127.5 80t-159 29q-84 0 -156.5 -28.5t-127.5 -78.5t-90 -118.5t-44 -149.5h832z" />
    <glyph glyph-name="p" unicode="p" horiz-adv-x="1204" 
d="M203 -356h-101v1380h101v-203q1 3 12.5 20t34.5 41.5t57 52t81 51t107.5 39t135.5 15.5q110 0 205 -40.5t165.5 -111t111 -167t40.5 -207.5q0 -112 -40.5 -208.5t-111 -167.5t-165.5 -111.5t-205 -40.5q-75 0 -135.5 15.5t-107.5 38.5t-81 50.5t-57 51.5t-34 41t-13 19
v-558zM625 82q92 0 170.5 33t135.5 91t89.5 136.5t32.5 169.5t-32.5 170t-89.5 137.5t-135.5 91.5t-170.5 33q-91 0 -169 -33t-135.5 -91t-90.5 -137t-33 -171t33 -170.5t90.5 -136t135.5 -90.5t169 -33z" />
    <glyph glyph-name="thorn" unicode="&#xfe;" horiz-adv-x="1204" 
d="M203 -356h-101v1759h101v-582q1 3 12.5 20t34.5 41.5t57 52t81 51t107.5 39t135.5 15.5q110 0 205 -40.5t165.5 -111t111 -167t40.5 -207.5q0 -112 -40.5 -208.5t-111 -167.5t-165.5 -111.5t-205 -40.5q-75 0 -135.5 15.5t-107.5 38.5t-81 50.5t-57 51.5t-34 41t-13 19
v-558zM625 82q92 0 170.5 33t135.5 91t89.5 136.5t32.5 169.5t-32.5 170t-89.5 137.5t-135.5 91.5t-170.5 33q-91 0 -169 -33t-135.5 -91t-90.5 -137t-33 -171t33 -170.5t90.5 -136t135.5 -90.5t169 -33z" />
    <glyph glyph-name="q" unicode="q" horiz-adv-x="1204" 
d="M1102 -356h-101v560l-13 -20t-34 -41t-57 -51.5t-81 -51t-107.5 -39t-135.5 -15.5q-110 0 -205 40.5t-165.5 111.5t-111 167.5t-40.5 208.5q0 111 40.5 207.5t111 167t165.5 111t205 40.5q58 0 107 -9.5t89.5 -25t73.5 -35t59 -39.5q60 -48 99 -108v201h101v-1380z
M580 82q90 0 168.5 33t136 90.5t90.5 136t33 170.5t-33 171t-90.5 137t-136 91t-168.5 33q-92 0 -170.5 -33t-135.5 -91.5t-89.5 -137.5t-32.5 -170t32.5 -169.5t89.5 -136.5t135.5 -91t170.5 -33z" />
    <glyph glyph-name="r" unicode="r" horiz-adv-x="596" 
d="M203 0h-101v1024h101v-190q1 2 10 18.5t26.5 39.5t45 49t65 48t86.5 36.5t109 14.5v-110q-74 0 -136.5 -27t-108.5 -76t-71.5 -117.5t-25.5 -152.5v-557z" />
    <glyph glyph-name="racute" unicode="&#x155;" horiz-adv-x="596" 
d="M203 0h-101v1024h101v-190q1 2 10 18.5t26.5 39.5t45 49t65 48t86.5 36.5t109 14.5v-110q-74 0 -136.5 -27t-108.5 -76t-71.5 -117.5t-25.5 -152.5v-557zM506 1329l-393 -121v92l393 132v-103z" />
    <glyph glyph-name="rcaron" unicode="&#x159;" horiz-adv-x="596" 
d="M203 0h-101v1024h101v-190q1 2 10 18.5t26.5 39.5t45 49t65 48t86.5 36.5t109 14.5v-110q-74 0 -136.5 -27t-108.5 -76t-71.5 -117.5t-25.5 -152.5v-557zM567 1309l-258 -164l-258 164v102l258 -158l258 158v-102z" />
    <glyph glyph-name="rcommaaccent" unicode="&#x157;" horiz-adv-x="596" 
d="M203 0h-101v1024h101v-190q1 2 10 18.5t26.5 39.5t45 49t65 48t86.5 36.5t109 14.5v-110q-74 0 -136.5 -27t-108.5 -76t-71.5 -117.5t-25.5 -152.5v-557zM166 -395h-55l34 147h-43v119h103v-111z" />
    <glyph glyph-name="s" unicode="s" horiz-adv-x="918" 
d="M735 737q-4 40 -22.5 77.5t-53 67t-87 47t-123.5 17.5q-122 0 -189 -50.5t-67 -133.5q0 -56 29 -90t76 -54.5t107.5 -31.5l124 -22.5t124 -28t107.5 -46.5t76 -79t29 -125q0 -65 -26 -120.5t-76 -95.5t-122.5 -62.5t-164.5 -22.5q-187 0 -297 82.5t-129 244.5h103
q14 -109 96.5 -170t228.5 -61q142 0 214.5 54.5t72.5 146.5q0 58 -29 93t-76.5 56t-108.5 32.5l-124 23t-124 27t-108.5 45t-76.5 77.5t-29 123q0 63 25.5 115t72.5 89t113.5 57.5t149.5 20.5q85 0 154 -21.5t118.5 -61t78.5 -95.5t34 -125h-101z" />
    <glyph glyph-name="sacute" unicode="&#x15b;" horiz-adv-x="918" 
d="M651 1329l-393 -121v92l393 132v-103zM735 737q-4 40 -22.5 77.5t-53 67t-87 47t-123.5 17.5q-122 0 -189 -50.5t-67 -133.5q0 -56 29 -90t76 -54.5t107.5 -31.5l124 -22.5t124 -28t107.5 -46.5t76 -79t29 -125q0 -65 -26 -120.5t-76 -95.5t-122.5 -62.5t-164.5 -22.5
q-187 0 -297 82.5t-129 244.5h103q14 -109 96.5 -170t228.5 -61q142 0 214.5 54.5t72.5 146.5q0 58 -29 93t-76.5 56t-108.5 32.5l-124 23t-124 27t-108.5 45t-76.5 77.5t-29 123q0 63 25.5 115t72.5 89t113.5 57.5t149.5 20.5q85 0 154 -21.5t118.5 -61t78.5 -95.5t34 -125
h-101z" />
    <glyph glyph-name="scaron" unicode="&#x161;" horiz-adv-x="918" 
d="M713 1309l-258 -164l-258 164v102l258 -158l258 158v-102zM735 737q-4 40 -22.5 77.5t-53 67t-87 47t-123.5 17.5q-122 0 -189 -50.5t-67 -133.5q0 -56 29 -90t76 -54.5t107.5 -31.5l124 -22.5t124 -28t107.5 -46.5t76 -79t29 -125q0 -65 -26 -120.5t-76 -95.5
t-122.5 -62.5t-164.5 -22.5q-187 0 -297 82.5t-129 244.5h103q14 -109 96.5 -170t228.5 -61q142 0 214.5 54.5t72.5 146.5q0 58 -29 93t-76.5 56t-108.5 32.5l-124 23t-124 27t-108.5 45t-76.5 77.5t-29 123q0 63 25.5 115t72.5 89t113.5 57.5t149.5 20.5q85 0 154 -21.5
t118.5 -61t78.5 -95.5t34 -125h-101z" />
    <glyph glyph-name="scedilla" unicode="&#x15f;" horiz-adv-x="918" 
d="M381 -268q6 -41 30.5 -58.5t61.5 -17.5q38 0 63 23.5t25 60.5q0 34 -25.5 57t-68.5 23h-135l90 166q-162 12 -258 94t-113 231h103q14 -109 96.5 -170t228.5 -61q142 0 214.5 54.5t72.5 146.5q0 58 -29 93t-76.5 56t-108.5 32.5l-124 23t-124 27t-108.5 45t-76.5 77.5
t-29 123q0 63 25.5 115t72.5 89t113.5 57.5t149.5 20.5q85 0 154 -21.5t118.5 -61t78.5 -95.5t34 -125h-101q-4 40 -22.5 77.5t-53 67t-87 47t-123.5 17.5q-122 0 -189 -50.5t-67 -133.5q0 -56 29 -90t76 -54.5t107.5 -31.5l124 -22.5t124 -28t107.5 -46.5t76 -79t29 -125
q0 -62 -23.5 -114.5t-68 -92t-109 -64t-147.5 -28.5l-45 -84q37 0 68.5 -12t55 -33t37 -51t13.5 -66q0 -35 -13.5 -66t-37 -53.5t-55 -35.5t-68.5 -13q-38 0 -70 10.5t-56 31t-39 50t-19 68.5h92z" />
    <glyph glyph-name="scircumflex" unicode="&#x15d;" horiz-adv-x="918" 
d="M713 1157l-258 158l-258 -158v103l258 163l258 -163v-103zM735 737q-4 40 -22.5 77.5t-53 67t-87 47t-123.5 17.5q-122 0 -189 -50.5t-67 -133.5q0 -56 29 -90t76 -54.5t107.5 -31.5l124 -22.5t124 -28t107.5 -46.5t76 -79t29 -125q0 -65 -26 -120.5t-76 -95.5
t-122.5 -62.5t-164.5 -22.5q-187 0 -297 82.5t-129 244.5h103q14 -109 96.5 -170t228.5 -61q142 0 214.5 54.5t72.5 146.5q0 58 -29 93t-76.5 56t-108.5 32.5l-124 23t-124 27t-108.5 45t-76.5 77.5t-29 123q0 63 25.5 115t72.5 89t113.5 57.5t149.5 20.5q85 0 154 -21.5
t118.5 -61t78.5 -95.5t34 -125h-101z" />
    <glyph glyph-name="scommaaccent" unicode="&#x219;" horiz-adv-x="918" 
d="M735 737q-4 40 -22.5 77.5t-53 67t-87 47t-123.5 17.5q-122 0 -189 -50.5t-67 -133.5q0 -56 29 -90t76 -54.5t107.5 -31.5l124 -22.5t124 -28t107.5 -46.5t76 -79t29 -125q0 -65 -26 -120.5t-76 -95.5t-122.5 -62.5t-164.5 -22.5q-187 0 -297 82.5t-129 244.5h103
q14 -109 96.5 -170t228.5 -61q142 0 214.5 54.5t72.5 146.5q0 58 -29 93t-76.5 56t-108.5 32.5l-124 23t-124 27t-108.5 45t-76.5 77.5t-29 123q0 63 25.5 115t72.5 89t113.5 57.5t149.5 20.5q85 0 154 -21.5t118.5 -61t78.5 -95.5t34 -125h-101zM496 -395h-56l35 147h-43
v119h103v-111z" />
    <glyph glyph-name="germandbls" unicode="&#xdf;" horiz-adv-x="969" 
d="M502 90q67 0 125 21.5t100 61.5t66 95t24 123q0 67 -24 121.5t-66 93.5t-100 60t-125 20h-111v92h74q54 0 103 22.5t86 60.5t59 87.5t22 104.5q0 58 -20.5 105.5t-56.5 81.5t-84 52.5t-103 18.5q-56 0 -105 -20.5t-86 -58t-58 -90t-21 -116.5v-1026h-99v1026
q0 81 28.5 150t78.5 119.5t117 79t145 28.5t144 -25.5t114 -72t75 -110.5t27 -142q0 -51 -12.5 -93t-31.5 -75.5t-41.5 -59t-42.5 -42t-34 -25.5t-16 -10q3 -1 24 -9t50.5 -24.5t63 -43.5t62 -66.5t47 -92.5t18.5 -121q0 -86 -32 -158t-88 -123.5t-132 -80.5t-164 -29h-111
v90h111z" />
    <glyph glyph-name="schwa" unicode="&#x259;" horiz-adv-x="1145" 
d="M989 549q-5 84 -38.5 156t-89.5 124.5t-132.5 82.5t-167.5 30q-76 0 -136 -14.5t-107.5 -42t-84.5 -66.5t-67 -88l-78 53q35 58 81 105.5t104.5 81t130 51.5t157.5 18q116 0 213.5 -40.5t168.5 -111.5t111 -167.5t40 -208.5q0 -111 -40 -207.5t-110.5 -167t-166.5 -111
t-208 -40.5q-114 0 -209.5 40.5t-164 108.5t-106.5 158t-38 188q0 12 0.5 24t1.5 22l2 22h934zM156 457q6 -78 39 -146.5t87.5 -119.5t127.5 -80t159 -29q85 0 157.5 28.5t127.5 78.5t89.5 118.5t43.5 149.5h-831z" />
    <glyph glyph-name="t" unicode="t" horiz-adv-x="649" 
d="M586 0h-80q-52 0 -105.5 16t-97 52.5t-71 96t-27.5 146.5v623h-154v90h154v297h98v-297h285v-90h-285v-623q0 -65 19 -106.5t49 -65.5t66 -33.5t71 -9.5h78v-96z" />
    <glyph glyph-name="tbar" unicode="&#x167;" horiz-adv-x="649" 
d="M586 0h-80q-52 0 -105.5 16t-97 52.5t-71 96t-27.5 146.5v230h-154v94h154v299h-154v90h154v297h98v-297h285v-90h-285v-299h285v-94h-285v-230q0 -65 19 -106.5t49 -65.5t66 -33.5t71 -9.5h78v-96z" />
    <glyph glyph-name="tcaron" unicode="&#x165;" horiz-adv-x="649" 
d="M489 1137h-55l35 147h-43v119h102v-111zM586 0h-80q-52 0 -105.5 16t-97 52.5t-71 96t-27.5 146.5v623h-154v90h154v297h98v-297h285v-90h-285v-623q0 -65 19 -106.5t49 -65.5t66 -33.5t71 -9.5h78v-96z" />
    <glyph glyph-name="tcedilla" unicode="&#x163;" horiz-adv-x="649" 
d="M344 -268q6 -41 30.5 -58.5t61.5 -17.5q38 0 63 23.5t25 60.5q0 34 -25.5 57t-68.5 23h-135l106 194q-39 12 -74.5 35.5t-62.5 59.5t-43 86t-16 116v623h-154v90h154v297h98v-297h285v-90h-285v-623q0 -65 19 -106.5t49 -65.5t66 -33.5t71 -9.5h78v-96h-97l-53 -98
q37 0 69 -12t55 -33t36.5 -51t13.5 -66q0 -35 -13.5 -66t-36.5 -53.5t-55 -35.5t-69 -13q-38 0 -70 10.5t-56 31t-39 50t-19 68.5h92z" />
    <glyph glyph-name="uni021B" unicode="&#x21b;" horiz-adv-x="649" 
d="M586 0h-80q-52 0 -105.5 16t-97 52.5t-71 96t-27.5 146.5v623h-154v90h154v297h98v-297h285v-90h-285v-623q0 -65 19 -106.5t49 -65.5t66 -33.5t71 -9.5h78v-96zM459 -395h-56l35 147h-43v119h103v-111z" />
    <glyph glyph-name="u" unicode="u" 
d="M932 0h-101v155l-21 -30t-59.5 -58.5t-104.5 -57t-157 -25.5q-90 0 -163 29t-125 83t-80.5 130t-28.5 171v627h101v-614q0 -78 21 -139t60.5 -103.5t96.5 -65t129 -22.5q75 0 136 24.5t104.5 71t67 112.5t23.5 150v586h101v-1024z" />
    <glyph glyph-name="uacute" unicode="&#xfa;" 
d="M932 0h-101v155l-21 -30t-59.5 -58.5t-104.5 -57t-157 -25.5q-90 0 -163 29t-125 83t-80.5 130t-28.5 171v627h101v-614q0 -78 21 -139t60.5 -103.5t96.5 -65t129 -22.5q75 0 136 24.5t104.5 71t67 112.5t23.5 150v586h101v-1024zM709 1329l-394 -121v92l394 132v-103z
" />
    <glyph glyph-name="ubreve" unicode="&#x16d;" 
d="M932 0h-101v155l-21 -30t-59.5 -58.5t-104.5 -57t-157 -25.5q-90 0 -163 29t-125 83t-80.5 130t-28.5 171v627h101v-614q0 -78 21 -139t60.5 -103.5t96.5 -65t129 -22.5q75 0 136 24.5t104.5 71t67 112.5t23.5 150v586h101v-1024zM784 1309q-26 -35 -65 -62
q-33 -23 -84 -42t-123 -19q-71 0 -122.5 19t-84.5 42q-40 27 -65 62v94q32 -35 74 -62q35 -23 85.5 -42t112.5 -19q63 0 113 19t85 42q41 27 74 62v-94z" />
    <glyph glyph-name="ucircumflex" unicode="&#xfb;" 
d="M932 0h-101v155l-21 -30t-59.5 -58.5t-104.5 -57t-157 -25.5q-90 0 -163 29t-125 83t-80.5 130t-28.5 171v627h101v-614q0 -78 21 -139t60.5 -103.5t96.5 -65t129 -22.5q75 0 136 24.5t104.5 71t67 112.5t23.5 150v586h101v-1024zM770 1157l-258 158l-258 -158v103
l258 163l258 -163v-103z" />
    <glyph glyph-name="udieresis" unicode="&#xfc;" 
d="M932 0h-101v155l-21 -30t-59.5 -58.5t-104.5 -57t-157 -25.5q-90 0 -163 29t-125 83t-80.5 130t-28.5 171v627h101v-614q0 -78 21 -139t60.5 -103.5t96.5 -65t129 -22.5q75 0 136 24.5t104.5 71t67 112.5t23.5 150v586h101v-1024zM416 1296h-99v107h99v-107zM707 1296
h-99v107h99v-107z" />
    <glyph glyph-name="ugrave" unicode="&#xf9;" 
d="M932 0h-101v155l-21 -30t-59.5 -58.5t-104.5 -57t-157 -25.5q-90 0 -163 29t-125 83t-80.5 130t-28.5 171v627h101v-614q0 -78 21 -139t60.5 -103.5t96.5 -65t129 -22.5q75 0 136 24.5t104.5 71t67 112.5t23.5 150v586h101v-1024zM709 1208l-394 121v103l394 -132v-92z
" />
    <glyph glyph-name="uhungarumlaut" unicode="&#x171;" 
d="M932 0h-101v155l-21 -30t-59.5 -58.5t-104.5 -57t-157 -25.5q-90 0 -163 29t-125 83t-80.5 130t-28.5 171v627h101v-614q0 -78 21 -139t60.5 -103.5t96.5 -65t129 -22.5q75 0 136 24.5t104.5 71t67 112.5t23.5 150v586h101v-1024zM469 1143h-92l96 301h100zM674 1143h-88
l110 301h97z" />
    <glyph glyph-name="umacron" unicode="&#x16b;" 
d="M932 0h-101v155l-21 -30t-59.5 -58.5t-104.5 -57t-157 -25.5q-90 0 -163 29t-125 83t-80.5 130t-28.5 171v627h101v-614q0 -78 21 -139t60.5 -103.5t96.5 -65t129 -22.5q75 0 136 24.5t104.5 71t67 112.5t23.5 150v586h101v-1024zM770 1264h-516v90h516v-90z" />
    <glyph glyph-name="uogonek" unicode="&#x173;" 
d="M1008 -322q-17 -11 -38 -19q-19 -8 -45 -13.5t-61 -5.5q-45 0 -82 11t-63.5 32t-41.5 51.5t-15 68.5q0 37 13 69.5t35 58t51.5 44t61.5 27.5l8 2v151l-21 -30t-59.5 -58.5t-104.5 -57t-157 -25.5q-90 0 -163 29t-125 83t-80.5 130t-28.5 171v627h101v-614q0 -78 21 -139
t60.5 -103.5t96.5 -65t129 -22.5q75 0 136 24.5t104.5 71t67 112.5t23.5 150v586h101v-1024h-2q-81 -29 -121.5 -78t-40.5 -106q0 -42 30 -65t81 -23q29 0 52.5 5t40.5 11q20 7 36 16v-82z" />
    <glyph glyph-name="uring" unicode="&#x16f;" 
d="M932 0h-101v155l-21 -30t-59.5 -58.5t-104.5 -57t-157 -25.5q-90 0 -163 29t-125 83t-80.5 130t-28.5 171v627h101v-614q0 -78 21 -139t60.5 -103.5t96.5 -65t129 -22.5q75 0 136 24.5t104.5 71t67 112.5t23.5 150v586h101v-1024zM690 1321q0 -37 -13.5 -69t-37.5 -56
t-56.5 -37.5t-70.5 -13.5t-70.5 13.5t-56.5 37.5t-37.5 56t-13.5 69t13.5 68.5t37.5 55t56.5 37t70.5 13.5t70.5 -13.5t56.5 -37t37.5 -55t13.5 -68.5zM512 1219q45 0 72.5 29.5t27.5 72.5t-27.5 71.5t-72.5 28.5t-72.5 -28.5t-27.5 -71.5t27.5 -72.5t72.5 -29.5z" />
    <glyph glyph-name="utilde" unicode="&#x169;" 
d="M932 0h-101v155l-21 -30t-59.5 -58.5t-104.5 -57t-157 -25.5q-90 0 -163 29t-125 83t-80.5 130t-28.5 171v627h101v-614q0 -78 21 -139t60.5 -103.5t96.5 -65t129 -22.5q75 0 136 24.5t104.5 71t67 112.5t23.5 150v586h101v-1024zM799 1276q-18 -26 -42 -45
q-20 -17 -50 -31t-68 -14q-42 0 -75.5 12t-64.5 27t-61.5 27t-64.5 12t-61 -12.5t-47 -26.5q-23 -18 -40 -39v86q18 25 42 44q20 17 50 30.5t68 13.5q42 0 75.5 -12t64 -26t61 -26t65.5 -12q34 0 61 12t47 27q23 17 40 39v-86z" />
    <glyph glyph-name="v" unicode="v" horiz-adv-x="971" 
d="M549 0h-127l-391 1024h114l344 -913l342 913h109z" />
    <glyph glyph-name="w" unicode="w" horiz-adv-x="1534" 
d="M1165 0h-127l-272 891l-305 -891h-127l-293 1024h113l247 -901l306 901h127l274 -901l276 901h109z" />
    <glyph glyph-name="wacute" unicode="&#x1e83;" horiz-adv-x="1534" 
d="M965 1329l-394 -121v92l394 132v-103zM1165 0h-127l-272 891l-305 -891h-127l-293 1024h113l247 -901l306 901h127l274 -901l276 901h109z" />
    <glyph glyph-name="wcircumflex" unicode="&#x175;" horiz-adv-x="1534" 
d="M1026 1157l-258 158l-258 -158v103l258 163l258 -163v-103zM1165 0h-127l-272 891l-305 -891h-127l-293 1024h113l247 -901l306 901h127l274 -901l276 901h109z" />
    <glyph glyph-name="wdieresis" unicode="&#x1e85;" horiz-adv-x="1534" 
d="M672 1296h-99v107h99v-107zM963 1296h-99v107h99v-107zM1165 0h-127l-272 891l-305 -891h-127l-293 1024h113l247 -901l306 901h127l274 -901l276 901h109z" />
    <glyph glyph-name="wgrave" unicode="&#x1e81;" horiz-adv-x="1534" 
d="M965 1208l-394 121v103l394 -132v-92zM1165 0h-127l-272 891l-305 -891h-127l-293 1024h113l247 -901l306 901h127l274 -901l276 901h109z" />
    <glyph glyph-name="x" unicode="x" horiz-adv-x="981" 
d="M950 0h-127l-334 455l-335 -455h-123l391 528l-361 496h127l304 -420l305 420h125l-365 -494z" />
    <glyph glyph-name="y" unicode="y" horiz-adv-x="969" 
d="M563 25q-36 -101 -79.5 -173t-96.5 -118.5t-118 -68t-144 -21.5h-39v96h37q57 0 105 15.5t88.5 49.5t74.5 88t64 132l-424 999h112l369 -868l317 868h109z" />
    <glyph glyph-name="yacute" unicode="&#xfd;" horiz-adv-x="969" 
d="M682 1329l-393 -121v92l393 132v-103zM563 25q-36 -101 -79.5 -173t-96.5 -118.5t-118 -68t-144 -21.5h-39v96h37q57 0 105 15.5t88.5 49.5t74.5 88t64 132l-424 999h112l369 -868l317 868h109z" />
    <glyph glyph-name="ycircumflex" unicode="&#x177;" horiz-adv-x="969" 
d="M743 1157l-258 158l-258 -158v103l258 163l258 -163v-103zM563 25q-36 -101 -79.5 -173t-96.5 -118.5t-118 -68t-144 -21.5h-39v96h37q57 0 105 15.5t88.5 49.5t74.5 88t64 132l-424 999h112l369 -868l317 868h109z" />
    <glyph glyph-name="ydieresis" unicode="&#xff;" horiz-adv-x="969" 
d="M389 1296h-98v107h98v-107zM680 1296h-98v107h98v-107zM563 25q-36 -101 -79.5 -173t-96.5 -118.5t-118 -68t-144 -21.5h-39v96h37q57 0 105 15.5t88.5 49.5t74.5 88t64 132l-424 999h112l369 -868l317 868h109z" />
    <glyph glyph-name="ygrave" unicode="&#x1ef3;" horiz-adv-x="969" 
d="M682 1208l-393 121v103l393 -132v-92zM563 25q-36 -101 -79.5 -173t-96.5 -118.5t-118 -68t-144 -21.5h-39v96h37q57 0 105 15.5t88.5 49.5t74.5 88t64 132l-424 999h112l369 -868l317 868h109z" />
    <glyph glyph-name="z" unicode="z" horiz-adv-x="965" 
d="M903 0h-842v90l680 844h-653v90h782v-90l-677 -844h710v-90z" />
    <glyph glyph-name="zacute" unicode="&#x17a;" horiz-adv-x="965" 
d="M680 1329l-393 -121v92l393 132v-103zM903 0h-842v90l680 844h-653v90h782v-90l-677 -844h710v-90z" />
    <glyph glyph-name="zcaron" unicode="&#x17e;" horiz-adv-x="965" 
d="M741 1309l-258 -164l-258 164v102l258 -158l258 158v-102zM903 0h-842v90l680 844h-653v90h782v-90l-677 -844h710v-90z" />
    <glyph glyph-name="zdotaccent" unicode="&#x17c;" horiz-adv-x="965" 
d="M532 1296h-98v107h98v-107zM903 0h-842v90l680 844h-653v90h782v-90l-677 -844h710v-90z" />
    <glyph glyph-name="f_i" horiz-adv-x="924" 
d="M303 0h-98v934h-154v90h154v68q0 87 26 146.5t68 96t94 52.5t105 16h67v-96h-65q-35 0 -70 -9.5t-63 -33.5t-46 -66t-18 -106v-68h264v-90h-264v-934zM821 1294h-100v109h100v-109zM821 0h-100v1024h100v-1024z" />
    <glyph glyph-name="f_l" horiz-adv-x="924" 
d="M303 0h-98v934h-154v90h154v68q0 87 26 146.5t68 96t94 52.5t105 16h67v-96h-65q-35 0 -70 -9.5t-63 -33.5t-46 -66t-18 -106v-68h264v-90h-264v-934zM821 0h-100v1403h100v-1403z" />
    <glyph glyph-name="ordfeminine" unicode="&#xaa;" horiz-adv-x="815" 
d="M754 741h-101v95q-45 -50 -106.5 -78.5t-138.5 -28.5q-73 0 -136.5 26.5t-110 72.5t-73.5 108.5t-27 134.5q0 74 27 137t73.5 109t110 72t136.5 26q77 0 138.5 -28.5t106.5 -77.5v94h101v-662zM659 1071q0 55 -19 102t-52.5 80.5t-79.5 52.5t-100 19q-53 0 -98.5 -19
t-78.5 -52.5t-52 -80.5t-19 -102q0 -54 19 -100t52 -79.5t78.5 -52t98.5 -18.5q54 0 100 18.5t79.5 52t52.5 79.5t19 100z" />
    <glyph glyph-name="ordmasculine" unicode="&#xba;" horiz-adv-x="819" 
d="M758 1071q0 -72 -27 -134.5t-74 -108.5t-111 -72.5t-138 -26.5q-73 0 -136.5 26.5t-110 72.5t-73.5 108.5t-27 134.5q0 74 27 137t73.5 109t110 72t136.5 26q74 0 138 -26t111 -72t74 -109t27 -137zM657 1071q0 54 -18.5 100t-51.5 79.5t-79 53t-100 19.5
q-53 0 -98 -19.5t-78 -53t-51.5 -79.5t-18.5 -100q0 -53 18.5 -98.5t51.5 -78.5t78 -52t98 -19q54 0 100 19t79 52t51.5 78.5t18.5 98.5z" />
    <glyph glyph-name="zero" unicode="0" horiz-adv-x="1014" 
d="M942 416q0 -94 -33 -173.5t-91.5 -138t-138 -91.5t-171.5 -33q-93 0 -173 33t-138.5 91.5t-91.5 138t-33 173.5v444q0 94 33 173.5t91.5 138t138.5 91.5t173 33q92 0 171.5 -33t138 -91.5t91.5 -138t33 -173.5v-444zM842 860q0 75 -25 137.5t-70 108t-106 71t-133 25.5
q-73 0 -134.5 -25.5t-106.5 -71t-70 -108t-25 -137.5v-444q0 -75 25 -137.5t70 -108t106.5 -71t134.5 -25.5q72 0 133 25.5t106 71t70 108t25 137.5v444z" />
    <glyph glyph-name="one" unicode="1" horiz-adv-x="393" 
d="M311 0h-98v1190h-152v92h250v-1282z" />
    <glyph glyph-name="two" unicode="2" horiz-adv-x="954" 
d="M893 0h-830v90l508 471q47 42 84 81t63 81.5t40 92t14 112.5q0 58 -20.5 108t-58 86.5t-91 57t-119.5 20.5q-65 0 -115.5 -14t-91 -40t-73 -63.5t-60.5 -85.5l-82 50q33 56 74 102t92 78.5t114.5 50.5t141.5 18q88 0 161 -28.5t125.5 -78.5t81 -117t28.5 -144
q0 -74 -18 -132.5t-50 -109t-76 -96.5t-96 -94l-436 -406h690v-90z" />
    <glyph glyph-name="three" unicode="3" horiz-adv-x="975" 
d="M125 289q28 -48 61.5 -86t75.5 -64.5t93 -40.5t116 -14q79 0 142 24.5t107 68.5t67.5 105.5t23.5 135.5q0 155 -86.5 236t-247.5 81q-42 0 -75.5 -8.5t-57.5 -19.5q-28 -12 -51 -27l-43 63l471 451h-608v90h743v-90l-377 -365q100 0 180 -29t136.5 -82.5t87 -129
t30.5 -168.5q0 -92 -31.5 -171t-89.5 -137t-139.5 -91t-181.5 -33q-78 0 -143 18t-117.5 51t-94.5 79t-75 102z" />
    <glyph glyph-name="four" unicode="4" horiz-adv-x="983" 
d="M766 0h-98v303h-621v94l619 889h100v-889h168v-94h-168v-303zM668 397v733l-506 -733h506z" />
    <glyph glyph-name="five" unicode="5" horiz-adv-x="975" 
d="M123 287q28 -48 62 -85.5t76 -63.5t93.5 -40t116.5 -14q79 0 142 25t107 70t67.5 107t23.5 136q0 155 -85 237t-243 82q-53 0 -97.5 -13t-81 -34.5t-65.5 -49.5t-51 -58l-94 32l129 666h615v-94h-537l-92 -457q30 29 72 52q36 20 88.5 36.5t122.5 16.5q100 0 178 -30
t132 -84t82.5 -130.5t28.5 -169.5q0 -92 -31.5 -172t-89.5 -138.5t-139.5 -92t-181.5 -33.5q-78 0 -143 18t-117.5 51t-94.5 79t-75 102z" />
    <glyph glyph-name="six" unicode="6" horiz-adv-x="1016" 
d="M516 877q95 0 175.5 -34.5t139 -95t91 -142.5t32.5 -177t-34.5 -176t-94.5 -140.5t-141.5 -93.5t-175.5 -34q-95 0 -177 34t-142 93.5t-94 140.5t-34 176q0 78 23 150.5t57 126.5l365 579h110l-282 -442q3 1 18.5 6.5t40 12t56 11.5t67.5 5zM508 78q75 0 139 26.5
t110.5 73.5t72.5 111t26 139q0 76 -26 141t-72.5 112t-110.5 74t-139 27t-138.5 -27t-109.5 -74t-72 -112t-26 -141q0 -75 26 -139t72 -111t109.5 -73.5t138.5 -26.5z" />
    <glyph glyph-name="seven" unicode="7" horiz-adv-x="877" 
d="M307 0h-110l528 1186h-684v94h795v-90z" />
    <glyph glyph-name="eight" unicode="8" horiz-adv-x="944" 
d="M643 715q52 -22 96 -56t76 -78t50 -97t18 -113q0 -85 -32.5 -156.5t-88.5 -123.5t-131 -81.5t-160 -29.5q-84 0 -159 29.5t-130.5 81.5t-88 123.5t-32.5 156.5q0 60 18 113t49.5 97t75.5 78t95 56q-36 19 -66 46t-52 60.5t-34 73t-12 84.5q0 69 26.5 127t72.5 100.5
t107 66t130 23.5q70 0 131.5 -23.5t107.5 -66t72.5 -100.5t26.5 -127q0 -90 -46 -158t-120 -106zM707 979q0 49 -18.5 90.5t-50.5 72t-75 47.5t-92 17q-48 0 -90.5 -17t-74 -47.5t-50 -72t-18.5 -90.5q0 -47 18.5 -88t50 -71.5t74 -48t90.5 -17.5q51 0 94 18t74.5 48.5
t49.5 71.5t18 87zM780 371q0 62 -24 116t-65.5 93.5t-98 62.5t-121.5 23t-121 -23t-97 -62.5t-65 -93.5t-24 -116q0 -65 24 -120t65 -95t97 -62t121 -22t121.5 22t98 62t65.5 95t24 120z" />
    <glyph glyph-name="nine" unicode="9" horiz-adv-x="1016" 
d="M510 0h-111l283 442q-25 -10 -54 -17q-25 -7 -57.5 -12t-70.5 -5q-95 0 -175.5 34.5t-139 94.5t-91.5 142t-33 177q0 94 34.5 175.5t95 141t142 93.5t175.5 34q95 0 176.5 -34t141.5 -93.5t94 -141t34 -175.5q0 -78 -22.5 -150t-57.5 -126zM508 502q75 0 138.5 27
t109.5 74t72 112t26 141q0 75 -26 139t-72 111t-109.5 73.5t-138.5 26.5t-139 -26.5t-110.5 -73.5t-72.5 -111t-26 -139q0 -76 26 -141t72.5 -112t110.5 -74t139 -27z" />
    <glyph glyph-name="zero.slash" unicode="&#xf692;" horiz-adv-x="1014" 
d="M942 416q0 -94 -33 -173.5t-91.5 -138t-138 -91.5t-171.5 -33q-93 0 -173 33t-138.5 91.5t-91.5 138t-33 173.5v444q0 94 33 173.5t91.5 138t138.5 91.5t173 33q92 0 171.5 -33t138 -91.5t91.5 -138t33 -173.5v-444zM172 416q0 -69 22 -129t62 -105l420 977
q-73 43 -168 43q-73 0 -134.5 -25.5t-106.5 -71t-70 -108t-25 -137.5v-444zM336 117q37 -20 80.5 -31.5t91.5 -11.5q72 0 133 25.5t106 71t70 108t25 137.5v444q0 71 -23 131t-63 105z" />
    <glyph glyph-name="fraction" unicode="&#x2044;" horiz-adv-x="41" 
d="M-211 0h-108l571 1290h108z" />
    <glyph glyph-name="uni215F" unicode="&#x215f;" horiz-adv-x="694" 
d="M387 0h-108l573 1290h109zM330 524h-92v680h-95v84h187v-764z" />
    <glyph glyph-name="onehalf" unicode="&#xbd;" horiz-adv-x="1458" 
d="M399 0h-108l573 1290h109zM330 524h-92v680h-95v84h187v-764zM1376 0h-545v74l322 276q27 23 48.5 44t37 43.5t23.5 48.5t8 59q0 30 -11.5 56t-32.5 44.5t-51 29.5t-67 11q-38 0 -68.5 -8t-55 -24t-44 -38.5t-37.5 -50.5l-82 43q48 76 116 120t171 44q58 0 106.5 -17.5
t83 -48.5t53.5 -72t19 -89q0 -43 -12.5 -79t-34 -66.5t-50 -57.5t-59.5 -53l-241 -205h403v-84z" />
    <glyph glyph-name="uni2153" unicode="&#x2153;" horiz-adv-x="1516" 
d="M432 0h-108l573 1290h109zM330 524h-92v680h-95v84h187v-764zM934 203q18 -29 39 -51.5t46.5 -38.5t56 -24.5t69.5 -8.5q45 0 81 13t61 36.5t38.5 55t13.5 69.5q0 80 -48.5 123t-141.5 43q-23 0 -44.5 -6t-37.5 -13q-19 -8 -35 -18l-45 59l270 240h-352v84h496v-74
l-211 -188q56 -6 101 -26.5t77 -52.5t49 -75t17 -94q0 -57 -20.5 -105.5t-58.5 -83.5t-91.5 -55t-118.5 -20q-102 0 -172 45t-117 121z" />
    <glyph glyph-name="uni2154" unicode="&#x2154;" horiz-adv-x="1569" 
d="M627 524h-545v74l321 276q27 23 48.5 44t37 43.5t23.5 48.5t8 59q0 30 -11.5 56t-32.5 44.5t-51 29.5t-67 11q-38 0 -68 -8t-54.5 -23.5t-44 -38t-37.5 -50.5l-82 43q47 75 115 119t171 44q58 0 106.5 -17.5t83.5 -48.5t54 -72t19 -89q0 -43 -12.5 -78.5t-34 -66.5
t-50 -58t-59.5 -53l-242 -205h404v-84zM575 0h-108l573 1290h109zM1020 203q18 -29 39 -51.5t46.5 -38.5t56 -24.5t69.5 -8.5q45 0 81 13t61 36.5t38.5 55t13.5 69.5q0 80 -48.5 123t-141.5 43q-23 0 -43.5 -6t-37.5 -13q-19 -8 -36 -18l-45 59l270 240h-352v84h496v-74
l-211 -188q56 -6 101 -26.5t77 -52.5t49 -75t17 -94q0 -57 -20.5 -105.5t-58.5 -83.5t-91.5 -55t-118.5 -20q-102 0 -172 45t-117 121z" />
    <glyph glyph-name="onequarter" unicode="&#xbc;" horiz-adv-x="1448" 
d="M446 0h-108l573 1290h109zM330 524h-92v680h-95v84h187v-764zM1262 0h-93v172h-385v74l392 522h86v-510h104v-86h-104v-172zM1169 258v354l-268 -354h268z" />
    <glyph glyph-name="threequarters" unicode="&#xbe;" horiz-adv-x="1569" 
d="M150 727q18 -29 39 -51.5t46 -38.5t56 -24.5t69 -8.5q45 0 81.5 13t61.5 36.5t38.5 55t13.5 69.5q0 81 -49 123.5t-141 42.5q-23 0 -44.5 -6t-37.5 -13q-19 -8 -35 -18l-45 60l270 239h-352v84h495v-73l-210 -189q56 -6 101 -26t76.5 -52t48.5 -75t17 -95
q0 -57 -20.5 -105t-58.5 -83.5t-91 -55.5t-119 -20q-102 0 -172 45.5t-116 120.5zM575 0h-108l573 1290h109zM1382 0h-92v172h-385v74l391 522h86v-510h105v-86h-105v-172zM1290 258v354l-268 -354h268z" />
    <glyph glyph-name="uni2155" unicode="&#x2155;" horiz-adv-x="1493" 
d="M428 0h-109l574 1290h108zM330 524h-92v680h-95v84h187v-764zM909 203q37 -59 86.5 -91t126.5 -32q45 0 81.5 13.5t61.5 37.5t38.5 56.5t13.5 70.5q0 81 -48.5 123.5t-138.5 42.5q-61 0 -105.5 -27.5t-72.5 -62.5l-84 22l86 410h412v-86h-336l-47 -211q23 12 61.5 26.5
t92.5 14.5q65 0 116 -17.5t86 -50.5t53.5 -79.5t18.5 -104.5q0 -57 -20.5 -105.5t-58.5 -84.5t-91.5 -56t-118.5 -20q-102 0 -172 45t-116 121z" />
    <glyph glyph-name="uni2156" unicode="&#x2156;" horiz-adv-x="1569" 
d="M627 524h-545v74l321 276q27 23 48.5 44t37 43.5t23.5 48.5t8 59q0 30 -11.5 56t-32.5 44.5t-51 29.5t-67 11q-38 0 -68 -8t-54.5 -23.5t-44 -38t-37.5 -50.5l-82 43q47 75 115 119t171 44q58 0 106.5 -17.5t83.5 -48.5t54 -72t19 -89q0 -43 -12.5 -78.5t-34 -66.5
t-50 -58t-59.5 -53l-242 -205h404v-84zM575 0h-108l573 1290h109zM1018 203q37 -59 86.5 -91t126.5 -32q45 0 81 13.5t61 37.5t38.5 56.5t13.5 70.5q0 81 -48 123.5t-138 42.5q-62 0 -106 -27.5t-72 -62.5l-84 22l86 410h412v-86h-336l-47 -211q23 12 61 26.5t92 14.5
q65 0 116 -17.5t86.5 -50.5t54 -79.5t18.5 -104.5q0 -57 -20.5 -105.5t-58.5 -84.5t-91.5 -56t-118.5 -20q-102 0 -172 45t-117 121z" />
    <glyph glyph-name="uni2157" unicode="&#x2157;" horiz-adv-x="1569" 
d="M150 727q18 -29 39 -51.5t46 -38.5t56 -24.5t69 -8.5q45 0 81.5 13t61.5 36.5t38.5 55t13.5 69.5q0 81 -49 123.5t-141 42.5q-23 0 -44.5 -6t-37.5 -13q-19 -8 -35 -18l-45 60l270 239h-352v84h495v-73l-210 -189q56 -6 101 -26t76.5 -52t48.5 -75t17 -95
q0 -57 -20.5 -105t-58.5 -83.5t-91 -55.5t-119 -20q-102 0 -172 45.5t-116 120.5zM575 0h-108l573 1290h109zM1018 203q37 -59 86.5 -91t126.5 -32q45 0 81 13.5t61 37.5t38.5 56.5t13.5 70.5q0 81 -48 123.5t-138 42.5q-62 0 -106 -27.5t-72 -62.5l-84 22l86 410h412v-86
h-336l-47 -211q23 12 61 26.5t92 14.5q65 0 116 -17.5t86.5 -50.5t54 -79.5t18.5 -104.5q0 -57 -20.5 -105.5t-58.5 -84.5t-91.5 -56t-118.5 -20q-102 0 -172 45t-117 121z" />
    <glyph glyph-name="uni2158" unicode="&#x2158;" horiz-adv-x="1569" 
d="M549 524h-92v172h-385v74l391 522h86v-510h104v-86h-104v-172zM586 0h-109l574 1290h108zM457 782v355l-269 -355h269zM1018 203q37 -59 86.5 -91t126.5 -32q45 0 81 13.5t61 37.5t38.5 56.5t13.5 70.5q0 81 -48 123.5t-138 42.5q-62 0 -106 -27.5t-72 -62.5l-84 22
l86 410h412v-86h-336l-47 -211q23 12 61 26.5t92 14.5q65 0 116 -17.5t86.5 -50.5t54 -79.5t18.5 -104.5q0 -57 -20.5 -105.5t-58.5 -84.5t-91.5 -56t-118.5 -20q-102 0 -172 45t-117 121z" />
    <glyph glyph-name="uni2159" unicode="&#x2159;" horiz-adv-x="1458" 
d="M416 0h-109l574 1290h108zM330 524h-92v680h-95v84h187v-764zM1016 524q15 5 32.5 8t38.5 3q64 0 117 -21.5t91 -58.5t59.5 -87t21.5 -108t-22.5 -107.5t-62 -85.5t-92.5 -56.5t-114 -20.5q-64 0 -118 20.5t-93 56.5t-61 85.5t-22 107.5q0 47 14.5 90.5t36.5 75.5
l231 340h111zM1284 260q0 40 -15 74t-42 59t-63.5 39t-78.5 14q-44 0 -80 -14t-62.5 -39t-41 -59t-14.5 -74q0 -38 14.5 -71.5t41 -58.5t62.5 -39.5t80 -14.5q42 0 78.5 14.5t63.5 39.5t42 58.5t15 71.5z" />
    <glyph glyph-name="uni215A" unicode="&#x215a;" horiz-adv-x="1569" 
d="M147 727q38 -59 87 -91t126 -32q45 0 81.5 13.5t61.5 37.5t38.5 56.5t13.5 70.5q0 81 -48.5 123.5t-137.5 42.5q-62 0 -106.5 -27.5t-72.5 -62.5l-84 23l87 409h411v-86h-336l-47 -211q23 13 61.5 27t92.5 14q65 0 116 -17.5t86 -50.5t53.5 -79.5t18.5 -104.5
q0 -57 -20.5 -105.5t-58.5 -84t-91 -56t-119 -20.5q-102 0 -172 45.5t-116 120.5zM594 0h-109l574 1290h108zM1137 524q15 5 32.5 8t38.5 3q64 0 117 -21.5t91 -58.5t59.5 -87t21.5 -108t-22.5 -107.5t-62 -85.5t-92.5 -56.5t-114 -20.5q-64 0 -118 20.5t-93.5 56.5
t-61.5 85.5t-22 107.5q0 47 15 90.5t37 75.5l231 340h111zM1405 260q0 40 -15 74t-42 59t-63.5 39t-78.5 14q-44 0 -80 -14t-62.5 -39t-41 -59t-14.5 -74q0 -38 14.5 -71.5t41 -58.5t62.5 -39.5t80 -14.5q42 0 78.5 14.5t63.5 39.5t42 58.5t15 71.5z" />
    <glyph glyph-name="oneeighth" unicode="&#x215b;" horiz-adv-x="1460" 
d="M418 0h-109l574 1290h108zM330 524h-92v680h-95v84h187v-764zM1249 426q57 -29 93 -81t36 -118q0 -51 -21.5 -95t-58.5 -76t-86 -50t-104 -18t-104 18t-86 50t-58.5 76t-21.5 95q0 66 36 118t93 81q-39 25 -61.5 63t-22.5 86q0 43 18 79t49 62.5t72 41t86 14.5
q46 0 87 -14.5t71.5 -41t48.5 -62.5t18 -79q0 -48 -23.5 -86t-60.5 -63zM1239 575q0 25 -10 46t-27.5 36.5t-41.5 24t-52 8.5q-27 0 -50.5 -8.5t-41 -24t-27.5 -36.5t-10 -46q0 -24 10 -44.5t27.5 -35.5t41 -23.5t50.5 -8.5q28 0 52 9t41.5 24t27.5 35.5t10 43.5zM1284 227
q0 32 -13.5 60t-37.5 49t-56 33t-69 12q-38 0 -70 -12t-55.5 -33t-37 -49t-13.5 -60q0 -33 13.5 -61t37 -48.5t55.5 -32t70 -11.5q37 0 69 11.5t56 32t37.5 48.5t13.5 61z" />
    <glyph glyph-name="threeeighths" unicode="&#x215c;" horiz-adv-x="1569" 
d="M150 727q18 -29 39 -51.5t46 -38.5t56 -24.5t69 -8.5q45 0 81.5 13t61.5 36.5t38.5 55t13.5 69.5q0 81 -49 123.5t-141 42.5q-23 0 -44.5 -6t-37.5 -13q-19 -8 -35 -18l-45 60l270 239h-352v84h495v-73l-210 -189q56 -6 101 -26t76.5 -52t48.5 -75t17 -95
q0 -57 -20.5 -105t-58.5 -83.5t-91 -55.5t-119 -20q-102 0 -172 45.5t-116 120.5zM575 0h-108l573 1290h109zM1354 426q57 -29 93 -81t36 -118q0 -51 -21.5 -95t-58.5 -76t-86.5 -50t-104.5 -18t-104 18t-86 50t-58.5 76t-21.5 95q0 66 36 118t93 81q-38 25 -61 63t-23 86
q0 43 18.5 79t49 62.5t71.5 41t86 14.5q46 0 87 -14.5t72 -41t49 -62.5t18 -79q0 -48 -23.5 -86t-60.5 -63zM1343 575q0 25 -10 46t-27.5 36.5t-41.5 24t-52 8.5q-27 0 -50.5 -8.5t-41 -24t-27.5 -36.5t-10 -46q0 -24 10 -44.5t27.5 -35.5t41 -23.5t50.5 -8.5q28 0 52 9
t41.5 24t27.5 35.5t10 43.5zM1389 227q0 32 -13.5 60t-37.5 49t-56.5 33t-69.5 12q-38 0 -70 -12t-55.5 -33t-37 -49t-13.5 -60q0 -33 13.5 -61t37 -48.5t55.5 -32t70 -11.5q37 0 69.5 11.5t56.5 32t37.5 48.5t13.5 61z" />
    <glyph glyph-name="fiveeighths" unicode="&#x215d;" horiz-adv-x="1569" 
d="M147 727q38 -59 87 -91t126 -32q45 0 81.5 13.5t61.5 37.5t38.5 56.5t13.5 70.5q0 81 -48.5 123.5t-137.5 42.5q-62 0 -106.5 -27.5t-72.5 -62.5l-84 23l87 409h411v-86h-336l-47 -211q23 13 61.5 27t92.5 14q65 0 116 -17.5t86 -50.5t53.5 -79.5t18.5 -104.5
q0 -57 -20.5 -105.5t-58.5 -84t-91 -56t-119 -20.5q-102 0 -172 45.5t-116 120.5zM575 0h-108l573 1290h109zM1354 426q57 -29 93 -81t36 -118q0 -51 -21.5 -95t-58.5 -76t-86.5 -50t-104.5 -18t-104 18t-86 50t-58.5 76t-21.5 95q0 66 36 118t93 81q-38 25 -61 63t-23 86
q0 43 18.5 79t49 62.5t71.5 41t86 14.5q46 0 87 -14.5t72 -41t49 -62.5t18 -79q0 -48 -23.5 -86t-60.5 -63zM1343 575q0 25 -10 46t-27.5 36.5t-41.5 24t-52 8.5q-27 0 -50.5 -8.5t-41 -24t-27.5 -36.5t-10 -46q0 -24 10 -44.5t27.5 -35.5t41 -23.5t50.5 -8.5q28 0 52 9
t41.5 24t27.5 35.5t10 43.5zM1389 227q0 32 -13.5 60t-37.5 49t-56.5 33t-69.5 12q-38 0 -70 -12t-55.5 -33t-37 -49t-13.5 -60q0 -33 13.5 -61t37 -48.5t55.5 -32t70 -11.5q37 0 69.5 11.5t56.5 32t37.5 48.5t13.5 61z" />
    <glyph glyph-name="seveneighths" unicode="&#x215e;" horiz-adv-x="1569" 
d="M535 0h-109l573 1290h109zM283 524h-103l328 678h-416v86h524v-69zM1354 426q57 -29 93 -81t36 -118q0 -51 -21.5 -95t-58.5 -76t-86.5 -50t-104.5 -18t-104 18t-86 50t-58.5 76t-21.5 95q0 66 36 118t93 81q-38 25 -61 63t-23 86q0 43 18.5 79t49 62.5t71.5 41t86 14.5
q46 0 87 -14.5t72 -41t49 -62.5t18 -79q0 -48 -23.5 -86t-60.5 -63zM1343 575q0 25 -10 46t-27.5 36.5t-41.5 24t-52 8.5q-27 0 -50.5 -8.5t-41 -24t-27.5 -36.5t-10 -46q0 -24 10 -44.5t27.5 -35.5t41 -23.5t50.5 -8.5q28 0 52 9t41.5 24t27.5 35.5t10 43.5zM1389 227
q0 32 -13.5 60t-37.5 49t-56.5 33t-69.5 12q-38 0 -70 -12t-55.5 -33t-37 -49t-13.5 -60q0 -33 13.5 -61t37 -48.5t55.5 -32t70 -11.5q37 0 69.5 11.5t56.5 32t37.5 48.5t13.5 61z" />
    <glyph glyph-name="zero.dnom" unicode="&#xf600;" horiz-adv-x="653" 
d="M612 254q0 -58 -21.5 -106.5t-59 -84t-89 -55.5t-112.5 -20q-62 0 -115 20t-91.5 55.5t-60.5 84t-22 106.5v254q0 58 22 106.5t60.5 83.5t91.5 54.5t115 19.5q61 0 112.5 -19.5t89 -54.5t59 -83.5t21.5 -106.5v-254zM520 508q0 38 -14.5 70.5t-40 56.5t-60.5 37.5
t-75 13.5q-42 0 -77.5 -13.5t-61 -37.5t-40 -56.5t-14.5 -70.5v-254q0 -38 14.5 -71t40 -57t61 -38t77.5 -14q40 0 75 14t60.5 38t40 57t14.5 71v254z" />
    <glyph glyph-name="one.dnom" unicode="&#xf601;" horiz-adv-x="268" 
d="M227 0h-92v680h-94v84h186v-764z" />
    <glyph glyph-name="two.dnom" unicode="&#xf602;" horiz-adv-x="637" 
d="M596 0h-545v74l322 276q27 23 48.5 44t36.5 43.5t23 48.5t8 59q0 30 -11.5 56t-32.5 44.5t-50.5 29.5t-66.5 11q-77 0 -123.5 -32t-81.5 -89l-82 43q24 38 52 68.5t63 51.5t77.5 32.5t94.5 11.5q58 0 106.5 -17.5t83 -48.5t53.5 -72t19 -89q0 -43 -12.5 -79t-34 -66.5
t-50 -57.5t-59.5 -53l-241 -205h403v-84z" />
    <glyph glyph-name="three.dnom" unicode="&#xf603;" horiz-adv-x="659" 
d="M119 203q18 -29 39 -51.5t46.5 -38.5t56 -24.5t69.5 -8.5q45 0 81 13t61 36.5t38.5 55t13.5 69.5q0 80 -48.5 123t-141.5 43q-23 0 -44.5 -6t-37.5 -13q-19 -8 -35 -18l-45 59l270 240h-352v84h496v-74l-211 -188q56 -6 101 -26.5t76.5 -52.5t48.5 -75t17 -94
q0 -57 -20.5 -105.5t-58 -83.5t-91 -55t-118.5 -20q-102 0 -172.5 45t-116.5 121z" />
    <glyph glyph-name="four.dnom" unicode="&#xf604;" horiz-adv-x="664" 
d="M518 0h-92v172h-385v74l391 522h86v-510h105v-86h-105v-172zM426 258v354l-268 -354h268z" />
    <glyph glyph-name="five.dnom" unicode="&#xf605;" horiz-adv-x="659" 
d="M117 203q37 -59 86.5 -91t126.5 -32q45 0 81 13.5t61 37.5t38.5 56.5t13.5 70.5q0 81 -48 123.5t-138 42.5q-62 0 -106 -27.5t-72 -62.5l-84 22l86 410h411v-86h-335l-48 -211q23 12 61.5 26.5t92.5 14.5q65 0 116 -17.5t86 -50.5t53.5 -79.5t18.5 -104.5
q0 -57 -20.5 -105.5t-58 -84.5t-91 -56t-118.5 -20q-102 0 -172.5 45t-116.5 121z" />
    <glyph glyph-name="six.dnom" unicode="&#xf606;" horiz-adv-x="668" 
d="M266 524q16 5 33 8t39 3q64 0 117 -21.5t91 -58.5t59.5 -87t21.5 -108t-22.5 -107.5t-62 -85.5t-92.5 -56.5t-114 -20.5q-64 0 -118 20.5t-93.5 56.5t-61.5 85.5t-22 107.5q0 47 14.5 90.5t36.5 75.5l232 340h110zM535 260q0 40 -15 74t-42 59t-63.5 39t-78.5 14
q-44 0 -80.5 -14t-63 -39t-41 -59t-14.5 -74q0 -38 14.5 -71.5t41 -58.5t63 -39.5t80.5 -14.5q42 0 78.5 14.5t63.5 39.5t42 58.5t15 71.5z" />
    <glyph glyph-name="seven.dnom" unicode="&#xf607;" horiz-adv-x="606" 
d="M231 0h-102l328 678h-416v86h524v-70z" />
    <glyph glyph-name="eight.dnom" unicode="&#xf608;" horiz-adv-x="623" 
d="M453 426q57 -29 93 -81t36 -118q0 -51 -21.5 -95t-58.5 -76t-86.5 -50t-104.5 -18t-104 18t-86 50t-58.5 76t-21.5 95q0 66 36 118t93 81q-38 25 -61 63t-23 86q0 43 18 79t49 62.5t72 41t86 14.5q46 0 87 -14.5t72 -41t49 -62.5t18 -79q0 -48 -23.5 -86t-60.5 -63z
M442 575q0 25 -10 46t-27.5 36.5t-41.5 24t-52 8.5q-27 0 -50.5 -8.5t-41 -24t-27.5 -36.5t-10 -46q0 -24 10 -44.5t27.5 -35.5t41 -23.5t50.5 -8.5q28 0 52 9t41.5 24t27.5 35.5t10 43.5zM487 227q0 32 -13.5 60t-37.5 49t-56 33t-69 12q-38 0 -70 -12t-55.5 -33t-37 -49
t-13.5 -60q0 -33 13.5 -61t37 -48.5t55.5 -32t70 -11.5q37 0 69 11.5t56 32t37.5 48.5t13.5 61z" />
    <glyph glyph-name="nine.dnom" unicode="&#xf609;" horiz-adv-x="668" 
d="M344 0h-108l165 240q-15 -5 -32.5 -7t-38.5 -2q-63 0 -116 21t-91.5 58t-60 87t-21.5 109q0 57 23 106t63 85.5t93.5 57.5t115.5 21t115.5 -21t92.5 -57.5t61 -85.5t22 -106q0 -48 -15 -92t-37 -76zM532 506q0 38 -14.5 71.5t-41 58.5t-62.5 39.5t-78 14.5
q-44 0 -81 -14.5t-63.5 -39.5t-41.5 -58.5t-15 -71.5q0 -40 15 -74.5t41.5 -59.5t63.5 -39t81 -14q42 0 78 14t62.5 39t41 59.5t14.5 74.5z" />
    <glyph glyph-name="onesuperior" unicode="&#xb9;" horiz-adv-x="268" 
d="M227 524h-92v680h-94v84h186v-764z" />
    <glyph glyph-name="twosuperior" unicode="&#xb2;" horiz-adv-x="637" 
d="M596 524h-545v74l322 276q27 23 48.5 44t36.5 43.5t23 48.5t8 59q0 30 -11.5 56t-32.5 44.5t-50.5 29.5t-66.5 11q-77 0 -123.5 -32t-81.5 -88l-82 43q24 37 52 67.5t63 51.5t77.5 32.5t94.5 11.5q58 0 106.5 -17.5t83 -48.5t53.5 -72t19 -89q0 -43 -12.5 -78.5
t-34 -66.5t-50 -58t-59.5 -53l-241 -205h403v-84z" />
    <glyph glyph-name="threesuperior" unicode="&#xb3;" horiz-adv-x="659" 
d="M119 727q18 -29 39 -51.5t46.5 -38.5t56 -24.5t69.5 -8.5q45 0 81 13t61 36.5t38.5 55t13.5 69.5q0 81 -48.5 123.5t-141.5 42.5q-23 0 -44.5 -6t-37.5 -13q-19 -8 -35 -18l-45 60l270 239h-352v84h496v-73l-211 -189q56 -6 101 -26t76.5 -52t48.5 -75t17 -95
q0 -57 -20.5 -105t-58 -83.5t-91 -55.5t-118.5 -20q-102 0 -172.5 45.5t-116.5 120.5z" />
    <glyph glyph-name="asterisk" unicode="*" horiz-adv-x="727" 
d="M608 891l-202 127v-232h-84v230l-203 -125l-43 72l207 131l-207 131l43 71l203 -125v232h84v-234l202 127l43 -71l-207 -131l207 -131z" />
    <glyph glyph-name="backslash" unicode="\" horiz-adv-x="543" 
d="M506 0h-100l-369 1403h100z" />
    <glyph glyph-name="bullet" unicode="&#x2022;" horiz-adv-x="586" 
d="M524 586q0 -49 -17.5 -91t-48.5 -73t-73.5 -48.5t-91.5 -17.5t-91.5 17.5t-73.5 48.5t-49 73t-18 91t18 91t49 72.5t73.5 48t91.5 17.5t91.5 -17.5t73.5 -48t48.5 -72.5t17.5 -91z" />
    <glyph glyph-name="colon" unicode=":" horiz-adv-x="266" 
d="M184 905h-102v119h102v-119zM184 0h-102v119h102v-119z" />
    <glyph glyph-name="comma" unicode="," horiz-adv-x="266" 
d="M145 -147h-55l35 147h-43v119h102v-111z" />
    <glyph glyph-name="ellipsis" unicode="&#x2026;" horiz-adv-x="799" 
d="M184 0h-102v119h102v-119zM451 0h-103v119h103v-119zM717 0h-103v119h103v-119z" />
    <glyph glyph-name="exclam" unicode="!" horiz-adv-x="283" 
d="M190 354h-98v1049h98v-1049zM190 0h-98v119h98v-119z" />
    <glyph glyph-name="exclamdown" unicode="&#xa1;" horiz-adv-x="283" 
d="M190 1284h-98v119h98v-119zM190 0h-98v1049h98v-1049z" />
    <glyph glyph-name="numbersign" unicode="#" horiz-adv-x="1100" 
d="M750 0h-97l29 344h-330l-28 -344h-97l29 344h-195v90h203l37 422h-240v90h246l31 348h96l-31 -348h330l31 348h96l-31 -348h209v-90h-215l-37 -422h252v-90h-260zM690 434l37 422h-330l-37 -422h330z" />
    <glyph glyph-name="period" unicode="." horiz-adv-x="266" 
d="M184 0h-102v119h102v-119z" />
    <glyph glyph-name="periodcentered" unicode="&#xb7;" horiz-adv-x="266" 
d="M184 524h-102v119h102v-119z" />
    <glyph glyph-name="question" unicode="?" horiz-adv-x="958" 
d="M479 354h-98v330q89 0 165.5 18.5t132.5 58.5t88 102.5t32 150.5q0 68 -22.5 125t-64 98t-100.5 63.5t-133 22.5q-73 0 -130 -21t-98.5 -58t-67.5 -87t-36 -108h-106q10 78 44 145t90 116.5t132.5 78t171.5 28.5t172.5 -30t132 -83.5t84 -127.5t29.5 -162
q0 -102 -36 -177.5t-95 -126t-134 -78t-153 -34.5v-244zM479 0h-98v119h98v-119z" />
    <glyph glyph-name="questiondown" unicode="&#xbf;" horiz-adv-x="907" 
d="M557 1284h-98v119h98v-119zM897 354q-10 -78 -44 -145.5t-90 -117t-132.5 -77.5t-171.5 -28t-172.5 30t-132 83.5t-84 127.5t-29.5 162q0 102 36 177.5t95 126t134 78t153 34.5v242h98v-328q-89 0 -165.5 -18.5t-132.5 -58.5t-88 -102.5t-32 -150.5q0 -68 22.5 -125
t64 -98t100.5 -63.5t133 -22.5q73 0 130 21t98.5 58t67.5 87t36 108h106z" />
    <glyph glyph-name="quotedbl" unicode="&#x22;" horiz-adv-x="446" 
d="M170 1130h-74l-14 273h102zM350 1130h-74l-14 273h103z" />
    <glyph glyph-name="quotesingle" unicode="'" horiz-adv-x="266" 
d="M170 1130h-74l-14 273h102z" />
    <glyph glyph-name="semicolon" unicode=";" horiz-adv-x="266" 
d="M184 905h-102v119h102v-119zM145 -147h-55l35 147h-43v119h102v-111z" />
    <glyph glyph-name="slash" unicode="/" horiz-adv-x="543" 
d="M137 0h-100l369 1401h100z" />
    <glyph glyph-name="underscore" unicode="_" horiz-adv-x="1024" 
d="M1026 -258h-1028v94h1028v-94z" />
    <glyph glyph-name="braceleft" unicode="{" horiz-adv-x="543" 
d="M502 -326h-62q-83 0 -149 20.5t-112.5 59t-71.5 92.5t-25 121q0 69 21.5 127t47 110.5t47 101.5t21.5 100q0 46 -26 70t-89 24h-43v75h43q63 0 89 25t26 72q0 50 -21.5 99t-47 101.5t-47 111t-21.5 126.5q0 67 25 121.5t71.5 93t112.5 59.5t149 21h62v-88h-62
q-128 0 -192 -53.5t-64 -149.5q0 -65 19.5 -118t43 -103.5t43 -101.5t19.5 -111q0 -38 -12 -65t-26 -44q-17 -20 -38 -32q21 -12 38 -32q14 -17 26 -44.5t12 -65.5q0 -60 -19.5 -111t-43 -101t-43 -104t-19.5 -118q0 -96 64 -149.5t192 -53.5h62v-86z" />
    <glyph glyph-name="braceright" unicode="}" horiz-adv-x="543" 
d="M41 -326v86h61q128 0 192 53.5t64 149.5q0 64 -19.5 118t-43 104t-43 101t-19.5 111q0 38 12 65.5t26 44.5q17 20 38 32q-21 12 -38 32q-14 17 -26 44t-12 65q0 60 19.5 111t43 101.5t43 103.5t19.5 118q0 96 -64 149.5t-192 53.5h-61v88h61q83 0 149.5 -21t113 -59.5
t71.5 -93t25 -121.5q0 -68 -21.5 -126.5t-47 -111t-47 -101.5t-21.5 -99q0 -47 25.5 -72t88.5 -25h43v-75h-43q-63 0 -88.5 -24t-25.5 -70q0 -51 21.5 -100t47 -101.5t47 -110.5t21.5 -127q0 -67 -25 -121t-71.5 -92.5t-113 -59t-149.5 -20.5h-61z" />
    <glyph glyph-name="bracketleft" unicode="[" horiz-adv-x="459" 
d="M418 -328h-326v1731h326v-94h-228v-1542h228v-95z" />
    <glyph glyph-name="bracketright" unicode="]" horiz-adv-x="459" 
d="M367 -328h-326v95h227v1542h-227v94h326v-1731z" />
    <glyph glyph-name="parenleft" unicode="(" horiz-adv-x="498" 
d="M354 -336q-71 80 -127.5 179.5t-95.5 213t-59.5 236.5t-20.5 250t20.5 250t59.5 236t95.5 212.5t127.5 179.5l72 -51q-71 -80 -123 -177.5t-86 -204.5t-50.5 -220.5t-16.5 -224.5t16.5 -224.5t50.5 -221t86 -205t123 -177.5z" />
    <glyph glyph-name="parenright" unicode=")" horiz-adv-x="498" 
d="M72 -285q71 80 123 177.5t86 205t50.5 221t16.5 224.5t-16.5 224.5t-50.5 220.5t-86 204.5t-123 177.5l71 51q72 -80 128 -179.5t95 -212.5t59.5 -236t20.5 -250t-20.5 -250t-59.5 -236.5t-95 -213t-128 -179.5z" />
    <glyph glyph-name="emdash" unicode="&#x2014;" horiz-adv-x="1690" 
d="M1628 539h-1567v94h1567v-94z" />
    <glyph glyph-name="endash" unicode="&#x2013;" horiz-adv-x="901" 
d="M840 539h-779v94h779v-94z" />
    <glyph glyph-name="figuredash" unicode="&#x2012;" horiz-adv-x="901" 
d="M840 539h-779v94h779v-94z" />
    <glyph glyph-name="hyphen" unicode="-" horiz-adv-x="715" 
d="M633 539h-551v94h551v-94z" />
    <glyph glyph-name="guillemotleft" unicode="&#xab;" horiz-adv-x="784" 
d="M438 168h-104l-252 418l252 418h104l-252 -418zM702 168h-104l-252 418l252 418h104l-251 -418z" />
    <glyph glyph-name="guillemotright" unicode="&#xbb;" horiz-adv-x="784" 
d="M186 168h-104l252 418l-252 418h104l252 -418zM451 168h-105l252 418l-252 418h105l251 -418z" />
    <glyph glyph-name="guilsinglleft" unicode="&#x2039;" horiz-adv-x="520" 
d="M438 168h-104l-252 418l252 418h104l-252 -418z" />
    <glyph glyph-name="guilsinglright" unicode="&#x203a;" horiz-adv-x="520" 
d="M186 168h-104l252 418l-252 418h104l252 -418z" />
    <glyph glyph-name="quotedblbase" unicode="&#x201e;" horiz-adv-x="446" 
d="M145 -147h-55l35 147h-43v119h102v-111zM326 -147h-56l35 147h-43v119h103v-111z" />
    <glyph glyph-name="quotedblleft" unicode="&#x201c;" horiz-adv-x="446" 
d="M184 1137h-102v110l39 156h55l-35 -148h43v-118zM365 1137h-103v110l39 156h55l-34 -148h43v-118z" />
    <glyph glyph-name="quotedblright" unicode="&#x201d;" horiz-adv-x="446" 
d="M145 1137h-55l35 147h-43v119h102v-111zM326 1137h-56l35 147h-43v119h103v-111z" />
    <glyph glyph-name="quoteleft" unicode="&#x2018;" horiz-adv-x="266" 
d="M184 1137h-102v110l39 156h55l-35 -148h43v-118z" />
    <glyph glyph-name="quoteright" unicode="&#x2019;" horiz-adv-x="266" 
d="M145 1137h-55l35 147h-43v119h102v-111z" />
    <glyph glyph-name="quotesinglbase" unicode="&#x201a;" horiz-adv-x="266" 
d="M145 -147h-55l35 147h-43v119h102v-111z" />
    <glyph glyph-name="space" unicode=" " horiz-adv-x="410" 
 />
    <glyph glyph-name="uni00A0" unicode="&#xa0;" horiz-adv-x="860" 
 />
    <glyph glyph-name="space.thin" horiz-adv-x="410" 
 />
    <glyph glyph-name="space.em" horiz-adv-x="2048" 
 />
    <glyph glyph-name="space.en" horiz-adv-x="1024" 
 />
    <glyph glyph-name="florin" unicode="&#x192;" horiz-adv-x="618" 
d="M303 -39q0 -85 -26 -145.5t-67 -99t-91 -56.5t-99 -18v100q34 0 67 9t59.5 33.5t42.5 67t16 109.5v973h-154v90h154v68q0 87 26 146.5t68 96t94 52.5t105 16h67v-96h-65q-35 0 -70 -9.5t-63 -33.5t-46 -66t-18 -106v-68h264v-90h-264v-973z" />
    <glyph glyph-name="cent" unicode="&#xa2;" horiz-adv-x="1049" 
d="M1038 242q-33 -55 -75.5 -100t-95.5 -78t-117 -52.5t-140 -23.5v-160h-90v160q-104 8 -190 52t-148 114.5t-96.5 163t-34.5 198.5q0 105 34.5 196.5t96.5 161t148 113t190 51.5v172h90v-172q79 -4 143.5 -24t117 -53t94 -78.5t73.5 -100.5l-77 -53q-28 45 -62 82.5
t-77 64.5t-95.5 43.5t-116.5 20.5v-854q65 4 117.5 20t95.5 43t76.5 64t61.5 82zM520 940q-83 -8 -151 -44t-116 -93t-74.5 -131t-26.5 -158t26.5 -158t74.5 -131t116 -93.5t151 -45.5v854z" />
    <glyph glyph-name="dollar" unicode="$" horiz-adv-x="930" 
d="M520 -174h-90v156q-166 12 -264 101.5t-115 252.5h105q12 -115 82 -183.5t192 -82.5v548q-62 18 -120.5 40.5t-104 61t-73.5 97t-28 148.5q0 70 24 128t67.5 101t103.5 68.5t131 31.5v181h90v-181q76 -6 137.5 -31.5t105.5 -68t69 -100t30 -127.5h-102q-4 43 -19.5 82.5
t-45 72t-73 54.5t-102.5 30v-512l87 -25t83.5 -31.5t74 -44.5t60 -62.5t40 -86.5t14.5 -116q0 -73 -25.5 -134.5t-72 -107t-113 -73t-148.5 -31.5v-156zM430 1206q-50 -5 -90.5 -24t-69.5 -50t-45 -72.5t-16 -92.5q0 -58 17 -98.5t47 -68.5t70.5 -46.5t86.5 -32.5v485z
M520 70q122 8 190 74.5t68 179.5q0 66 -21 110.5t-56 75t-82 50t-99 34.5v-524z" />
    <glyph glyph-name="sterling" unicode="&#xa3;" horiz-adv-x="1049" 
d="M993 90q-26 -32 -62 -57q-32 -21 -78.5 -38.5t-109.5 -17.5q-67 0 -121 19t-104.5 42.5t-101 42.5t-109.5 19q-54 0 -96.5 -16.5t-72.5 -36.5q-35 -24 -62 -53v98q20 24 48 44q24 17 58.5 34t79.5 25v356h-184v94h184v279q0 78 25.5 148t75.5 122.5t122.5 83.5t167.5 31
q116 0 200.5 -45t141.5 -123l-80 -58q-46 63 -111 97t-153 34q-68 0 -121.5 -22t-90 -61t-55.5 -93t-19 -118v-275h342v-94h-342v-352q57 -7 105 -27l94.5 -41t93.5 -37t102 -16t98.5 17t73.5 38q35 24 61 55v-98z" />
    <glyph glyph-name="yen" unicode="&#xa5;" horiz-adv-x="918" 
d="M842 311h-328v-311h-98v311h-338v90h338v168h-338v90h317l-362 621h114l318 -567l309 567h111l-350 -621h307v-90h-328v-168h328v-90z" />
    <glyph glyph-name="approxequal" unicode="&#x2248;" horiz-adv-x="901" 
d="M840 741q-22 -30 -54 -53q-27 -20 -67 -36.5t-94 -16.5q-56 0 -100.5 14t-86 31t-83.5 31t-91 14q-45 0 -82 -15.5t-64 -34.5q-32 -22 -57 -50v102q22 29 55 53q27 20 68 37t95 17q55 0 100 -14t86 -31.5t83 -31.5t91 -14q45 0 82.5 15.5t63.5 34.5q31 22 55 51v-103z
M840 436q-22 -30 -54 -53q-27 -20 -67 -36.5t-94 -16.5q-56 0 -100.5 14t-86 31t-83.5 31t-91 14q-45 0 -82 -16t-64 -35q-32 -22 -57 -50v103q22 29 55 53q27 20 68 36.5t95 16.5q55 0 100 -14t86 -31t83 -31t91 -14q45 0 82.5 15.5t63.5 34.5q31 22 55 51v-103z" />
    <glyph glyph-name="asciitilde" unicode="~" horiz-adv-x="901" 
d="M840 590q-22 -30 -54 -54q-27 -20 -67 -36.5t-94 -16.5q-56 0 -100.5 14t-86 31t-83.5 31t-91 14q-45 0 -82 -15.5t-64 -34.5q-32 -22 -57 -50v102q22 29 55 53q27 20 68 37t95 17q55 0 100 -14t86 -31t83 -31t91 -14q45 0 82.5 15.5t63.5 34.5q31 22 55 50v-102z" />
    <glyph glyph-name="divide" unicode="&#xf7;" horiz-adv-x="901" 
d="M496 856h-99v119h99v-119zM840 539h-779v94h779v-94zM496 184h-99v119h99v-119z" />
    <glyph glyph-name="equal" unicode="=" horiz-adv-x="901" 
d="M840 686h-779v94h779v-94zM840 381h-779v94h779v-94z" />
    <glyph glyph-name="greater" unicode="&#x3e;" horiz-adv-x="901" 
d="M840 532l-779 -333v106l684 281l-684 280v107l779 -334v-107z" />
    <glyph glyph-name="greaterequal" unicode="&#x2265;" horiz-adv-x="901" 
d="M840 670l-779 -334v106l684 281l-684 281v106l779 -334v-106zM840 0h-779v94h779v-94z" />
    <glyph glyph-name="integral" unicode="&#x222b;" horiz-adv-x="561" 
d="M303 -39q0 -85 -26 -145.5t-67 -99t-91 -56.5t-99 -18v100q34 0 67 9t59.5 33.5t42.5 67t16 109.5v1131q0 87 26.5 146.5t68.5 96t94.5 52.5t105.5 16v-96q-35 0 -70 -9.5t-63 -33.5t-46 -66t-18 -106v-1131z" />
    <glyph glyph-name="less" unicode="&#x3c;" horiz-adv-x="901" 
d="M840 199l-779 333v107l779 334v-107l-684 -280l684 -281v-106z" />
    <glyph glyph-name="lessequal" unicode="&#x2264;" horiz-adv-x="901" 
d="M840 336l-779 334v106l779 334v-106l-684 -281l684 -281v-106zM840 0h-779v94h779v-94z" />
    <glyph glyph-name="logicalnot" unicode="&#xac;" horiz-adv-x="901" 
d="M840 332h-99v354h-680v94h779v-448z" />
    <glyph glyph-name="minus" unicode="&#x2212;" horiz-adv-x="901" 
d="M840 539h-779v94h779v-94z" />
    <glyph glyph-name="multiply" unicode="&#xd7;" horiz-adv-x="901" 
d="M729 240l-276 278l-279 -278l-65 65l278 281l-276 276l63 68l279 -279l272 279l68 -66l-275 -278l275 -279z" />
    <glyph glyph-name="notequal" unicode="&#x2260;" horiz-adv-x="901" 
d="M840 381h-389l-70 -260h-98l69 260h-291v94h316l55 211h-371v94h396l71 267h99l-72 -267h285v-94h-310l-55 -211h365v-94z" />
    <glyph glyph-name="percent" unicode="%" horiz-adv-x="1487" 
d="M598 803q0 -53 -20 -99.5t-55 -81.5t-81.5 -55t-99.5 -20t-99.5 20t-81.5 55t-55 81.5t-20 99.5v239q0 53 20 100t55 81.5t81.5 54.5t99.5 20t99.5 -20t81.5 -54.5t55 -81.5t20 -100v-239zM514 0h-108l573 1290h108zM500 1042q0 34 -12.5 63.5t-33.5 51.5t-50 34.5
t-62 12.5t-62 -12.5t-50 -34.5t-33.5 -51.5t-12.5 -63.5v-239q0 -34 12.5 -63.5t33.5 -51.5t50 -34.5t62 -12.5t62 12.5t50 34.5t33.5 51.5t12.5 63.5v239zM1401 242q0 -53 -20 -100t-55 -81.5t-81.5 -54.5t-99.5 -20t-99.5 20t-81.5 54.5t-55 81.5t-20 100v239q0 53 20 100
t55 81.5t81.5 54.5t99.5 20t99.5 -20t81.5 -54.5t55 -81.5t20 -100v-239zM1303 481q0 34 -12.5 63.5t-33.5 51.5t-50 34.5t-62 12.5t-62 -12.5t-50 -34.5t-33.5 -51.5t-12.5 -63.5v-239q0 -34 12.5 -63.5t33.5 -51.5t50 -34.5t62 -12.5t62 12.5t50 34.5t33.5 51.5t12.5 63.5
v239z" />
    <glyph glyph-name="perthousand" unicode="&#x2030;" horiz-adv-x="2126" 
d="M598 803q0 -53 -20 -99.5t-55 -81.5t-81.5 -55t-99.5 -20t-99.5 20t-81.5 55t-55 81.5t-20 99.5v239q0 53 20 100t55 81.5t81.5 54.5t99.5 20t99.5 -20t81.5 -54.5t55 -81.5t20 -100v-239zM514 0h-108l573 1290h108zM500 1042q0 34 -12.5 63.5t-33.5 51.5t-50 34.5
t-62 12.5t-62 -12.5t-50 -34.5t-33.5 -51.5t-12.5 -63.5v-239q0 -34 12.5 -63.5t33.5 -51.5t50 -34.5t62 -12.5t62 12.5t50 34.5t33.5 51.5t12.5 63.5v239zM1401 244q0 -53 -20 -100t-55 -81.5t-81.5 -54.5t-99.5 -20t-99.5 20t-81.5 54.5t-55 81.5t-20 100v239q0 53 20 100
t55 81.5t81.5 54.5t99.5 20t99.5 -20t81.5 -54.5t55 -81.5t20 -100v-239zM2040 244q0 -53 -20 -100t-55 -81.5t-81.5 -54.5t-99.5 -20t-100 20t-81.5 54.5t-54.5 81.5t-20 100v239q0 53 20 100t54.5 81.5t81.5 54.5t100 20t99.5 -20t81.5 -54.5t55 -81.5t20 -100v-239z
M1303 483q0 34 -12.5 63.5t-33.5 51.5t-50 34.5t-62 12.5t-62 -12.5t-50 -34.5t-33.5 -51.5t-12.5 -63.5v-239q0 -34 12.5 -63.5t33.5 -51.5t50 -34.5t62 -12.5t62 12.5t50 34.5t33.5 51.5t12.5 63.5v239zM1942 483q0 34 -12.5 63.5t-33.5 51.5t-50 34.5t-62 12.5t-62 -12.5
t-50 -34.5t-33.5 -51.5t-12.5 -63.5v-239q0 -34 12.5 -63.5t33.5 -51.5t50 -34.5t62 -12.5t62 12.5t50 34.5t33.5 51.5t12.5 63.5v239z" />
    <glyph glyph-name="plus" unicode="+" horiz-adv-x="901" 
d="M496 184h-99v355h-336v94h336v342h99v-342h344v-94h-344v-355z" />
    <glyph glyph-name="plusminus" unicode="&#xb1;" horiz-adv-x="901" 
d="M496 330h-99v354h-336v94h336v342h99v-342h344v-94h-344v-354zM840 0h-779v94h779v-94z" />
    <glyph glyph-name="ampersand" unicode="&#x26;" horiz-adv-x="1264" 
d="M1223 0h-164l-154 150q-80 -78 -184.5 -124t-237.5 -46q-94 0 -168.5 25t-126 70.5t-79 109t-27.5 139.5q0 77 23.5 132.5t63 95t91.5 67t109 49.5q-31 32 -56.5 68.5t-43.5 75t-28 78t-10 77.5q0 70 25 129t69 102t105 67.5t133 24.5q68 0 126 -20.5t100 -59t66 -93
t24 -122.5q0 -82 -28 -139.5t-74 -98t-105.5 -68.5t-122.5 -52l358 -338q40 54 70.5 115.5t52 127t33.5 132t16 129.5h103q-5 -70 -19.5 -145t-39.5 -149t-60.5 -145t-83.5 -133zM475 707q58 21 111 43.5t94 54.5t65.5 76.5t24.5 109.5q0 46 -15.5 82.5t-43.5 62t-67 39
t-87 13.5t-86.5 -15.5t-66.5 -43t-43 -66.5t-15 -86q0 -80 31.5 -143.5t97.5 -126.5zM442 596q-51 -21 -95.5 -44.5t-78.5 -55t-53.5 -73.5t-19.5 -99q0 -56 19.5 -102t57 -79t92 -51t123.5 -18q109 0 194.5 38t154.5 103z" />
    <glyph glyph-name="asciicircum" unicode="^" horiz-adv-x="901" 
d="M840 197h-107l-282 684l-283 -684h-107l336 778h107z" />
    <glyph glyph-name="at" unicode="@" horiz-adv-x="1747" 
d="M1382 -78q-103 -78 -230 -116.5t-269 -38.5q-114 0 -219.5 29.5t-197 82t-166 126.5t-128 162.5t-82.5 190t-29 209.5q0 119 28 227t80 201t126.5 169t168 129.5t203 82.5t232.5 29q135 0 246 -30t198.5 -82t152 -123t107 -152t63 -169t20.5 -175q0 -115 -33 -211.5
t-92.5 -166t-142.5 -108t-183 -38.5h-37v165q-27 -43 -64.5 -77t-83 -58t-97.5 -36.5t-107 -12.5q-94 0 -174 32.5t-138.5 91t-92 138t-33.5 174.5q0 94 33.5 173.5t92 137.5t138.5 90.5t174 32.5q54 0 105 -12t96.5 -35t83.5 -55.5t65 -73.5v162h90v-754q58 0 115 31.5
t101.5 89t72 139t27.5 181.5q0 73 -18 150t-55.5 149t-94.5 136t-135 112t-178 76t-222 28q-110 0 -208.5 -26.5t-182.5 -75.5t-151 -118t-114 -153t-72.5 -181.5t-25.5 -203.5q0 -97 26 -188.5t73.5 -171.5t114.5 -146.5t149 -114t177 -74t198 -26.5q261 0 452 144z
M846 217q72 0 135.5 27t111.5 74.5t75.5 111t27.5 137.5q0 73 -27.5 136.5t-75.5 110.5t-111.5 74t-135.5 27q-75 0 -138 -26t-108.5 -72.5t-71.5 -110.5t-26 -139q0 -77 26 -141t71.5 -110.5t108.5 -72.5t138 -26z" />
    <glyph glyph-name="bar" unicode="|" horiz-adv-x="270" 
d="M184 -293h-98v1696h98v-1696z" />
    <glyph glyph-name="brokenbar" unicode="&#xa6;" horiz-adv-x="270" 
d="M184 739h-98v664h98v-664zM184 -293h-98v662h98v-662z" />
    <glyph glyph-name="copyright" unicode="&#xa9;" horiz-adv-x="1284" 
d="M1243 823q0 -128 -45.5 -237.5t-126 -189.5t-190.5 -125.5t-238 -45.5t-238 45.5t-191 125.5t-127 189.5t-46 237.5t46 238t127 190.5t191 126t238 45.5t238 -45.5t190.5 -126t126 -190.5t45.5 -238zM643 297q113 0 209 40t166 110.5t109.5 166.5t39.5 209t-39.5 209.5
t-109.5 167.5t-166 111.5t-209 40.5t-209 -40.5t-166.5 -111.5t-110.5 -167.5t-40 -209.5t40 -209t110.5 -166.5t166.5 -110.5t209 -40zM926 655q-48 -72 -116.5 -109.5t-158.5 -37.5q-70 0 -128.5 24t-101 66.5t-66 100t-23.5 124.5q0 68 23.5 126t66 101t101 67t128.5 24
q90 0 158.5 -37.5t116.5 -110.5l-76 -49q-31 51 -83.5 81t-115.5 30q-51 0 -92.5 -17.5t-71.5 -48t-46.5 -73t-16.5 -93.5q0 -50 16.5 -92t46.5 -72.5t71.5 -47.5t92.5 -17q63 0 114.5 29.5t82.5 78.5z" />
    <glyph glyph-name="dagger" unicode="&#x2020;" horiz-adv-x="860" 
d="M479 -293h-98v1094h-320v94h320v395h98v-395h320v-94h-320v-1094z" />
    <glyph glyph-name="daggerdbl" unicode="&#x2021;" horiz-adv-x="860" 
d="M479 -293h-98v420h-320v94h320v574h-320v94h320v401h98v-401h320v-94h-320v-574h320v-94h-320v-420z" />
    <glyph glyph-name="degree" unicode="&#xb0;" horiz-adv-x="741" 
d="M659 1126q0 -60 -22.5 -112.5t-61.5 -91.5t-91.5 -61.5t-112.5 -22.5t-112.5 22.5t-92 61.5t-62 91.5t-22.5 112.5t22.5 112.5t62 92t92 62t112.5 22.5t112.5 -22.5t91.5 -62t61.5 -92t22.5 -112.5zM371 930q39 0 73.5 15t60.5 41t41 62t15 78t-15 78.5t-41 62.5
t-60.5 41t-73.5 15t-74 -15t-61 -41t-41 -62.5t-15 -78.5t15 -78t41 -62t61 -41t74 -15z" />
    <glyph glyph-name="paragraph" unicode="&#xb6;" horiz-adv-x="872" 
d="M594 0h-94v506q-96 0 -179.5 32.5t-146 92t-98 142t-35.5 183.5q0 97 35.5 179t98 141.5t146 93t179.5 33.5h94v-1403zM801 0h-90v1403h90v-1403z" />
    <glyph glyph-name="registered" unicode="&#xae;" horiz-adv-x="1284" 
d="M1243 823q0 -128 -45.5 -237.5t-126 -189.5t-190.5 -125.5t-238 -45.5t-238 45.5t-191 125.5t-127 189.5t-46 237.5t46 238t127 190.5t191 126t238 45.5t238 -45.5t190.5 -126t126 -190.5t45.5 -238zM643 297q113 0 209 40t166 110.5t109.5 166.5t39.5 209t-39.5 209.5
t-109.5 167.5t-166 111.5t-209 40.5t-209 -40.5t-166.5 -111.5t-110.5 -167.5t-40 -209.5t40 -209t110.5 -166.5t166.5 -110.5t209 -40zM612 494h-88v614h88v-94q12 17 31 34.5t44.5 31.5t59 23.5t74.5 10.5v-100q-112 0 -160.5 -51.5t-48.5 -157.5v-311z" />
    <glyph glyph-name="section" unicode="&#xa7;" horiz-adv-x="987" 
d="M209 176q4 -38 22.5 -73t54 -62t89 -43t125.5 -16q124 0 192 45.5t68 126.5q0 53 -30 85t-79 52t-112 31.5l-128.5 24t-128.5 29t-112 46.5t-79 76.5t-30 119.5q0 81 44.5 138t125.5 88q-49 29 -78.5 74.5t-29.5 117.5q0 59 26 108t73.5 84.5t115 55t151.5 19.5
q87 0 157.5 -20.5t121 -58t79.5 -90.5t34 -118h-103q-4 37 -22.5 72t-54 62t-89 43.5t-125.5 16.5q-123 0 -191.5 -45.5t-68.5 -126.5q0 -53 30 -85t79 -52t112 -32l128.5 -24t128.5 -29t112 -46.5t79 -76.5t30 -120q0 -80 -44.5 -137t-125.5 -88q49 -29 78.5 -74.5
t29.5 -117.5q0 -59 -26 -108.5t-73.5 -84.5t-115 -54.5t-151.5 -19.5q-87 0 -157.5 20.5t-121 58t-79.5 90.5t-34 118h103zM664 389q80 20 120.5 67.5t40.5 112.5q0 47 -23 78.5t-61.5 52t-89 33t-106 22.5l-113 20.5t-108.5 27.5q-81 -20 -121.5 -67.5t-40.5 -112.5
q0 -47 23 -78t61.5 -52t89 -33.5t106.5 -22.5l113 -20.5t109 -27.5z" />
    <glyph glyph-name="Euro" unicode="&#x20ac;" horiz-adv-x="1096" 
d="M995 154q-57 -79 -141.5 -123.5t-200.5 -44.5q-95 0 -167.5 31t-122.5 83.5t-75.5 122.5t-25.5 148v94h-184v92h184v180h-184v92h184v95q0 78 25.5 148t75.5 122.5t122.5 83.5t167.5 31q116 0 200.5 -45t141.5 -123l-80 -58q-46 63 -111 97t-153 34q-68 0 -121.5 -22
t-90 -61t-55.5 -93t-19 -118v-91h383v-92h-383v-180h383v-92h-383v-90q0 -64 19 -118t55.5 -93.5t90 -61.5t121.5 -22q88 0 153 34t111 97z" />
    <glyph glyph-name="uniF8FF" unicode="&#xf8ff;" horiz-adv-x="10240" 
d="M6355 0h-260v74q-69 -45 -146 -68.5t-163 -23.5q-110 0 -208 41t-172 113t-117.5 169.5t-43.5 210.5t43.5 211.5t117.5 172t172 115.5t208 42q86 0 163 -23.5t146 -68.5v430h260v-1395zM6734 1145h-252v250h252v-250zM7944 0h-258v74q-57 -45 -136 -68.5t-167 -23.5
q-111 0 -210.5 41t-173.5 113t-117.5 169.5t-43.5 210.5t43.5 211.5t117.5 172t173.5 115.5t210.5 42q88 0 165.5 -23.5t137.5 -68.5v430h258v-1395zM10066 1065q-21 0 -40.5 8.5t-33.5 22.5t-22.5 33.5t-8.5 41.5t8.5 42t22.5 34t33.5 22.5t40.5 8.5t40 -8.5t33.5 -22.5
t22.5 -34t8 -42t-8 -41.5t-22.5 -33.5t-33.5 -22.5t-40 -8.5zM10066 1079q18 0 34 7t28 19.5t19 29.5t7 36q0 39 -25.5 66t-62.5 27t-62.5 -27t-25.5 -66q0 -19 7 -36t19 -29.5t28 -19.5t34 -7zM10111 1116h-18l-29 49h-14v-49h-17v107h43q14 0 23.5 -8.5t9.5 -20.5
t-8 -18.5t-19 -8.5zM10070 1178q9 0 16 3.5t7 12.5q0 14 -19 14h-24v-30h20zM5157 0h-258v74q-66 -45 -145.5 -68.5t-170.5 -23.5q-107 0 -203.5 41t-169.5 113t-116 169.5t-43 210.5t43 211.5t116 172t169.5 115.5t203.5 42q177 0 316 -92v82h258v-1047zM9134 0h-260v74
q-63 -45 -139.5 -68.5t-157.5 -23.5q-113 0 -212.5 41t-174 113t-117.5 169.5t-43 210.5t43 211.5t117.5 172t174 115.5t212.5 42q77 0 155.5 -23.5t141.5 -68.5v82h260v-1047zM9509 332q0 -25 9.5 -52.5t33 -50.5t64.5 -38.5t104 -16.5q45 0 77.5 9.5t53.5 25.5t31 36
t10 40q0 37 -27 57.5t-71.5 32.5t-101.5 19.5t-116.5 18.5t-116.5 29.5t-101.5 53t-71.5 89t-27 136.5q0 70 30 131t85.5 106.5t135 72t177.5 26.5t177.5 -25t136.5 -70t90.5 -108.5t39.5 -140.5h-262q-2 21 -6.5 46t-21.5 46.5t-50.5 36t-91.5 14.5q-35 0 -65.5 -4.5
t-53 -15.5t-36.5 -29t-17 -45q0 -34 28 -54.5t73.5 -34t103.5 -23.5t118.5 -23t118.5 -33t103.5 -53.5t73.5 -84t28 -124.5q0 -95 -37.5 -161.5t-101.5 -108.5t-149.5 -61t-182.5 -19q-105 0 -189.5 26t-144.5 72.5t-93.5 111t-36.5 140.5h270zM3693 823h-3693v224h3693
v-224zM6734 0h-252v1047h252v-1047zM4899 516q0 61 -24.5 115.5t-66 95.5t-97.5 65.5t-119 24.5q-58 0 -111 -24.5t-93.5 -65.5t-64.5 -95.5t-24 -115.5q0 -62 24 -116.5t64.5 -95.5t93.5 -65t111 -24q63 0 119 24t97.5 65t66 95.5t24.5 116.5zM5794 215q61 0 115.5 24
t95.5 65t65.5 95.5t24.5 116.5q0 61 -24.5 115.5t-65.5 95.5t-95.5 65.5t-115.5 24.5q-64 0 -118.5 -24.5t-94 -65.5t-62 -95.5t-22.5 -115.5q0 -62 22.5 -116.5t62 -95.5t94 -65t118.5 -24zM7391 215q62 0 116 24t93.5 65t62.5 95.5t23 116.5q0 61 -23 115.5t-62.5 95.5
t-93.5 65.5t-116 24.5q-61 0 -115 -24.5t-95 -65.5t-65 -95.5t-24 -115.5q0 -62 24 -116.5t65 -95.5t95 -65t115 -24zM8587 215q58 0 110 24t91.5 65t62.5 95.5t23 116.5q0 61 -23 115.5t-62.5 95.5t-91.5 65.5t-110 24.5q-62 0 -117 -24.5t-96 -65.5t-65.5 -95.5
t-24.5 -115.5q0 -62 24.5 -116.5t65.5 -95.5t96 -65t117 -24zM3693 406h-3693v223h3693v-223zM3693 0h-3693v213h3693v-213z" />
    <glyph glyph-name="trademark" unicode="&#x2122;" horiz-adv-x="1759" 
d="M461 461h-74q-38 0 -76 11t-69 37.5t-50.5 69t-19.5 105.5v428h-111v80h111v213h86v-213h205v-80h-205v-428q0 -46 14 -73.5t35.5 -42t47.5 -19t51 -4.5h55v-84zM1677 461h-88v444q0 105 -51.5 159t-142.5 54q-47 0 -86.5 -14t-68 -42t-44.5 -69.5t-16 -95.5v-436h-88
v444q0 105 -52 159t-143 54q-102 0 -158.5 -58.5t-56.5 -172.5v-426h-88v731h88v-107q17 33 47 59q26 23 68.5 41.5t107.5 18.5q85 0 147 -39t93 -108q8 16 26 41t49 48.5t76 40.5t107 17q60 0 110.5 -20t86.5 -57.5t56.5 -90t20.5 -116.5v-459z" />
    <glyph glyph-name="commaaccentcomb" unicode="&#x326;" horiz-adv-x="0" 
d="M418 -395h-56l35 147h-43v119h103v-111z" />
    <glyph glyph-name="acute" unicode="&#xb4;" horiz-adv-x="819" 
d="M616 1329l-393 -121v92l393 132v-103z" />
    <glyph glyph-name="breve" unicode="&#x2d8;" horiz-adv-x="819" 
d="M682 1309q-26 -35 -65 -62q-33 -23 -84 -42t-123 -19t-122.5 19t-84.5 42q-40 27 -66 62v94q33 -35 75 -62q36 -23 86 -42t112 -19t112.5 19t85.5 42q41 27 74 62v-94z" />
    <glyph glyph-name="caron" unicode="&#x2c7;" horiz-adv-x="819" 
d="M668 1309l-258 -164l-258 164v102l258 -158l258 158v-102z" />
    <glyph glyph-name="cedilla" unicode="&#xb8;" horiz-adv-x="819" 
d="M309 -268q6 -41 30.5 -58.5t61.5 -17.5q39 0 63.5 23.5t24.5 60.5q0 34 -25 57t-69 23h-135l109 198h96l-64 -116q37 0 69 -12t55 -33t36.5 -51t13.5 -66q0 -35 -13.5 -66t-36.5 -53.5t-55 -35.5t-69 -13q-38 0 -70 10.5t-56 31t-39 50t-19 68.5h92z" />
    <glyph glyph-name="circumflex" unicode="&#x2c6;" horiz-adv-x="819" 
d="M668 1157l-258 158l-258 -158v103l258 163l258 -163v-103z" />
    <glyph glyph-name="dieresis" unicode="&#xa8;" horiz-adv-x="819" 
d="M313 1296h-98v107h98v-107zM604 1296h-98v107h98v-107z" />
    <glyph glyph-name="dotaccent" unicode="&#x2d9;" horiz-adv-x="819" 
d="M459 1296h-99v107h99v-107z" />
    <glyph glyph-name="grave" unicode="`" horiz-adv-x="819" 
d="M596 1208l-393 121v103l393 -132v-92z" />
    <glyph glyph-name="hungarumlaut" unicode="&#x2dd;" horiz-adv-x="819" 
d="M406 1143h-93l97 301h100zM610 1143h-88l111 301h96z" />
    <glyph glyph-name="macron" unicode="&#xaf;" horiz-adv-x="819" 
d="M668 1264h-516v90h516v-90z" />
    <glyph glyph-name="ogonek" unicode="&#x2db;" horiz-adv-x="819" 
d="M592 -322q-16 -11 -37 -19q-18 -8 -44.5 -13.5t-61.5 -5.5q-45 0 -82 11t-64 32t-42 51.5t-15 68.5q0 37 13 69.5t35.5 58t52 44t61.5 27.5l92 27l14 -29q-80 -29 -121 -78t-41 -106q0 -42 30 -65t81 -23q29 0 53 5t41 11q19 7 35 16v-82z" />
    <glyph glyph-name="ring" unicode="&#x2da;" horiz-adv-x="819" 
d="M586 1321q0 -37 -13.5 -69t-37.5 -56t-56.5 -37.5t-70.5 -13.5q-39 0 -71.5 13.5t-56.5 37.5t-37.5 56t-13.5 69t13.5 68.5t37.5 55t56.5 37t71.5 13.5q38 0 70.5 -13.5t56.5 -37t37.5 -55t13.5 -68.5zM408 1219q45 0 72.5 29.5t27.5 72.5t-27.5 71.5t-72.5 28.5
t-73 -28.5t-28 -71.5t28 -72.5t73 -29.5z" />
    <glyph glyph-name="tilde" unicode="&#x2dc;" horiz-adv-x="819" 
d="M696 1276q-17 -26 -41 -45q-20 -17 -50 -31t-68 -14q-42 0 -76 12t-65 27t-61.5 27t-64.5 12t-61 -12.5t-46 -26.5q-23 -18 -40 -39v86q17 25 41 44q20 17 50 30.5t69 13.5q41 0 74.5 -12t64.5 -26t61.5 -26t65.5 -12q34 0 60.5 12t46.5 27q22 17 40 39v-86z" />
    <glyph glyph-name="fi" unicode="&#xfb01;" horiz-adv-x="924" 
d="M303 0h-98v934h-154v90h154v68q0 87 26 146.5t68 96t94 52.5t105 16h67v-96h-65q-35 0 -70 -9.5t-63 -33.5t-46 -66t-18 -106v-68h264v-90h-264v-934zM821 1294h-100v109h100v-109zM821 0h-100v1024h100v-1024z" />
    <glyph glyph-name="fl" unicode="&#xfb02;" horiz-adv-x="924" 
d="M303 0h-98v934h-154v90h154v68q0 87 26 146.5t68 96t94 52.5t105 16h67v-96h-65q-35 0 -70 -9.5t-63 -33.5t-46 -66t-18 -106v-68h264v-90h-264v-934zM821 0h-100v1403h100v-1403z" />
    </font>
</defs>
</svg>
