<?xml version="1.0" encoding="utf-8"?>
<!-- Generator: Adobe Illustrator 18.1.0, SVG Export Plug-In . SVG Version: 6.00 Build 0)  -->
<!DOCTYPE svg PUBLIC "-//W3C//DTD SVG 1.1//EN" "http://www.w3.org/Graphics/SVG/1.1/DTD/svg11.dtd">
<svg version="1.1" id="Layer_1" xmlns="http://www.w3.org/2000/svg" xmlns:xlink="http://www.w3.org/1999/xlink" x="0px" y="0px"
	 viewBox="0 0 109.8 35.6" enable-background="new 0 0 109.8 35.6" xml:space="preserve">
<g>
	<g>
		<g>
			<path fill="#E9E9D9" d="M9.3,29.3H9.1c-1.5,0-2.6,0.9-2.6,2.5v1.4c0,1.5,1.2,2.5,2.6,2.5h0.2c1.6,0,2.5-0.7,2.5-2h-1.3
				c-0.1,0.5-0.4,0.7-1.2,0.7c-1,0-1.4-0.5-1.4-1.5h3.9v-1.1C11.8,30.2,10.8,29.3,9.3,29.3z M10.4,31.8H7.9v-0.1
				c0-0.8,0.5-1.1,1.2-1.1h0.1c0.7,0,1.2,0.4,1.2,1.1V31.8z M4,32.3c1,0,2.1-0.6,2.1-2.2c0-1.9-1.5-2.3-2.8-2.3H0v7.7h1.5V32l3,3.5
				h1.9l-2.8-3.2C3.7,32.3,3.8,32.3,4,32.3z M1.5,31.2v-2.1h1.7c0.8,0,1.5,0.3,1.5,1.1c0,0.8-0.4,1.1-1.5,1.1H1.5z M33.8,32.3l2.6-3
				h-1.8l-2.3,2.7v-4.2h-1.4v7.7h1.4v-2.7l2.4,2.7h1.9L33.8,32.3z M15.4,29.3h-0.3c-1.5,0-2.6,0.9-2.6,2.5v1.4
				c0,1.5,1.2,2.5,2.6,2.5h0.2c1.7,0,2.5-0.7,2.6-2h-1.3c-0.1,0.5-0.4,0.7-1.2,0.7c-1,0-1.4-0.5-1.4-1.5h3.9v-1.1
				C17.9,30.2,16.9,29.3,15.4,29.3z M16.5,31.8H14v-0.1c0-0.8,0.5-1.1,1.2-1.1h0.1c0.7,0,1.2,0.4,1.2,1.1V31.8z M27.6,29.3h-0.3
				c-1.5,0-2.5,1-2.5,2.5v1.4c0,1.6,1,2.5,2.5,2.5h0.3c1.5,0,2.5-0.9,2.5-2.5v-1.4C30.2,30.2,29.1,29.3,27.6,29.3z M28.7,33.1
				c0,0.8-0.6,1.2-1.2,1.2h-0.1c-0.6,0-1.2-0.4-1.2-1.2v-1.4c0-0.8,0.6-1.2,1.2-1.2h0.1c0.6,0,1.2,0.4,1.2,1.2V33.1z M21.6,29.3
				c-0.7,0-1.1,0.2-1.4,0.4v-1.9h-1.5v7.7H19l0.7-0.4c0.1,0.1,0.7,0.6,1.6,0.6h0.3c1.4,0,2.5-1,2.5-2.5v-1.4
				C24.1,30.3,23,29.3,21.6,29.3z M22.6,33.1c0,0.8-0.6,1.2-1.2,1.2h-0.1c-0.6,0-1.2-0.4-1.2-1.2v-1.4c0-0.8,0.6-1.2,1.2-1.2h0.1
				c0.6,0,1.2,0.4,1.2,1.2V33.1z"/>
		</g>
	</g>
	<path fill="#B72128" d="M12.1,18.6l4.7-8.4L17.5,0l-1.1,0L3.3,23.3l0.6,1L12.1,18.6z M13.2,20.6l-8.9,4.6l0.6,1l26.2,0l0.5-0.9
		l-8.9-4.7L13.2,20.6z M19.6,0l-1.1,0L19,10.2l4.7,8.5l8.3,5.8l0.6-1L19.6,0z"/>
</g>
<g>
	<g>
		<path fill="#E9E9D9" d="M47.8,0.7h0.4V0.5h-3c-1.3,0-1.6-0.1-2-0.2h-0.2l-0.4,4.5h0.2C44.1,1.7,45.4,0.7,47.8,0.7z M54.6,0.5h-3.1
			l-9.8,15.7h3.1L54.6,0.5z M48.8,16h-0.3v0.2h3.7c1.3,0,1.6,0.1,1.9,0.3h0.2c0.1-1.7,0.3-3.4,0.5-5h-0.2C52.9,15.1,52.6,16,48.8,16
			z M62.4,16h-1.9c-0.1,0-0.2,0-0.2-0.8V0.5h-4.6v0.2h1.6c0.1,0,0.2,0,0.2,0.8v13.7c0,0.8-0.1,0.8-0.2,0.8h-1.6v0.2h6.6V16z
			 M68.2,4.8c0-2.8-2-4.3-5.8-4.3h-0.7v0.2h0.6c2.4,0,3,1.8,3,3.8c0,3.1-1,4.6-3.1,4.6c-0.2,0-0.3,0-0.5,0v0.2c0.3,0,0.6,0,1,0
			C65.8,9.4,68.2,8,68.2,4.8z M70.5,7.2v6.3c0,2.1,1.3,2.9,3.1,2.9c0.7,0,1.2-0.1,1.6-0.2v-0.2c-0.2,0.1-0.5,0.2-0.8,0.2
			c-0.9,0-1.5-0.8-1.5-2.2V6h-0.1c-0.3,0.1-1.2,0.3-2,0.3h-1.7v0.2h0.8C70.5,6.5,70.5,6.5,70.5,7.2z M76.6,7.2v7.7
			c0,1.2,0.2,1.3,1.1,1.3h2.8V16h-1.1c-0.3,0-0.4,0-0.4-0.6V6h-0.1c-0.2,0.1-1.1,0.3-1.9,0.3h-1.8v0.2H76
			C76.6,6.5,76.6,6.5,76.6,7.2z M88.6,8.5v6.8c0,0.7-0.1,0.8-0.2,0.8h-1.3v0.2h5.4V16h-1.3C91,16,91,16,91,15.3V8.9
			C91,6.8,89.6,6,87.9,6c-0.7,0-1.2,0.1-1.6,0.2v0.2c0.2-0.1,0.5-0.2,0.8-0.2C88,6.3,88.6,7.1,88.6,8.5z M94.5,8.5v6.8
			c0,0.7-0.1,0.8-0.2,0.8H93v0.2h5.4V16h-1.3c-0.1,0-0.2,0-0.2-0.8V8.9c0-2.1-1.3-2.9-3.1-2.9c-0.7,0-1.2,0.1-1.6,0.2v0.2
			c0.2-0.1,0.5-0.2,0.8-0.2C93.9,6.3,94.5,7.1,94.5,8.5z M86.4,16h-1.3c-0.1,0-0.2,0-0.2-0.8V6h-0.2c-0.3,0.1-0.9,0.3-1.7,0.3h-1.9
			v0.2h0.8c0.6,0,0.6,0.1,0.6,0.7v8c0,0.7-0.1,0.8-0.2,0.8h-1.3v0.2h5.4V16z M105.4,6c-0.5,0-0.9,0.1-1.2,0.2v0.2
			c0.2-0.1,0.5-0.2,0.8-0.2c1.7,0,2.1,1.5,2.1,5c0,3.6-0.5,5-2.2,5c-0.3,0-0.5,0-0.7-0.1v0.2c0.3,0.1,0.6,0.1,1,0.1
			c2.2,0,4.6-2,4.6-5.3C109.8,8.2,107.9,6,105.4,6z M102.7,20.6V6h-0.1c-0.3,0.1-1,0.3-1.8,0.3h-2v0.2h0.8c0.5,0,0.6,0.2,0.6,0.9
			v13.2c0,0.7-0.1,0.7-0.2,0.7h-1.3v0.2h5.4v-0.2h-1.3C102.7,21.3,102.7,21.3,102.7,20.6z M46.4,34.3V19.6h-4.6v0.2h1.6
			c0.1,0,0.2,0,0.2,0.8v13.7c0,0.8-0.1,0.8-0.2,0.8h-1.6v0.2h7v-0.2h-2.2C46.5,35.2,46.4,35.1,46.4,34.3z M54,23.9
			c-0.1-1.4-0.2-2.8-0.3-4.2h-5.3v0.2h0.6c3.2,0,3.7,1.2,4.8,4H54z M48.2,27.3h-0.4v0.2h0.4c1.8,0,2.5,0.8,2.7,2.9h0.2v-6.2h-0.2
			C50.8,25.8,50.5,27.3,48.2,27.3z M63.2,34.6v-9.4h-0.1c-0.2,0.1-1.1,0.3-1.9,0.3h-1.8v0.2h0.8c0.5,0,0.6,0.1,0.6,0.7v7.7
			c0,1.2,0.2,1.3,1.1,1.3h2.8v-0.2h-1.1C63.3,35.2,63.2,35.1,63.2,34.6z M57.1,33.1v-8H57c-0.3,0.1-1.2,0.3-2,0.3h-1.7v0.2h0.8
			c0.6,0,0.6,0.1,0.6,0.7v6.3c0,2.1,1.3,2.9,3.1,2.9c0.7,0,1.2-0.1,1.6-0.2v-0.2c-0.2,0.1-0.5,0.2-0.8,0.2
			C57.7,35.4,57.1,34.5,57.1,33.1z M65.9,32.2h-0.2v3.4h0.2c0.2-0.1,0.4-0.2,0.6-0.2c0.4,0,1,0.2,1.9,0.2v-0.1
			C67,35.2,66.3,34.1,65.9,32.2z M66.4,27.2c0-1,0.7-1.6,1.6-1.8v-0.2c-1.4,0.3-2.3,1.3-2.3,3.1c0,4.5,6,2.1,6,5.1
			c0,1-0.7,1.7-1.7,2v0.2c1.3-0.3,2.5-1.3,2.5-3.3C72.5,27.6,66.4,30.2,66.4,27.2z M69.5,25.1v0.2c1.2,0.3,1.8,1.6,2.1,2.8h0.2v-3
			h-0.2c-0.1,0.1-0.3,0.2-0.5,0.2C70.7,25.4,70.2,25.2,69.5,25.1z M74.5,21c0,0.8,0.6,1.4,1.4,1.4c0.8,0,1.4-0.6,1.4-1.4
			s-0.6-1.4-1.4-1.4C75.1,19.6,74.5,20.3,74.5,21z M77.1,34.4v-9.3h-0.1c-0.2,0.1-1.1,0.3-1.9,0.3h-1.8v0.2h0.8
			c0.6,0,0.6,0.1,0.6,0.7v8c0,0.7-0.1,0.8-0.2,0.8h-1.3v0.2h5.4v-0.2h-1.3C77.2,35.2,77.1,35.1,77.1,34.4z M79.5,30.5
			c0,3.3,2.1,4.7,4.1,5.1v-0.2c-1.2-0.4-1.6-1-1.6-4.9c0-4.1,0.4-4.7,1.6-5.1v-0.2C81.6,25.7,79.5,27.1,79.5,30.5z M85.3,25.2v0.2
			c1.2,0.4,1.6,1,1.6,5.1c0,4-0.4,4.6-1.6,4.9v0.2c2-0.4,4.1-1.8,4.1-5.1C89.4,27.1,87.3,25.7,85.3,25.2z M94.3,34.4v-9.3h-0.2
			c-0.3,0.1-0.9,0.3-1.7,0.3h-1.9v0.2h0.8c0.6,0,0.6,0.1,0.6,0.7v8c0,0.7-0.1,0.8-0.2,0.8h-1.3v0.2h5.4v-0.2h-1.3
			C94.4,35.2,94.3,35.1,94.3,34.4z M100.5,34.4v-6.3c0-2.1-1.3-2.9-3.1-2.9c-0.7,0-1.2,0.1-1.6,0.2v0.2c0.2-0.1,0.5-0.2,0.8-0.2
			c0.9,0,1.5,0.8,1.5,2.2v6.8c0,0.7-0.1,0.8-0.2,0.8h-1.3v0.2h5.4v-0.2h-1.3C100.6,35.2,100.5,35.1,100.5,34.4z"/>
	</g>
</g>
</svg>
