<?xml version="1.0" encoding="utf-8"?>
<!-- Generator: Adobe Illustrator 18.1.0, SVG Export Plug-In . SVG Version: 6.00 Build 0)  -->
<!DOCTYPE svg PUBLIC "-//W3C//DTD SVG 1.1//EN" "http://www.w3.org/Graphics/SVG/1.1/DTD/svg11.dtd">
<svg version="1.1" id="Layer_1" xmlns="http://www.w3.org/2000/svg" xmlns:xlink="http://www.w3.org/1999/xlink" x="0px" y="0px"
	 viewBox="218.4 240.4 228.9 25.8" enable-background="new 218.4 240.4 228.9 25.8" xml:space="preserve">
<g>
	<g>
		<path fill="#E9E9D9" d="M274.1,252.6c0,0.3,0,1.7,0,2.3c0,2.9-1.9,4.4-4.7,4.5c-0.1,0-0.4,0-0.6,0c-2.7-0.1-4.7-1.7-4.7-4.5
			c0-0.3,0-1.9,0-2.3c0-2.9,1.9-4.4,4.7-4.5c0.1,0,0.3,0,0.5,0C272.2,248.2,274.1,249.7,274.1,252.6z M269,250.4
			c-1,0.1-2.1,0.6-2.1,2.2c0,0.8,0,1.2,0,2.4c0,1.5,1,2.1,2.1,2.2c0.1,0,0.3,0,0.3,0c1-0.1,2.1-0.6,2.1-2.2c0-0.6,0-1.1,0-2.4
			c0-1.5-1-2.1-2.1-2.2C269.2,250.4,269.1,250.4,269,250.4z"/>
		<path fill="#E9E9D9" d="M278.2,252.9c0,0,4-4.5,4.2-4.8c0.3,0,3.3,0,3.3,0l-4.9,5.5l5.1,5.6h-3.4l-4.4-4.9v4.9h-2.7v-13.9h2.7
			L278.2,252.9L278.2,252.9z"/>
		<path fill="#E9E9D9" d="M240.3,254.5c0,0,0-1.2,0-1.9c0-2.9-2-4.4-4.7-4.5c-0.1,0-0.4,0-0.5,0c-2.8,0.1-4.7,1.7-4.7,4.5
			c0,0.6,0-0.3,0,2.3s2,4.4,4.7,4.5c0.3,0,0.4,0,0.6,0c3.3,0,4.4-1.6,4.7-3.6c-0.3,0-2.1,0-2.4,0c-0.1,0.3-0.2,1.2-2.3,1.2
			c-0.3,0-0.9-0.1-1.2-0.2c-1.5-0.5-1.2-2.3-1.2-2.5L240.3,254.5L240.3,254.5z M233,252.4c0-1.5,1-2,2.2-2.1c0.1,0,0.3,0,0.3,0
			c1.2,0.1,2.2,0.7,2.2,2.1c0,0.1,0,0.1,0,0.2c-0.2,0-4.4,0-4.7,0C233,252.6,233,252.4,233,252.4z"/>
		<path fill="#E9E9D9" d="M251.5,254.5c0,0,0-1.2,0-1.9c0-2.9-2-4.4-4.7-4.5c-0.1,0-0.5,0-0.5,0c-2.8,0.1-4.7,1.7-4.7,4.5
			c0,0.6,0-0.3,0,2.3s2,4.4,4.7,4.5c0.3,0,0.4,0,0.6,0c3.3,0,4.4-1.6,4.7-3.6c-0.3,0-2.1,0-2.4,0c-0.1,0.3-0.2,1.2-2.3,1.2
			c-0.3,0-0.9-0.1-1.2-0.2c-1.5-0.5-1.2-2.3-1.2-2.5C244.4,254.5,251.5,254.5,251.5,254.5z M244.3,252.4c0-1.5,1-2,2.2-2.1
			c0.1,0,0.3,0,0.3,0c1.2,0.1,2.2,0.7,2.2,2.1c0,0.1,0,0.1,0,0.2c-0.2,0-4.4,0-4.7,0C244.3,252.6,244.3,252.4,244.3,252.4z"/>
		<path fill="#E9E9D9" d="M258.2,248.1c-1.2,0-2.1,0.3-2.6,0.8c0-0.2,0-3.5,0-3.5H253v13.8h0.4l1.2-0.7c0.2,0.2,1.3,1,3,1
			c0.2,0,0.3,0,0.6,0c2.7-0.1,4.7-1.7,4.7-4.5v-2.3C262.9,249.9,260.9,248.1,258.2,248.1z M260.2,255c0,1.5-1,2.1-2.1,2.2
			c-0.1,0-0.3,0-0.3,0c-1-0.1-2.1-0.6-2.1-2.2v-2.4c0-1.5,1-2.1,2.1-2.2c0.1,0,0.3,0,0.3,0c1,0.1,2.1,0.6,2.1,2.2V255z"/>
		<path fill="#E9E9D9" d="M230.1,259.2l-5.1-5.7c0.3,0,0.5,0,0.8,0c1.7,0,4-1.1,4-3.9c0-3.4-2.9-4.2-5.3-4.2c-2.5,0-6,0-6,0v13.8
			h2.7V253l5.6,6.2C226.6,259.2,230.1,259.2,230.1,259.2z M221.1,247.8c0,0,1.7,0,3.3,0c1.5,0,2.9,0.4,2.9,1.9s-0.8,1.9-2.9,1.9
			c-2.1,0-3.3,0-3.3,0V247.8z"/>
	</g>
	<g>
		<path fill="#B21E28" d="M308.7,258.4l-6.6-3.3H302h-6.8h-0.1l-6.5,3.3c0,0-0.2,0.3,0.2,0.8h8.9h2.1h8.9
			C308.9,258.8,308.7,258.4,308.7,258.4z"/>
		<path fill="#B21E28" d="M288.2,258l6.2-4l0.1-0.1l3.5-5.8l0.1-0.1l0.5-7.3c0,0-0.3-0.3-0.8-0.3l-4.5,7.6l-1,1.8l-4.5,7.6
			C287.8,257.9,288.2,258,288.2,258z"/>
		<path fill="#B21E28" d="M309.2,258l-6.2-4l-0.1-0.1l-3.5-5.8l-0.1-0.1l-0.5-7.3c0,0,0.3-0.3,0.8-0.3l4.5,7.6l1,1.8l4.5,7.6
			C309.5,257.9,309.2,258,309.2,258z"/>
	</g>
</g>
<g>
	<g>
		<path fill="#E9E9D9" d="M324.8,260.4h-0.3v0.2h3.8c1.3,0,1.7,0.1,2,0.3h0.2c0.1-1.8,0.3-3.6,0.5-5.3h-0.2
			C329.1,259.4,328.8,260.4,324.8,260.4z M323.8,244.2h0.4V244h-3.1c-1.3,0-1.7-0.1-2-0.2h-0.2l-0.4,4.7h0.2
			C319.9,245.3,321.3,244.2,323.8,244.2z M327.7,244l-10.2,16.7h3.2l10.2-16.7H327.7z M340.8,259.5V244H336v0.2h1.7
			c0.1,0,0.2,0,0.2,0.9v14.5c0,0.8-0.1,0.9-0.2,0.9H336v0.2h7v-0.2h-2C340.9,260.4,340.8,260.4,340.8,259.5z M352.1,258.3v-8.4H352
			c-0.3,0.1-1.3,0.3-2.1,0.3h-1c0.1-0.5,0.2-1,0.2-1.6c0-2.9-2.1-4.5-6.1-4.5h-0.7v0.2h0.6c2.5,0,3.2,1.9,3.2,4
			c0,3.3-1.1,4.9-3.2,4.9c-0.2,0-0.3,0-0.6,0v0.3c0.3,0,0.6,0,1,0c2.6,0,4.8-0.9,5.5-3.1h0.2c0.6,0,0.6,0.1,0.6,0.8v6.7
			c0,2.2,1.4,3.1,3.2,3.1c0.7,0,1.3-0.1,1.7-0.3v-0.2c-0.2,0.1-0.6,0.2-0.9,0.2C352.8,260.6,352.1,259.7,352.1,258.3z M372.8,260.4
			h-1.4v0.2h5.7v-0.2h-1.4c-0.1,0-0.2,0-0.2-0.8v-6.7c0-2.2-1.4-3.1-3.2-3.1c-0.7,0-1.3,0.1-1.7,0.3v0.2c0.2-0.1,0.6-0.2,0.8-0.2
			c1,0,1.6,0.9,1.6,2.4v7.2C373,260.4,372.9,260.4,372.8,260.4z M369.2,259.6v-6.7c0-2.2-1.4-3.1-3.2-3.1c-0.7,0-1.3,0.1-1.7,0.3
			v0.2c0.2-0.1,0.6-0.2,0.9-0.2c1,0,1.6,0.9,1.6,2.4v7.2c0,0.7-0.1,0.8-0.2,0.8h-1.4v0.2h5.7v-0.2h-1.4
			C369.3,260.4,369.2,260.4,369.2,259.6z M362.8,259.6v-9.8h-0.2c-0.3,0.1-1,0.3-1.8,0.3h-2v0.2h0.9c0.6,0,0.6,0.1,0.6,0.8v8.5
			c0,0.7-0.1,0.8-0.2,0.8H359c-0.3,0-0.5,0-0.5-0.6v-10h-0.1c-0.3,0.1-1.2,0.3-2,0.3h-1.9v0.2h0.9c0.6,0,0.6,0.1,0.6,0.8v8.1
			c0,1.2,0.2,1.4,1.1,1.4h7.2v-0.2h-1.4C362.9,260.4,362.8,260.4,362.8,259.6z M382.5,249.8c-0.5,0-0.9,0.1-1.3,0.2v0.2
			c0.2-0.1,0.5-0.2,0.8-0.2c1.8,0,2.3,1.6,2.3,5.3c0,3.8-0.5,5.3-2.3,5.3c-0.3,0-0.6,0-0.8-0.1v0.2c0.3,0.1,0.6,0.1,1,0.1
			c2.3,0,4.9-2.1,4.9-5.7C387.1,252.1,385.1,249.8,382.5,249.8z M379.7,265.2v-15.4h-0.1c-0.3,0.1-1.1,0.3-1.9,0.3h-2v0.2h0.9
			c0.6,0,0.6,0.2,0.6,0.9v14c0,0.7-0.1,0.8-0.2,0.8h-1.4v0.2h5.7V266h-1.4C379.7,266,379.7,266,379.7,265.2z M394,259.5V244h-4.8
			v0.2h1.7c0.1,0,0.2,0,0.2,0.9v14.5c0,0.8-0.1,0.9-0.2,0.9h-1.7v0.2h7.3v-0.2h-2.3C394.1,260.4,394,260.4,394,259.5z M401.8,248.5
			h0.2c-0.1-1.5-0.2-3-0.3-4.5h-5.5v0.2h0.6C400.1,244.2,400.7,245.5,401.8,248.5z M395.9,252.1h-0.4v0.2h0.4c1.9,0,2.6,0.8,2.8,3.1
			h0.2v-6.6h-0.2C398.6,250.5,398.4,252.1,395.9,252.1z M403.4,258.3v-8.4h-0.1c-0.3,0.1-1.3,0.3-2.1,0.3h-1.8v0.2h0.9
			c0.6,0,0.6,0.1,0.6,0.8v6.7c0,2.2,1.4,3.1,3.2,3.1c0.7,0,1.3-0.1,1.7-0.3v-0.2c-0.2,0.1-0.6,0.2-0.9,0.2
			C404,260.6,403.4,259.7,403.4,258.3z M409.8,259.8v-10h-0.1c-0.3,0.1-1.2,0.3-2,0.3h-1.9v0.2h0.9c0.6,0,0.6,0.1,0.6,0.8v8.1
			c0,1.2,0.2,1.4,1.1,1.4h2.9v-0.2h-1.1C409.9,260.4,409.8,260.4,409.8,259.8z M418,253h0.2v-3.1H418c-0.1,0.1-0.3,0.2-0.6,0.2
			c-0.3,0-0.9-0.2-1.6-0.3v0.2C417.1,250.3,417.7,251.7,418,253z M412.6,252c0-1,0.7-1.7,1.7-1.9v-0.2c-1.5,0.3-2.4,1.4-2.4,3.3
			c0,4.8,6.3,2.3,6.3,5.4c0,1.1-0.7,1.8-1.8,2.1v0.2c1.4-0.3,2.7-1.3,2.7-3.5C419.1,252.4,412.6,255.1,412.6,252z M412.1,257.2h-0.2
			v3.6h0.2c0.2-0.1,0.4-0.2,0.6-0.2c0.4,0,1.1,0.2,2,0.3v-0.1C413.3,260.5,412.5,259.3,412.1,257.2z M421.7,246.9
			c0.8,0,1.4-0.7,1.4-1.5c0-0.8-0.6-1.5-1.4-1.5c-0.8,0-1.4,0.7-1.4,1.5C420.2,246.3,420.9,246.9,421.7,246.9z M423,259.6v-9.8h-0.1
			c-0.3,0.1-1.1,0.3-2,0.3H419v0.2h0.9c0.6,0,0.6,0.1,0.6,0.8v8.5c0,0.7-0.1,0.8-0.2,0.8h-1.4v0.2h5.7v-0.2h-1.4
			C423.1,260.4,423,260.4,423,259.6z M430.6,249.8v0.2c1.3,0.4,1.6,1.1,1.6,5.4c0,4.2-0.4,4.8-1.6,5.2v0.2c2.1-0.5,4.3-1.9,4.3-5.5
			C434.9,251.9,432.7,250.4,430.6,249.8z M424.5,255.4c0,3.5,2.2,5,4.3,5.5v-0.2c-1.2-0.4-1.6-1-1.6-5.2c0-4.3,0.4-5,1.6-5.4v-0.2
			C426.7,250.4,424.5,251.9,424.5,255.4z M438.2,259.6v-9.8H438c-0.3,0.1-1,0.3-1.8,0.3h-2v0.2h0.9c0.6,0,0.6,0.1,0.6,0.8v8.5
			c0,0.7-0.1,0.8-0.2,0.8h-1.4v0.2h5.7v-0.2h-1.4C438.3,260.4,438.2,260.4,438.2,259.6z M444.9,260.4c-0.1,0-0.2,0-0.2-0.8v-6.7
			c0-2.2-1.4-3.1-3.2-3.1c-0.7,0-1.3,0.1-1.7,0.3v0.2c0.2-0.1,0.6-0.2,0.9-0.2c1,0,1.6,0.9,1.6,2.4v7.2c0,0.7-0.1,0.8-0.2,0.8h-1.4
			v0.2h5.7v-0.2H444.9z"/>
	</g>
</g>
</svg>
