<svg xmlns="http://www.w3.org/2000/svg" xmlns:xlink="http://www.w3.org/1999/xlink" width="97.1" height="16.9" viewBox="0 0 97.1 16.9"><defs><path id="a" d="M18.1 16.6h3.4V4.2h-3.4v12.4zm66.1 0h3.4V4.2h-3.4v12.4zm-37.6-6.1c0-1.8 1.4-3.3 3.3-3.3s3.4 1.5 3.4 3.3c0 1.9-1.5 3.3-3.4 3.3s-3.3-1.5-3.3-3.3m-3.3 0c0 3.6 2.9 6.3 6.3 6.3 1.4 0 2.8-.4 3.6-1.1v.9h3.4V4.2h-3.4v1c-.9-.7-2.2-1.1-3.6-1.1-3.4 0-6.3 2.8-6.3 6.4M33.2 5.7C32.3 4.5 31.1 4 29.7 4c-1.7 0-2.8.8-3.4 1.5V4.2H23v12.4h3.4V9.8c0-1.7 1-2.7 2.5-2.7 1.3 0 2.1 1 2.1 2.4v7.2h3.3V9.8c0-1.7 1-2.7 2.5-2.7 1.3 0 2.1 1 2.1 2.4v7.2h3.3V8.9c0-3-1.8-5-4.9-5-1.8.1-3.1.7-4.1 1.8M0 10.4c0 3.6 2.7 6.5 6.6 6.5 2.7 0 4.6-1.3 5.8-3.2L9.8 12c-.6 1-1.5 1.8-3.1 1.8-2 0-3.3-1.4-3.3-3.4S4.7 7 6.7 7c1.5 0 2.4.8 3.1 1.8l2.6-1.6c-1.2-1.9-3.1-3.3-5.8-3.3C2.7 3.9 0 6.8 0 10.4m57.7 0c0 3.6 2.7 6.5 6.6 6.5 2.7 0 4.6-1.3 5.8-3.2L67.5 12c-.6 1-1.5 1.8-3.1 1.8-2 0-3.3-1.4-3.3-3.4S62.4 7 64.4 7c1.5 0 2.4.8 3.1 1.8l2.6-1.6c-1.1-2-3.1-3.3-5.8-3.3-3.9 0-6.6 2.9-6.6 6.5m-44.3 6.2h3.4V0h-3.4v16.6zm4.7-13.5h3.4V0h-3.4v3.1zm53-3.1v16.6h3.4V9.8c0-1.7 1.1-2.8 2.7-2.8 1.4 0 2.3 1 2.3 2.5v7.1h3.3V9c0-3-1.9-5-4.8-5-1.7 0-3.1.8-3.6 1.5V0h-3.3zm13.1 3.1h3.4V0h-3.4v3.1zM89 16.6h3.4V0H89v16.6zm4.7 0h3.4V0h-3.4v16.6z"/></defs><clipPath id="b"><use xlink:href="#a" overflow="visible"/></clipPath><linearGradient id="c" gradientUnits="userSpaceOnUse" y1="16.914" x2="1" y2="16.914" gradientTransform="matrix(97.106 0 0 -97.106 -40.563 1650.792)"><stop offset="0" stop-color="#375493"/><stop offset=".001" stop-color="#375493"/><stop offset="1" stop-color="#35B5E8"/></linearGradient><path clip-path="url(#b)" fill="url(#c)" d="M0 0h97.1v16.9H0z"/></svg>