<svg xmlns="http://www.w3.org/2000/svg" width="32" height="32" viewBox="0 0 32 32"><path stroke="#449FDB" d="M0 0"/><path d="M16.45 17.05c-.4-.3-1.15-.9-1.15-1.25 0-.45.15-.65.8-1.2.75-.5 1.2-1.25 1.2-2.15 0-1.05-.45-2.1-1.45-2.4h1.35l.95-.7H13.8c-1.95 0-3.75 1.45-3.75 3.1s1.35 3 3.3 3h.4c-.15.2-.2.55-.2.75 0 .45.2.8.6 1.1h-.75c-2.4 0-4.25 1.5-4.25 3s2.05 2.5 4.45 2.5c2.75 0 4.25-1.5 4.25-3 .1-1.25-.25-2-1.4-2.75zm-2.3-2.1c-1.1 0-2.15-1.2-2.4-2.6-.2-1.4.55-2.45 1.65-2.45s2.2 1.2 2.4 2.55c.2 1.35-.55 2.5-1.65 2.5zm-.45 7.1c-1.65 0-2.85-1.05-2.85-2.25s1.5-2.15 3.15-2.15c.4 0 .75.05 1.05.15.9.6 1.55 1 1.75 1.65 0 .15.05.3.05.45 0 1.2-.85 2.15-3.15 2.15zM21.05 15v-1.55H19.7V15h-1.65v1.4h1.65v1.55h1.35V16.4h1.7V15z" visibility="false" fill="#110c07"/></svg>