<?xml version="1.0" encoding="utf-8"?>
<!-- Generator: Adobe Illustrator 18.1.0, SVG Export Plug-In . SVG Version: 6.00 Build 0)  -->
<!DOCTYPE svg PUBLIC "-//W3C//DTD SVG 1.1//EN" "http://www.w3.org/Graphics/SVG/1.1/DTD/svg11.dtd">
<svg version="1.1" id="Layer_1" xmlns="http://www.w3.org/2000/svg" xmlns:xlink="http://www.w3.org/1999/xlink" x="0px" y="0px"
	 viewBox="0 0 31 30.8" enable-background="new 0 0 31 30.8" xml:space="preserve">
<g>
	<path fill="#E6E6E6" d="M5.7,15.4c0,5.3,4.4,9.6,9.8,9.6c5.4,0,9.7-4.3,9.7-9.6c0-5.3-4.3-9.6-9.7-9.6C10.1,5.8,5.7,10.1,5.7,15.4z
		 M12.8,10.4c2.8,1.7,5.5,3.4,8.4,5.1c-2.9,1.7-5.6,3.4-8.4,5.1C12.8,17.2,12.8,13.9,12.8,10.4z"/>
	<path fill="#E6E6E6" d="M15.5,27.8c-4.1,0-7.4-1.8-10-4.9c-0.9,0.5-1.7,1-2.6,1.5c3.6,4.6,8.2,6.8,13.9,6.4
		c4.7-0.4,8.5-2.6,11.3-6.4c-0.9-0.5-1.7-1-2.6-1.5C22.9,26.1,19.6,27.8,15.5,27.8z"/>
	<path fill="#E6E6E6" d="M4.7,9.2c2-3.5,5.2-5.5,9.2-6.2c0-1,0-1.9,0-3C8.3,0.8,4.1,3.6,1.6,8.7c-2.1,4.3-2.1,8.6-0.2,13.1
		c0.9-0.5,1.8-1,2.6-1.5C2.5,16.4,2.7,12.7,4.7,9.2z"/>
	<path fill="#E6E6E6" d="M28.7,7.4C26.1,3.1,22.1,0.6,17,0c0,0.8,0.1,1.4,0,2c-0.1,0.7,0.2,1,0.9,1.1c3.9,0.8,6.8,2.9,8.6,6.4
		c1.7,3.2,1.9,6.6,0.7,10.1c-0.1,0.3-0.3,0.6,0.2,0.9c0.7,0.4,1.4,0.8,2.2,1.3C31.6,16.8,31.4,12,28.7,7.4z"/>
</g>
</svg>
