<svg xmlns="http://www.w3.org/2000/svg" width="32" height="32" viewBox="0 0 32 32"><path stroke="#449FDB" d="M0 0"/><path d="M1.25 19.9c.3 0 .65-.2.65-.65 0-.55-.5-.7-.9-.7H0v2.3h.45V19.8l.9 1.05h.6l-.85-.95h.15zm-.75-.25V19h.55c.25 0 .45.1.45.3 0 .25-.1.3-.45.3l-.55.05zM10.45 19.9l.8-.85h-.5l-.75.8V18.6h-.45v2.3H10v-.8l.75.8h.6zM6.65 19.05c-.2 0-.35.05-.45.1v-.6h-.45v2.3h.1l.2-.1c0 .05.2.15.5.15h.1c.45 0 .8-.3.8-.75v-.4c0-.4-.3-.7-.8-.7zm.35 1.1c0 .25-.2.35-.4.35s-.35-.1-.35-.35v-.4c0-.25.2-.35.35-.35.2 0 .4.1.4.35v.4zM4.8 19.05h-.1c-.45 0-.8.3-.8.75v.4c0 .45.35.75.8.75h.05c.5 0 .75-.2.8-.6h-.4c0 .15-.1.2-.35.2-.3 0-.45-.15-.4-.45h1.2v-.35c-.05-.4-.4-.7-.8-.7zm.3.75h-.75c0-.25.15-.35.4-.35h.05c.2-.05.35.1.3.35zM8.55 19.05h-.1c-.45 0-.8.3-.8.75v.4c0 .5.3.75.8.75h.1c.45 0 .8-.3.8-.75v-.4c0-.45-.35-.75-.8-.75zm.35 1.1c0 .25-.2.35-.4.35s-.35-.1-.35-.35v-.4c0-.25.2-.35.35-.35.2 0 .4.1.4.35v.4zM2.9 19.05h-.1c-.45 0-.8.3-.8.75v.4c0 .45.35.75.8.75h.05c.5 0 .75-.2.8-.6h-.4c0 .15-.1.2-.35.2-.3 0-.45-.15-.45-.45h1.2v-.35c.05-.4-.3-.7-.75-.7zm.35.75H2.5c0-.25.15-.35.4-.35.2-.05.35.1.35.35 0-.1 0 0 0 0z" visibility="false" fill="#110c07"/><path d="M7.35 15.85L9.9 17.6l.2-.3-4-7.1h-.4l.2 3.15zM4.1 16.4l-2.75 1.45.15.25 8.1.05.15-.3L7 16.4zM3.75 15.85l1.45-2.5.2-3.15h-.3l-4.05 7 .15.35z" visibility="false" fill="#942120"/><path d="M14.75 10.9c0 .35-.1.55-.4.6v.05c.6-.05.9-.2.9-.7 0-.4-.3-.7-1.05-.7.4.05.55.4.55.75zM15.45 12.4c0-.55-.45-.7-1.1-.75v.05c.3.1.5.3.5.7 0 .45-.25.75-.65.75h.05c.75 0 1.2-.25 1.2-.75zM13.75 10.15h-.9v.05h.3s.05 0 .05.15v2.6c0 .15 0 .15-.05.15h.6v-2.95zM16.75 11.2c.15.1.2.2.2.6 0 .25 0 .3-.3.3h-.1v.05h.9c-.05-.55-.35-.85-.7-.95zM17.35 12.6c-.1.4-.35.55-.65.6v.05c.35-.1.6-.3.65-.65zM16.5 13.2c-.2-.1-.3-.2-.3-1s.05-.9.3-1v-.05c-.4.1-.8.4-.8 1 0 .7.4 1 .8 1.05zM21.85 13.15h-.3s-.05 0-.05-.15v-2.6c0-.15 0-.15.05-.15h.3v-.05H21V13c0 .15 0 .15-.05.15h.9zM19.25 13.15c-.35 0-.45-.15-.45-.75v-.5h-.05v.5c0 .55-.1.75-.4.75h-.05v.05l.95-.05zM18.85 10.3l1.1 2.9.25-.7-.85-2.3h-1v.05h.35c.05-.1.1-.05.15.05zM23.9 12.2c0-.65-.4-.9-.8-1v.05c.25.1.3.2.3 1 0 .75-.1.9-.3.95v.05c.4-.1.8-.4.8-1.05zM22.8 13.2c-.2-.1-.3-.2-.3-1s.05-.9.3-1v-.05c-.4.1-.8.4-.8 1 0 .7.4 1 .8 1.05zM25.1 13.15h-.3s-.05 0-.05-.15v-1.75c-.05 0-.2.05-.35.05h-.35v.05h.15c.1 0 .1 0 .1.15v1.55c0 .15 0 .15-.05.15H24l1.1-.05zM25.55 11.4c0 .138-.112.25-.25.25s-.25-.112-.25-.25.112-.25.25-.25.25.112.25.25zM26.6 13.15c.35 0 .6-.2.7-.6h-.05c-.1.4-.3.6-.65.6zM26.65 11.2c.15.1.2.2.2.6 0 .25 0 .3-.3.3h-.1v.05h.9c0-.55-.3-.85-.7-.95zM26.4 13.2c-.2-.1-.3-.2-.3-1s.05-.9.3-1v-.05c-.4.1-.8.4-.8 1 0 .7.4 1 .8 1.05zM14.15 16.95h-.3s-.05 0-.05-.15v-2.6c0-.15 0-.15.05-.15h.3V14H12.9v.05h.3s.05 0 .05.15v2.6c0 .15 0 .15-.05.15h-.3V17h1.25v-.05zM15.55 14.05h-.95v.05h.3s.05 0 .05.15v1.2h-.7v.05h.7v1.35c0 .15 0 .15-.05.15h-.3v.05h1.25V17h-.3s-.05 0-.05-.15v-2.6c.05-.15.05-.2.05-.2zM17.25 15.15h.15c.1 0 .1 0 .1.15v1.5c0 .2 0 .25.2.25h.55V17h-.2c-.05 0-.1 0-.1-.1v-1.8c-.05 0-.2.05-.35.05h-.35zM16.95 17.1c.1 0 .25 0 .3-.05V17h-.15c-.2 0-.3-.15-.3-.4v-1.5c-.05 0-.25.05-.4.05h-.15c.1 0 .1 0 .1.15v1.2c0 .4.25.6.6.6zM19.35 16.95h-.25s-.05 0-.05-.15V15H19c-.05 0-.2.05-.35.05h-.35v.05h.15c.1 0 .1 0 .1.15v1.55c0 .15 0 .15-.05.15h-.25V17l1.1-.05zM21.35 16.85v-1.2c0-.4-.25-.55-.6-.55-.1 0-.25 0-.3.05v.05h.15c.2 0 .3.15.3.4v1.3c0 .15 0 .15-.05.15h-.3v.05h1.05v-.05h-.25v-.2zM19.65 15.05c-.1 0-.25 0-.3.05v.05h.15c.2 0 .3.15.3.4v1.3c0 .15 0 .15-.05.15h-.25v.05h1.05V17h-.25s-.05 0-.05-.15v-1.2c0-.45-.3-.6-.6-.6zM23.4 17.1c.2 0 .25-.15.25-.35v-.3h-.05v.3c0 .15 0 .25-.15.25-.1 0-.1-.1-.1-.25v-1.1c0-.3-.2-.45-.45-.5v1.45c-.05.3.25.5.5.5zM22.1 15.7c.1 0 .25-.1.25-.2 0-.2-.2-.2-.2-.25s.15-.15.4-.2c-.4 0-.65.2-.65.4s.1.25.2.25zM22.25 17.1c.15 0 .3-.05.4-.05V17h-.15c-.2 0-.3-.15-.3-.55s.1-.45.3-.45h.1v-.05h-.2c-.2 0-.35 0-.45.05-.1.1-.2.25-.2.5 0 .45.15.6.5.6zM23.65 15.15h.15c.1 0 .1 0 .1.15v1.55c0 .15 0 .15-.05.15h-.25v.05h1.05V17h-.25s-.05 0-.05-.15v-1.8h-.05c-.05 0-.2.05-.35.05l-.3.05zM25 15.05c-.1 0-.25 0-.3.05v.05h.15c.2 0 .3.15.3.4v1.3c0 .15 0 .15-.05.15h-.25v.05h1.05V17h-.25s-.05 0-.05-.15v-1.2c0-.45-.25-.6-.6-.6zM12.9 17.9h.3s.05 0 .05.15v2.6c0 .15 0 .15-.05.15h-.3v.05h.9v-3l-.9.05zM14.25 20.85l-.05.05h.7c.25 0 .3 0 .4.05h.05c0-.3.05-.65.1-.95h-.05c-.35.65-.45.85-1.15.85zM14.65 19.9l.05-1.2h-.05c0 .3-.05.6-.5.6h-.05v.05c.35 0 .5.1.55.55zM15.2 18.65l-.05-.85h-.05c-.05 0-.15.05-.4.05h-.6v.05h.1c.5 0 .75.25 1 .75zM16.15 20.35c-.3.3-.55.5-.7.5h-.05v.05h.8v-.05h-.05c-.25 0-.2-.25 0-.5zM16.85 19.4c.2-.2.45-.45.6-.45v-.05h-.8v.05h.05c.3.1.25.25.15.45zM16.65 20.85l-.05.05h1v-.05c-.15 0-.25-.1-.4-.35l-.85-1.3c0-.05-.05-.1-.05-.1 0-.05.05-.1.15-.1h.1v-.05h-1V19h.05c.1 0 .2.05.3.2l.85 1.3c.05.1.1.2.1.25-.05.1-.1.1-.2.1zM18.25 21.65v-2.8c-.05 0-.2.05-.35.05h-.4v.05h.15c.1 0 .1.05.1.15v2.55c0 .15 0 .15-.05.15h-.25v.05h1.05v-.05h-.25v-.15zM18.75 18.9c-.1 0-.15 0-.25.05V19h.15c.3 0 .4.3.4.95 0 .7-.1.95-.4.95h-.15v.05h.2c.4 0 .9-.4.9-1s-.35-1.05-.85-1.05zM20.85 20.9c.35 0 .6-.2.7-.6h-.05c-.15.35-.4.6-.65.6zM20.85 18.9c.15.1.2.2.2.6 0 .25 0 .3-.3.3h-.1v.05h.9c-.05-.5-.3-.9-.7-.95zM19.8 19.9c0 .65.4.9.8 1v-.05c-.2-.05-.3-.2-.3-.95 0-.8.05-.9.3-1v-.05c-.4.2-.8.5-.8 1.05zM22.4 20.65v-1.8c-.05 0-.2.05-.35.05h-.35v.05h.15c.1 0 .1 0 .1.15v1.55c0 .15 0 .15-.05.15h-.25v.05h1.1v-.05h-.3c-.05.05-.05.05-.05-.15zM23.15 19.15c0 .138-.112.25-.25.25s-.25-.112-.25-.25.112-.25.25-.25.25.112.25.25zM23.95 20.65v-1.8c-.05 0-.2.05-.35.05h-.35v.05h.15c.1 0 .1 0 .1.15v1.55c0 .15 0 .15-.05.15h-.25v.05h1.05v-.05H24c-.05.05-.05.05-.05-.15zM23.45 18.15c0 .15.1.25.25.25s.25-.1.25-.25-.1-.25-.25-.25-.25.05-.25.25zM25.4 18.9c.15.1.2.2.2.6 0 .25 0 .3-.3.3h-.1v.05h.9c0-.5-.3-.9-.7-.95zM24.35 19.9c0 .65.4.9.8 1v-.05c-.2-.05-.3-.2-.3-.95 0-.8.05-.9.3-1v-.05c-.4.2-.8.5-.8 1.05zM25.35 20.9c.35 0 .6-.2.7-.6H26c-.1.35-.3.6-.65.6zM26.95 20.65v-1.8h-.05c-.05 0-.2.05-.35.05h-.35v.05h.15c.1 0 .1 0 .1.15v1.55c0 .15 0 .15-.05.15h-.25v.05h1.05v-.05H27c-.05.05-.05.05-.05-.15zM28.15 20.65v-1.2c0-.4-.25-.55-.6-.55-.1 0-.25 0-.3.05V19h.15c.2 0 .3.15.3.4v1.3c0 .15 0 .15-.05.15h-.25v.05h1.05v-.05h-.25c-.05 0-.05 0-.05-.2zM29.9 19.65c.15 0 .25-.1.25-.25s-.1-.25-.25-.25-.25.1-.25.25.1.25.25.25zM29.55 20.9c-.4 0-.5-.35-.5-1s.1-.9.4-.9v-.05c-.45 0-.9.35-.9 1s.45 1 .95 1c.4 0 .65-.25.7-.65h-.05c-.1.35-.3.6-.6.6zM31.3 18.9c.15.1.2.2.2.6 0 .25 0 .3-.3.3h-.1v.05h.9c0-.5-.3-.9-.7-.95zM30.25 19.9c0 .65.4.9.8 1v-.05c-.2-.05-.3-.2-.3-.95 0-.8.05-.9.3-1v-.05c-.35.2-.8.5-.8 1.05zM31.3 20.9c.35 0 .6-.2.7-.6h-.05c-.15.35-.35.6-.65.6z" visibility="false" fill="#110c07"/></svg>