<?xml version="1.0" encoding="utf-8"?>
<!-- Generator: Adobe Illustrator 18.1.1, SVG Export Plug-In . SVG Version: 6.00 Build 0)  -->
<!DOCTYPE svg PUBLIC "-//W3C//DTD SVG 1.1//EN" "http://www.w3.org/Graphics/SVG/1.1/DTD/svg11.dtd">
<svg version="1.1" id="Layer_1" xmlns="http://www.w3.org/2000/svg" xmlns:xlink="http://www.w3.org/1999/xlink" x="0px" y="0px"
	 viewBox="0 296.8 612 199" enable-background="new 0 296.8 612 199" xml:space="preserve">
<g>
	<g>
		<g>
			<path d="M51.8,460.1h-1.1c-8.4,0-14.5,5-14.5,13.9v7.8c0,8.4,6.7,13.9,14.5,13.9h1.1c8.9,0,13.9-3.9,13.9-11.1h-7.2
				c-0.6,2.8-2.2,3.9-6.7,3.9c-5.6,0-7.8-2.8-7.8-8.4h21.7V474C65.8,465.1,60.2,460.1,51.8,460.1z M58,474H44v-0.6
				c0-4.5,2.8-6.1,6.7-6.1h0.6c3.9,0,6.7,2.2,6.7,6.1C58,473.5,58,474,58,474z M22.3,476.8c5.6,0,11.7-3.3,11.7-12.3
				c0-10.6-8.4-12.8-15.6-12.8H0v42.9h8.4v-19.5l16.7,19.5h10.6l-15.6-17.8C20.6,476.8,21.2,476.8,22.3,476.8z M8.4,470.7V459h9.5
				c4.5,0,8.4,1.7,8.4,6.1s-2.2,6.1-8.4,6.1H8.4V470.7z M188.4,476.8l14.5-16.7h-10l-12.8,15v-23.4h-7.8v42.9h7.8v-15l13.4,15H204
				L188.4,476.8z M85.8,460.1h-1.7c-8.4,0-14.5,5-14.5,13.9v7.8c0,8.4,6.7,13.9,14.5,13.9h1.1c9.5,0,13.9-3.9,14.5-11.1h-7.2
				c-0.6,2.8-2.2,3.9-6.7,3.9c-5.6,0-7.8-2.8-7.8-8.4h21.7V474C99.8,465.1,94.2,460.1,85.8,460.1z M92,474H78v-0.6
				c0-4.5,2.8-6.1,6.7-6.1h0.6c3.9,0,6.7,2.2,6.7,6.1V474z M153.8,460.1h-1.7c-8.4,0-13.9,5.6-13.9,13.9v7.8
				c0,8.9,5.6,13.9,13.9,13.9h1.7c8.4,0,13.9-5,13.9-13.9V474C168.3,465.1,162.2,460.1,153.8,460.1z M160,481.3
				c0,4.5-3.3,6.7-6.7,6.7h-0.6c-3.3,0-6.7-2.2-6.7-6.7v-7.8c0-4.5,3.3-6.7,6.7-6.7h0.6c3.3,0,6.7,2.2,6.7,6.7V481.3z M120.4,460.1
				c-3.9,0-6.1,1.1-7.8,2.2v-10.6h-8.4v42.9h1.7l3.9-2.2c0.6,0.6,3.9,3.3,8.9,3.3h1.7c7.8,0,13.9-5.6,13.9-13.9V474
				C134.3,465.7,128.2,460.1,120.4,460.1z M126,481.3c0,4.5-3.3,6.7-6.7,6.7h-0.6c-3.3,0-6.7-2.2-6.7-6.7v-7.8
				c0-4.5,3.3-6.7,6.7-6.7h0.6c3.3,0,6.7,2.2,6.7,6.7V481.3z"/>
		</g>
	</g>
	<path fill="#B72128" d="M67.4,400.5l26.2-46.8l3.9-56.9h-6.1l-73,129.9l3.3,5.6L67.4,400.5z M73.6,411.6L24,437.2l3.3,5.6h146
		l2.8-5l-49.6-26.2H73.6z M109.2,296.8h-6.1l2.8,56.9l26.2,47.4l46.3,32.3l3.3-5.6L109.2,296.8z"/>
</g>
<g>
	<g>
		<path d="M266.4,300.7h2.2v-1.1h-16.7c-7.2,0-8.9-0.6-11.1-1.1h-1.1l-2.2,25.1h1.1C245.8,306.3,253,300.7,266.4,300.7z
			 M304.3,299.6H287l-54.6,87.5h17.3L304.3,299.6z M272,386h-1.7v1.1H291c7.2,0,8.9,0.6,10.6,1.7h1.1c0.6-9.5,1.7-19,2.8-27.9h-1.1
			C294.9,381,293.2,386,272,386z M347.8,386h-10.6c-0.6,0-1.1,0-1.1-4.5v-81.9h-25.6v1.1h8.9c0.6,0,1.1,0,1.1,4.5v76.4
			c0,4.5-0.6,4.5-1.1,4.5h-8.9v1.1h36.8V386H347.8z M380.1,323.5c0-15.6-11.1-24-32.3-24h-3.9v1.1h3.3c13.4,0,16.7,10,16.7,21.2
			c0,17.3-5.6,25.6-17.3,25.6c-1.1,0-1.7,0-2.8,0v1.1c1.7,0,3.3,0,5.6,0C366.8,349.2,380.1,341.4,380.1,323.5z M393,336.9V372
			c0,11.7,7.2,16.2,17.3,16.2c3.9,0,6.7-0.6,8.9-1.1V386c-1.1,0.6-2.8,1.1-4.5,1.1c-5,0-8.4-4.5-8.4-12.3v-44.6h-0.6
			c-1.7,0.6-6.7,1.7-11.1,1.7h-9.5v1.1h4.5C393,333,393,333,393,336.9z M427,336.9v42.9c0,6.7,1.1,7.2,6.1,7.2h15.6V386h-6.1
			c-1.7,0-2.2,0-2.2-3.3v-52.4h-0.6c-1.1,0.6-6.1,1.7-10.6,1.7h-10v1.1h4.5C427,333,427,333,427,336.9z M493.8,344.2v37.9
			c0,3.9-0.6,4.5-1.1,4.5h-7.2v1.1h30.1V386h-7.2c-1.1,0-1.1,0-1.1-3.9v-35.7c0-11.7-7.8-16.2-17.3-16.2c-3.9,0-6.7,0.6-8.9,1.1v1.1
			c1.1-0.6,2.8-1.1,4.5-1.1C490.5,331.9,493.8,336.4,493.8,344.2z M526.7,344.2v37.9c0,3.9-0.6,4.5-1.1,4.5h-7.2v1.1h30.1V386h-7.2
			c-0.6,0-1.1,0-1.1-4.5v-35.1c0-11.7-7.2-16.2-17.3-16.2c-3.9,0-6.7,0.6-8.9,1.1v1.1c1.1-0.6,2.8-1.1,4.5-1.1
			C523.4,331.9,526.7,336.4,526.7,344.2z M481.6,386h-7.2c-0.6,0-1.1,0-1.1-4.5v-51.3h-1.1c-1.7,0.6-5,1.7-9.5,1.7H452v1.1h4.5
			c3.3,0,3.3,0.6,3.3,3.9v44.6c0,3.9-0.6,4.5-1.1,4.5h-7.2v1.1h30.1L481.6,386L481.6,386z M587.5,330.2c-2.8,0-5,0.6-6.7,1.1v1.1
			c1.1-0.6,2.8-1.1,4.5-1.1c9.5,0,11.7,8.4,11.7,27.9c0,20.1-2.8,27.9-12.3,27.9c-1.7,0-2.8,0-3.9-0.6v1.1c1.7,0.6,3.3,0.6,5.6,0.6
			c12.3,0,25.6-11.1,25.6-29.5C612,342.5,601.4,330.2,587.5,330.2z M572.4,411.6v-81.4h-0.6c-1.7,0.6-5.6,1.7-10,1.7h-11.1v1.1h4.5
			c2.8,0,3.3,1.1,3.3,5v73.6c0,3.9-0.6,3.9-1.1,3.9h-7.2v1.1h30.1v-1.1H573C572.4,415.5,572.4,415.5,572.4,411.6z M258.6,488V406
			H233v1.1h8.9c0.6,0,1.1,0,1.1,4.5V488c0,4.5-0.6,4.5-1.1,4.5H233v1.1h39v-1.1h-12.3C259.2,493,258.6,492.4,258.6,488z M301,430
			c-0.6-7.8-1.1-15.6-1.7-23.4h-29.5v1.1h3.3c17.8,0,20.6,6.7,26.8,22.3L301,430L301,430z M268.7,449h-2.2v1.1h2.2
			c10,0,13.9,4.5,15,16.2h1.1v-34.6h-1.1C283.1,440.6,281.5,449,268.7,449z M352.3,489.6v-52.4h-0.6c-1.1,0.6-6.1,1.7-10.6,1.7h-10
			v1.1h4.5c2.8,0,3.3,0.6,3.3,3.9v42.9c0,6.7,1.1,7.2,6.1,7.2h15.6V493h-6.1C352.8,493,352.3,492.4,352.3,489.6z M318.3,481.3v-44.6
			h-0.6c-1.7,0.6-6.7,1.7-11.1,1.7h-9.5v1.1h4.5c3.3,0,3.3,0.6,3.3,3.9v35.1c0,11.7,7.2,16.2,17.3,16.2c3.9,0,6.7-0.6,8.9-1.1v-1.1
			c-1.1,0.6-2.8,1.1-4.5,1.1C321.6,494.1,318.3,489.1,318.3,481.3z M367.3,476.3h-1.1v19h1.1c1.1-0.6,2.2-1.1,3.3-1.1
			c2.2,0,5.6,1.1,10.6,1.1v-0.6C373.4,493,369.5,486.9,367.3,476.3z M370.1,448.4c0-5.6,3.9-8.9,8.9-10v-1.1
			c-7.8,1.7-12.8,7.2-12.8,17.3c0,25.1,33.4,11.7,33.4,28.4c0,5.6-3.9,9.5-9.5,11.1v1.1c7.2-1.7,13.9-7.2,13.9-18.4
			C404.1,450.6,370.1,465.1,370.1,448.4z M387.4,436.7v1.1c6.7,1.7,10,8.9,11.7,15.6h1.1v-16.7h-1.1c-0.6,0.6-1.7,1.1-2.8,1.1
			C394.1,438.4,391.3,437.2,387.4,436.7z M415.2,413.8c0,4.5,3.3,7.8,7.8,7.8s7.8-3.3,7.8-7.8c0-4.5-3.3-7.8-7.8-7.8
			S415.2,409.9,415.2,413.8z M429.7,488.5v-51.8h-0.6c-1.1,0.6-6.1,1.7-10.6,1.7h-10v1.1h4.5c3.3,0,3.3,0.6,3.3,3.9V488
			c0,3.9-0.6,4.5-1.1,4.5H408v1.1h30.1v-1.1h-7.2C430.3,493,429.7,492.4,429.7,488.5z M443.1,466.8c0,18.4,11.7,26.2,22.9,28.4v-1.1
			c-6.7-2.2-8.9-5.6-8.9-27.3c0-22.9,2.2-26.2,8.9-28.4v-1.1C454.8,440,443.1,447.8,443.1,466.8z M475.4,437.2v1.1
			c6.7,2.2,8.9,5.6,8.9,28.4c0,22.3-2.2,25.6-8.9,27.3v1.1c11.1-2.2,22.9-10,22.9-28.4C498.3,447.8,486.6,440,475.4,437.2z
			 M525.6,488.5v-51.8h-1.1c-1.7,0.6-5,1.7-9.5,1.7h-10.6v1.1h4.5c3.3,0,3.3,0.6,3.3,3.9V488c0,3.9-0.6,4.5-1.1,4.5h-7.2v1.1H534
			v-1.1h-7.2C526.2,493,525.6,492.4,525.6,488.5z M560.2,488.5v-35.1c0-11.7-7.2-16.2-17.3-16.2c-3.9,0-6.7,0.6-8.9,1.1v1.1
			c1.1-0.6,2.8-1.1,4.5-1.1c5,0,8.4,4.5,8.4,12.3v37.9c0,3.9-0.6,4.5-1.1,4.5h-7.2v1.1h30.1V493h-7.2
			C560.7,493,560.2,492.4,560.2,488.5z"/>
	</g>
</g>
</svg>
