<svg xmlns="http://www.w3.org/2000/svg" width="32" height="32" viewBox="0 0 32 32"><path stroke="#449FDB" d="M0 0"/><path d="M12.8 16.85c0-.8-.55-1.25-1.3-1.25h-.15c-.75 0-1.35.45-1.35 1.25v.65c0 .75.6 1.25 1.35 1.25h.15c.85 0 1.25-.35 1.3-1h-.65c-.05.25-.2.35-.6.35-.5 0-.75-.25-.7-.75h2v-.5zm-.7 0h-1.25v-.05c0-.4.25-.55.6-.55h.05c.35 0 .6.2.6.55v.05zM15.95 16.85c0-.8-.55-1.25-1.3-1.25h-.15c-.75 0-1.3.45-1.3 1.25v.65c0 .75.6 1.25 1.35 1.25h.1c.85 0 1.3-.35 1.35-1h-.7c-.05.25-.2.35-.6.35-.5 0-.75-.25-.7-.75h2v-.5zm-.75 0h-1.25v-.05c0-.4.25-.55.6-.55h.05c.35 0 .6.2.6.55v.05zM19.1 17.5v-.7c0-.75-.55-1.25-1.3-1.25-.35 0-.6.1-.7.2v-.95h-.75v3.85h.15l.35-.2c.05.05.35.3.8.3h.15c.75.05 1.3-.45 1.3-1.25zm-.75 0c0 .4-.3.6-.6.6h-.05c-.3 0-.6-.2-.6-.6v-.7c0-.4.3-.6.6-.6h.05c.3 0 .6.2.6.6v.7zM7.45 16.95L9 18.7h.95l-1.4-1.6h.2c.5 0 1.1-.3 1.1-1.1 0-.95-.8-1.15-1.45-1.15H6.75v3.85h.75v-1.75zm0-1.45h.9c.4 0 .8.15.8.55s-.2.55-.8.55h-.9v-1.1zM23.4 14.85h-.75v3.85h.75v-1.4l1.2 1.4h.95l-1.4-1.6 1.35-1.5h-.95l-1.15 1.3zM22.25 17.5v-.7c0-.8-.55-1.25-1.3-1.25h-.15c-.75 0-1.3.5-1.3 1.25v.7c0 .8.55 1.25 1.3 1.25h.15c.75.05 1.3-.45 1.3-1.25zm-.75 0c0 .4-.3.6-.6.6h-.05c-.3 0-.6-.2-.6-.6v-.7c0-.4.3-.6.6-.6h.05c.3 0 .6.2.6.6v.7zM12.95 10.25l2.45-4.2.3-5.1h-.55L8.4 12.6l.3.5zM18.95 10.3l4.3 2.85.3-.5L16.8.95h-.6l.3 5.1zM23 13.6l-4.65-2.35h-4.8l-4.6 2.3.3.5H22.7zM8.15 25.45c1.05 0 1.6-.35 1.6-1 0-.7-.6-.9-1.45-1v.05c.4.1.7.4.7.9 0 .55-.3 1-.85 1v.05zM8.3 23.25c.8-.05 1.2-.25 1.2-.85 0-.55-.35-.9-1.4-.9v.05c.5.05.7.45.7.9.05.5-.1.75-.5.8zM7.6 21.55H6.45v.05h.4c.05 0 .05 0 .05.2v3.4c0 .2 0 .2-.05.2h-.4v.05H7.6v-3.9zM11.15 22.95v-.05c-.5.15-1.05.5-1.05 1.3 0 .85.55 1.2 1.05 1.3v-.05c-.3-.1-.4-.25-.4-1.25s.1-1.15.4-1.25zM11.45 22.9c.2.1.3.25.3.75 0 .3 0 .45-.4.45h-.15v.05h1.15c0-.75-.4-1.15-.9-1.25zM11.4 25.5c.45 0 .8-.25.9-.75h-.05c-.15.45-.45.7-.85.75zM14.75 25.4h-.05c-.4 0-.55-.2-.55-1v-.65h-.05v.65c0 .7-.15 1-.5 1h-.05v.05h1.2v-.05zM17.75 21.6h.4v-.05H17v3.7c0 .2 0 .2-.05.2h-.4v.05h1.6v-.05h-.4c-.05 0-.05 0-.05-.2v-3.4c0-.25 0-.25.05-.25zM15.65 25.5l.35-.95-1.1-3h-1.3v.05h.5c.05 0 .1.05.15.15l1.4 3.75zM19.4 22.95v-.05c-.5.15-1.05.5-1.05 1.3 0 .85.55 1.2 1.05 1.3v-.05c-.3-.1-.4-.25-.4-1.25s.05-1.15.4-1.25zM19.8 22.9v.05c.3.1.4.25.4 1.25s-.1 1.15-.4 1.25v.05c.5-.1 1.05-.45 1.05-1.3 0-.8-.55-1.15-1.05-1.3zM21.35 25.4H21v.05h1.4v-.05H22c-.05 0-.05 0-.05-.2v-2.3c-.05.05-.3.05-.5.05H21V23h.2c.15 0 .15 0 .15.2v2c.05.2.05.2 0 .2zM22.95 23.2c0-.15-.15-.3-.3-.3s-.3.15-.3.3.15.3.3.3.3-.1.3-.3zM24.15 22.95v-.05c-.5.15-1.05.5-1.05 1.3 0 .85.55 1.2 1.05 1.3v-.05c-.3-.1-.4-.25-.4-1.25s.1-1.15.4-1.25zM24.45 22.9c.2.1.3.25.3.75 0 .3 0 .45-.4.45h-.15v.05h1.15c0-.75-.4-1.15-.9-1.25zM25.3 24.75h-.05c-.1.5-.4.75-.8.75v.05c.4-.05.75-.3.85-.8zM6.45 26.65h.45c.05 0 .05 0 .05.25v3.8c0 .2 0 .25-.05.25h-.45V31h1.8v-.05H7.8c-.05 0-.05 0-.05-.25v-3.8c0-.2 0-.25.05-.25h.45v-.05h-1.8v.05zM9 26.65h.45c.05 0 .05 0 .05.25v1.8H8.45v.05H9.5v1.95c0 .2 0 .25-.05.25H9V31h1.8v-.05h-.45c-.05 0-.05 0-.05-.25v-3.8c0-.2 0-.25.05-.25h.45v-.05H9v.05zM12.1 30.35v-2.2c-.05.05-.35.05-.55.05h-.45v.05h.25c.15 0 .15 0 .15.2v1.75c0 .6.35.8.85.8.2 0 .35-.05.45-.05v-.05c-.05 0-.15.05-.25.05-.3 0-.45-.25-.45-.6zM13.8 30.75V28.1c-.05.05-.3.05-.55.05h-.5v.05H13c.15 0 .15 0 .15.2v2.15c0 .35.05.35.3.35h.8v-.05h-.3c-.15.05-.15.05-.15-.1zM18.75 30.7v-1.75c0-.6-.4-.8-.85-.8-.2 0-.35.05-.45.05v.05c.05 0 .15-.05.25-.05.25 0 .45.25.45.6v1.9c0 .2 0 .2-.05.2h-.35v.05h1.5v-.05h-.35c-.15 0-.15 0-.15-.2zM15.4 30.7v-2.6h-.05c-.05.05-.25.05-.5.05h-.55v.05h.25c.15 0 .15 0 .15.2v2.25c0 .2 0 .2-.05.2h-.4v.05h1.5v-.05h-.35v-.15zM17.1 30.7v-1.75c0-.6-.4-.8-.85-.8-.2 0-.35.05-.45.05v.05c.05 0 .15-.05.25-.05.25 0 .45.25.45.6v1.9c0 .2 0 .2-.05.2H16v.05h1.5v-.05h-.35c-.05 0-.05 0-.05-.2zM20 30.15c0-.6.15-.65.4-.65h.2v-.05h-.3c-.3 0-.5-.05-.65.05s-.3.35-.3.7c0 .7.25.8.75.8.25 0 .45-.05.6-.05v-.05c-.05 0-.2.05-.25.05-.3 0-.45-.2-.45-.8zM20.45 28.15c-.55 0-.95.25-.95.6 0 .2.15.35.35.35s.35-.1.35-.3c0-.25-.3-.25-.3-.4 0-.1.25-.2.55-.25zM22 30.55c0 .25-.05.4-.2.4s-.2-.1-.2-.35v-1.65c0-.45-.3-.7-.65-.75v2.15c0 .5.4.75.75.75s.35-.25.35-.5v-.45H22v.4zM24.9 30.7v-1.75c0-.6-.4-.8-.85-.8-.2 0-.35.05-.45.05v.05c.05 0 .15-.05.25-.05.25 0 .45.25.45.6v1.9c0 .2-.05.2-.05.2h-.35v.05h1.5v-.05H25c-.05 0-.1 0-.1-.2zM23.2 30.7v-2.6h-.05c-.05.05-.25.05-.5.05h-.55v.05h.25c.15 0 .15 0 .15.2v2.25c0 .2 0 .2-.05.2h-.4v.05h1.5v-.05h-.35v-.15z" visibility="false" fill="#110c07"/></svg>