<svg xmlns="http://www.w3.org/2000/svg" width="32" height="32" viewBox="0 0 32 32"><path stroke="#449FDB" d="M0 0"/><path d="M22.9 11.05c-.5.3-1.05.45-1.65.5.6-.4 1.05-1.05 1.25-1.8-.5.4-1.1.6-1.8.85-.5-.6-1.25-1.05-2.1-1.05-1.55 0-2.85 1.45-2.85 3.2 0 .2 0 .55.1.75-2.35-.15-4.45-1.4-5.85-3.4-.2.45-.4 1.05-.4 1.65 0 1.1.55 2.1 1.3 2.7-.45 0-.9-.15-1.3-.4v.1c0 1.6.95 2.85 2.25 3.15-.2.05-.55.05-.75.05-.15 0-.4 0-.55-.05.4 1.25 1.45 2.25 2.6 2.25-.95.9-2.15 1.4-3.55 1.4-.2 0-.45 0-.65-.05 1.3.9 2.8 1.5 4.35 1.5 5.35.05 8.2-4.9 8.2-9.15v-.45c.6-.5 1.05-1.1 1.4-1.75z" visibility="false" fill="#110c07"/></svg>