<svg xmlns="http://www.w3.org/2000/svg" width="32" height="32" viewBox="0 0 32 32"><path stroke="#449FDB" d="M0 0"/><path d="M12.5 16c0 .15-.05.25-.2.25.25-.05.4-.1.4-.3s-.1-.3-.45-.3c.2.05.25.2.25.35zM12.35 16.3c.1.05.2.1.2.3s-.1.3-.25.3c.3 0 .5-.1.5-.3s-.2-.3-.45-.3zM11.75 15.7h.15V16.9h.2v-1.25l-.35.05zM13.35 16.1c.05.05.1.1.1.25 0 .1 0 .15-.15.15h.3c0-.2-.1-.35-.25-.4zM13.3 16.95c.15 0 .25-.05.3-.25-.05.15-.15.25-.3.25zM12.9 16.55c0 .25.15.35.35.4-.1-.05-.1-.05-.1-.4s.05-.35.1-.4c-.2 0-.35.1-.35.4zM15.1 16.85v.05h.2V15.7h-.2v1.15zM14.2 16.6c0 .25-.05.3-.2.3h.4c-.15 0-.2-.05-.2-.3zM14 15.7h.15s.05 0 .05.05l.45 1.2.1-.3-.35-.95H14zM16 16.1c.1.05.1.1.1.45 0 .3-.05.35-.1.4.15-.05.35-.15.35-.4-.05-.25-.2-.4-.35-.45zM15.5 16.55c0 .25.15.35.35.4-.1-.05-.1-.05-.1-.4s.05-.35.1-.4c-.15 0-.35.1-.35.4zM17 16.2c0 .055-.045.1-.1.1s-.1-.045-.1-.1c0-.055.045-.1.1-.1s.1.045.1.1zM16.65 16.85v-.75h-.25c.05 0 .05 0 .05.05V16.85h.2c.05.05 0 .05 0 0zM17 16.55c0 .25.15.35.35.4-.1-.05-.1-.05-.1-.4s.05-.35.1-.4c-.15 0-.35.1-.35.4zM17.45 16.1c.05.05.1.1.1.25 0 .1 0 .15-.15.15h.3c.05-.2-.1-.35-.25-.4zM17.45 16.95c.15 0 .25-.05.3-.25-.1.15-.2.25-.3.25zM18.9 15.7h.15V16.85h.2V15.65h.15l-.5.05zM18.15 15.7h.15V16.9h.2V15.7h-.35zM20.25 16.85v-.75H20c.05 0 .05 0 .05.05v.6c0 .1 0 .1.1.1h.1c0 .05 0 .05 0 0zM19.8 16.75v-.65h-.25c.05 0 .05 0 .05.05v.5c0 .15.1.25.25.25h.1-.05c-.1.05-.1-.05-.1-.15zM20.7 16.85v-.75h-.25c.05 0 .05 0 .05.05V16.85h.2c.05.05 0 .05 0 0zM21.2 16.85v-.5c0-.15-.1-.25-.25-.25h-.1.05c.05 0 .1.05.1.2V16.9h.25c-.05 0-.05 0-.05-.05zM21.7 16.85v-.5c0-.15-.1-.25-.25-.25h-.1.05c.05 0 .1.05.1.2V16.9h.25c-.05 0-.05 0-.05-.05zM22 16.4c.05 0 .1-.05.1-.1s-.1-.05-.1-.1.05-.05.15-.05c-.15 0-.25.1-.25.2 0 0 .05.05.1.05zM22.05 16.7c0-.15.05-.2.1-.2h-.25c-.05.05-.1.1-.1.2 0 .2.05.25.2.25h.15-.05s-.05-.1-.05-.25zM22.6 16.8c0 .05 0 .1-.05.1s-.05-.05-.05-.1v-.45c0-.15-.1-.2-.2-.2v.6c0 .15.1.2.2.2s.15-.05.1-.15zM23.45 16.85v-.5c0-.15-.1-.25-.25-.25h-.1.05c.05 0 .1.05.1.2V16.9h.25c-.05 0-.05 0-.05-.05zM22.95 16.85v-.75h-.25c.05 0 .05 0 .05.05V16.85h.2c0 .05 0 .05 0 0zM24.5 16.9h.4c0-.15.05-.25.05-.4-.1.35-.15.4-.45.4zM24.9 16v-.35h-.35c.15.05.3.15.35.35zM24 15.7h.15V16.9h.2v-1.25l-.35.05zM24.7 16.5V16c0 .1-.05.25-.2.25.1.05.15.1.2.25zM25.6 16.35c.1-.1.2-.2.3-.2h-.3c.05 0 .05.1 0 .2zM25.3 16.7c-.1.1-.25.2-.3.2h.35c-.15 0-.1-.1-.05-.2zM25.5 16.9h.4c-.05 0-.1-.05-.15-.15l-.35-.55v-.05c0-.05 0-.05.05-.05h-.35c.05 0 .1 0 .1.1l.35.55c.05.05.05.1.05.1 0 .05-.05.05-.1.05zM26.4 16.1h-.1c.05.05.05.05.1 0 .1.05.15.15.15.45s-.05.4-.2.4c.2 0 .35-.15.35-.45.05-.2-.1-.4-.3-.4zM26.2 17.3v-1.15h-.25c.05 0 .05 0 .05.05v1.1h.2c0 .05 0 .05 0 0zM27.25 16.95c.15 0 .25-.05.3-.25-.05.15-.15.25-.3.25zM26.85 16.55c0 .25.15.35.35.4-.1-.05-.1-.05-.1-.4s.05-.35.1-.4c-.2 0-.35.1-.35.4zM27.25 16.1c.05.05.1.1.1.25 0 .1 0 .15-.15.15h.3c.05-.2-.05-.35-.25-.4zM28.2 16.2c0 .055-.045.1-.1.1s-.1-.045-.1-.1c0-.055.045-.1.1-.1s.1.045.1.1zM27.9 16.85v-.75h-.25c.05 0 .05 0 .05.05V16.85h.2c.05.05 0 .05 0 0zM28.45 15.9c.05 0 .1-.05.1-.1s-.05-.1-.1-.1-.1.05-.1.1.05.1.1.1zM28.55 16.85v-.75h-.25c.05 0 .05 0 .05.05V16.85h.2c0 .05 0 .05 0 0zM29.15 16.1c.05.05.1.1.1.25 0 .1 0 .15-.15.15h.3c.05-.2-.1-.35-.25-.4zM28.75 16.55c0 .25.15.35.35.4-.1-.05-.1-.05-.1-.4s.05-.35.1-.4c-.2 0-.35.1-.35.4zM29.15 16.95c.15 0 .25-.05.3-.25-.1.15-.15.25-.3.25zM29.8 16.85v-.75h-.25c.05 0 .05 0 .05.05V16.85h.25c-.05.05-.05.05-.05 0zM30.3 16.85v-.5c0-.15-.1-.25-.25-.25h-.1.05c.05 0 .1.05.1.2V16.9h.25c-.05 0-.05 0-.05-.05zM31 16.4c.05 0 .1-.05.1-.1s-.05-.1-.1-.1-.1.05-.1.1.05.1.1.1zM30.9 16.95c-.15 0-.2-.15-.2-.45s.05-.35.2-.35c-.2 0-.4.15-.4.45-.05.2.15.35.4.35.15 0 .2-.1.25-.25-.05.15-.15.25-.25.25zM31.2 16.55c0 .25.15.35.35.4-.1-.05-.1-.05-.1-.4s.05-.35.1-.4c-.2 0-.35.1-.35.4zM31.6 16.95c.15 0 .25-.05.3-.25-.1.15-.15.25-.3.25zM31.6 16.1c.05.05.1.1.1.25 0 .1 0 .15-.15.15h.3c.05-.2-.1-.35-.25-.4zM6.05 15.65c-.35 0-.6.2-.6.55v.3c0 .35.25.5.55.55h.05c.3 0 .55-.2.55-.55v-.3c0-.35-.2-.55-.55-.55zm.25.8c0 .2-.1.25-.25.25H6c-.1 0-.25-.05-.25-.25v-.3c0-.2.1-.25.25-.25h.05c.1 0 .25.05.25.25v.3zM7.95 15.65h-.4c-.05.05-.5.55-.5.55v-.85h-.3v1.6h.3v-.55l.5.55h.4l-.6-.65.6-.65zM2.1 15.65c-.35 0-.6.2-.6.55v.3c0 .3.25.5.55.55h.05c.35 0 .5-.2.55-.4h-.3c0 .05 0 .15-.25.15h-.15c-.2-.05-.15-.3-.15-.3h.85v-.25c0-.4-.2-.6-.55-.6zm.25.5H1.8c0-.15.1-.25.25-.25h.05c.15 0 .25.1.25.25zM3.4 15.65c-.35 0-.6.2-.6.55v.3c0 .3.25.5.55.55h.05c.35 0 .5-.2.55-.4h-.3c0 .05 0 .15-.25.15h-.15c-.2-.05-.15-.3-.15-.3h.85v-.25c0-.4-.2-.6-.55-.6zm-.25.5c0-.2.1-.25.25-.25h.05c.15 0 .25.05.25.25h-.55zM4.75 15.65c-.15 0-.25.05-.3.1v-.4h-.3v1.6h.05s.15-.05.15-.1c0 0 .15.1.35.1h.05c.3 0 .55-.2.55-.55v-.3c0-.25-.25-.45-.55-.45zm.25.8c0 .2-.1.25-.25.25H4.7c-.1 0-.25-.05-.25-.25v-.3c0-.2.1-.25.25-.25h.05c.1 0 .25.05.25.25v.3zM.95 16.3c.2 0 .45-.15.45-.45 0-.4-.3-.5-.6-.5H.1v1.6h.3v-.7l.65.7h.4l-.6-.65h.1zm-.5-.25v-.45H.8s.35.05.35.2-.1.25-.35.25H.45zM9.85 16.45h-.8l-.75.4v.1h2.35c.05-.05 0-.1 0-.1l-.8-.4zM8.95 16.3l.4-.7.05-.85s-.05-.05-.1-.05l-.5.9-.1.2-.5.9c0 .05.05.05.05.05l.7-.45zM10.1 15.65l-.5-.9c-.05 0-.1.05-.1.05l.05.85.4.7.7.45s.05 0 .05-.05l-.5-.9-.1-.2z" visibility="false" fill="#e9e9d9"/></svg>