<?xml version="1.0" encoding="utf-8"?>
<!-- Generator: Adobe Illustrator 18.1.0, SVG Export Plug-In . SVG Version: 6.00 Build 0)  -->
<!DOCTYPE svg PUBLIC "-//W3C//DTD SVG 1.1//EN" "http://www.w3.org/Graphics/SVG/1.1/DTD/svg11.dtd">
<svg version="1.1" id="Layer_2" xmlns="http://www.w3.org/2000/svg" xmlns:xlink="http://www.w3.org/1999/xlink" x="0px" y="0px"
	 viewBox="0 0 19 19" enable-background="new 0 0 19 19" xml:space="preserve">
<circle fill="#E8E8D8" cx="9.5" cy="9.5" r="1.3"/>
<rect x="8.8" y="0" fill="#E8E8D8" width="1.3" height="5.9"/>
<rect x="8.8" y="13.1" fill="#E8E8D8" width="1.3" height="5.9"/>
<rect x="13.1" y="8.8" fill="#E8E8D8" width="5.9" height="1.3"/>
<rect x="0" y="8.8" fill="#E8E8D8" width="5.9" height="1.3"/>
<polygon fill="#E8E8D8" points="16.1,6.9 17.4,6.9 17.4,1.5 12.1,1.5 12.1,2.9 16.1,2.9 "/>
<polygon fill="#E8E8D8" points="1.5,6.9 2.9,6.9 2.9,2.9 6.9,2.9 6.9,1.5 1.5,1.5 "/>
<polygon fill="#E8E8D8" points="2.9,12.1 1.5,12.1 1.5,17.4 6.9,17.4 6.9,16.1 2.9,16.1 "/>
<polygon fill="#E8E8D8" points="16.1,16.1 12.1,16.1 12.1,17.4 17.4,17.4 17.4,12.1 16.1,12.1 "/>
</svg>
